<?xml version="1.0" encoding="utf-8"?>
<!-- Generator: Adobe Illustrator 25.4.1, SVG Export Plug-In . SVG Version: 6.00 Build 0)  -->
<svg version="1.1" id="Layer_1" xmlns="http://www.w3.org/2000/svg" xmlns:xlink="http://www.w3.org/1999/xlink" x="0px" y="0px"
	 viewBox="0 0 800 400" style="enable-background:new 0 0 800 400;" xml:space="preserve">
<style type="text/css">
	.st0{fill:#F1F0F0;}
	.st1{fill:none;stroke:#BDC5CB;stroke-miterlimit:10;}
	.st2{fill:#BDC5CB;}
	.st3{fill:#00C3FF;}
	.st4{fill:#108C99;}
	.st5{fill:#FF6700;}
	.st6{fill:#27C840;}
</style>
<rect x="0.5" y="0" class="st0" width="800" height="400"/>
<rect x="626.7" y="147.77" class="st1" width="21.19" height="21.19"/>
<g>
	<g>
		<path class="st2" d="M636.42,158.36l3.41-3.41c0.11-0.11,0.11-0.23,0.11-0.34s0-0.23-0.11-0.34l-0.34-0.34
			c-0.11-0.11-0.23-0.11-0.34-0.11s-0.23,0-0.34,0.11l-4.09,4.09c-0.11,0.11-0.11,0.23-0.11,0.34s0,0.23,0.11,0.34l4.09,4.09
			c0.11,0.11,0.23,0.11,0.34,0.11s0.23,0,0.34-0.11l0.34-0.34c0.23-0.23,0.23-0.57,0-0.68L636.42,158.36z"/>
	</g>
</g>
<rect x="654.16" y="147.77" transform="matrix(-1 -8.981806e-11 8.981806e-11 -1 1329.5154 316.726)" class="st1" width="21.19" height="21.19"/>
<g>
	<g>
		<path class="st2" d="M665.65,158.36l-3.47,3.47c-0.12,0.12-0.12,0.23-0.12,0.35c0,0.12,0,0.23,0.12,0.35l0.35,0.35
			c0.12,0.12,0.23,0.12,0.35,0.12c0.12,0,0.23,0,0.35-0.12l4.16-4.16c0.12-0.12,0.12-0.23,0.12-0.35s0-0.23-0.12-0.35l-4.16-4.16
			c-0.12-0.12-0.23-0.12-0.35-0.12s-0.23,0-0.35,0.12l-0.35,0.35c-0.23,0.23-0.23,0.58,0,0.69L665.65,158.36z"/>
	</g>
</g>
<rect x="128.39" y="178.5" class="st1" width="127.28" height="73.69"/>
<path class="st3" d="M189.12,224.48l-6.07-5.28l-18.83,17.02h59.09l-22.06-24.66L189.12,224.48L189.12,224.48z M159.42,236.22h1.34
	l22.3-20.17l5.99,5.2l12.37-13.16l23.24,25.92v-39.55h-65.24V236.22z M169.97,201.08c2.44,0,4.33,1.97,4.33,4.33
	s-1.97,4.33-4.33,4.33c-2.44,0-4.33-1.97-4.33-4.33S167.53,201.08,169.97,201.08z"/>
<rect x="267.97" y="178.5" class="st1" width="127.28" height="73.69"/>
<path class="st4" d="M328.69,224.48l-6.07-5.28l-18.83,17.02h59.09l-22.06-24.66L328.69,224.48L328.69,224.48z M298.99,236.22h1.34
	l22.3-20.17l5.99,5.2l12.37-13.16l23.24,25.92v-39.55h-65.24V236.22z M309.55,201.08c2.44,0,4.33,1.97,4.33,4.33
	s-1.97,4.33-4.33,4.33c-2.44,0-4.33-1.97-4.33-4.33S307.11,201.08,309.55,201.08z"/>
<rect x="407.73" y="178.5" class="st1" width="127.28" height="73.69"/>
<path class="st5" d="M468.45,224.48l-6.07-5.28l-18.83,17.02h59.09l-22.06-24.66L468.45,224.48L468.45,224.48z M438.75,236.22h1.34
	l22.3-20.17l5.99,5.2l12.37-13.16l23.24,25.92v-39.55h-65.24V236.22z M449.31,201.08c2.44,0,4.33,1.97,4.33,4.33
	s-1.97,4.33-4.33,4.33c-2.44,0-4.33-1.97-4.33-4.33S446.86,201.08,449.31,201.08z"/>
<rect x="547.49" y="178.5" class="st1" width="127.28" height="73.69"/>
<path class="st6" d="M608.21,224.48l-6.07-5.28l-18.83,17.02h59.09l-22.06-24.66L608.21,224.48L608.21,224.48z M578.51,236.22h1.34
	l22.3-20.17l5.99,5.2l12.37-13.16l23.24,25.92v-39.55h-65.24V236.22z M589.07,201.08c2.44,0,4.33,1.97,4.33,4.33
	s-1.97,4.33-4.33,4.33c-2.44,0-4.33-1.97-4.33-4.33S586.62,201.08,589.07,201.08z"/>
</svg>
