<?xml version="1.0" encoding="utf-8"?>
<!-- Generator: Adobe Illustrator 16.0.4, SVG Export Plug-In . SVG Version: 6.00 Build 0)  -->
<!DOCTYPE svg PUBLIC "-//W3C//DTD SVG 1.1//EN" "http://www.w3.org/Graphics/SVG/1.1/DTD/svg11.dtd">
<svg version="1.1" id="Layer_1" xmlns="http://www.w3.org/2000/svg" xmlns:xlink="http://www.w3.org/1999/xlink" x="0px" y="0px"
	 width="612px" height="122.4px" viewBox="0 334.8 612 122.4" enable-background="new 0 334.8 612 122.4" xml:space="preserve">
<polygon fill="#A5E4EC" points="441.405,380.317 421.515,440.753 401.625,380.317 386.325,380.317 366.435,440.753 346.545,380.317 
	332.01,380.317 358.02,454.905 374.85,454.905 393.975,400.207 412.718,454.905 429.93,454.905 455.94,380.317 "/>
<rect x="465.503" y="380.317" fill="#A5E4EC" width="14.152" height="74.97"/>
<g>
	<path fill="#A5E4EC" d="M521.348,383.76c-4.208,3.06-7.65,6.885-10.328,11.475l-1.912,3.825v-18.742h-14.152v74.97h14.152V423.54
		c0-8.798,2.295-16.447,6.503-21.803c4.207-5.354,10.327-8.032,18.742-8.415V379.17C529.763,379.17,525.555,380.7,521.348,383.76"/>
	<path fill="#A5E4EC" d="M597.848,412.83h-46.282v-1.147c0-6.503,2.677-11.857,7.649-15.683s10.328-5.737,16.83-5.737
		c6.12,0,11.475,1.912,15.683,5.355c4.207,3.825,6.503,8.797,6.503,15.682v1.53H597.848z M612,413.595
		c0-10.71-3.442-19.125-10.71-25.245s-15.683-9.18-26.01-9.18c-10.328,0-19.125,3.442-26.393,10.328s-11.093,16.448-11.093,27.922
		c0,11.857,3.825,21.037,11.093,28.305c7.268,6.886,16.447,10.328,26.774,10.328c12.623,0,22.95-3.825,30.982-11.857l-7.649-8.415
		c-5.355,5.737-12.623,8.415-22.186,8.415c-6.119,0-11.857-1.913-16.829-5.355c-4.973-3.442-7.65-8.415-8.033-14.152v-1.147H612
		V413.595z"/>
</g>
<polygon fill="#FFFFFF" points="104.422,378.022 89.123,425.07 73.822,378.022 52.785,378.022 37.485,425.07 22.567,378.022 
	0,378.022 26.393,456.053 48.96,456.053 63.495,413.595 77.647,456.053 100.598,456.053 126.99,378.022 "/>
<rect x="137.7" y="378.022" fill="#FFFFFF" width="21.802" height="77.647"/>
<g>
	<path fill="#FFFFFF" d="M229.118,415.508c-3.06-1.913-5.355-3.061-7.65-3.825c-1.912-0.765-5.737-1.913-10.327-3.442
		c-4.973-1.53-8.415-3.061-10.71-4.208c-2.295-1.147-3.06-2.677-3.06-4.59c0-3.825,3.442-5.355,9.945-5.355
		s13.388,2.295,20.272,6.885l8.033-14.535c-9.18-6.12-18.36-9.18-27.54-9.18c-9.18,0-16.83,2.295-22.567,6.885
		c-5.738,4.59-8.798,10.327-8.798,17.595s3.06,12.623,8.798,16.447c3.06,1.913,5.355,3.061,7.65,4.208s5.737,2.295,9.945,3.442
		c4.208,1.53,7.65,2.678,9.945,4.208c2.295,1.529,3.443,3.06,3.443,4.972c0,1.913-0.765,3.442-2.295,4.591
		c-1.53,1.147-3.825,1.529-6.503,1.529c-9.18,0-17.977-3.06-26.01-9.562l-9.562,13.388c4.973,4.208,10.71,7.268,16.83,9.18
		c6.12,1.913,12.24,3.061,17.978,3.061c8.797,0,15.683-2.295,21.42-6.885c5.737-4.591,8.415-10.71,8.415-18.36
		S234.473,418.567,229.118,415.508"/>
	<path fill="#FFFFFF" d="M270.045,409.388c0.765-4.59,2.678-8.032,6.12-10.71s7.65-3.825,11.857-3.825s8.033,1.147,11.093,3.825
		c3.06,2.678,4.59,6.12,5.355,10.71H270.045z M315.18,386.438c-7.649-6.502-16.447-9.562-27.157-9.562s-19.89,3.442-27.922,10.71
		c-8.033,7.268-11.857,16.83-11.857,29.07c0,12.239,3.825,22.185,11.475,29.452c7.65,7.268,17.595,11.093,29.453,11.093
		s22.186-4.208,30.982-12.623l-12.24-13.005c-4.972,4.973-11.092,7.65-18.742,7.65c-4.59,0-8.797-1.53-12.623-4.208
		c-3.825-2.677-6.12-6.12-6.502-10.327h56.61v-11.475C326.272,402.12,322.447,392.94,315.18,386.438"/>
	<path fill="#FFFFFF" d="M145.732,368.842l-3.825-6.885c1.53-0.382,4.208-1.147,6.885-3.06c2.295-1.913,3.442-3.825,3.06-4.973
		c0-1.147,0-1.147-1.147-1.147h-1.147c-0.765,0-1.53,0.383-2.295,0.383c-2.678,0-4.973-0.765-6.503-2.678
		c-1.912-1.53-3.06-3.825-3.06-6.502c0-2.295,0.765-4.59,2.677-6.502c2.295-1.913,4.59-2.678,7.268-2.678
		c3.06,0,5.737,1.147,8.415,3.825c2.295,2.678,3.442,5.737,3.442,9.945s0,7.65-3.06,11.475
		C153.382,364.635,151.47,366.165,145.732,368.842"/>
</g>
</svg>
