<?xml version="1.0" encoding="UTF-8" standalone="no"?>
<svg
   xmlns:dc="http://purl.org/dc/elements/1.1/"
   xmlns:cc="http://creativecommons.org/ns#"
   xmlns:rdf="http://www.w3.org/1999/02/22-rdf-syntax-ns#"
   xmlns:svg="http://www.w3.org/2000/svg"
   xmlns="http://www.w3.org/2000/svg"
   viewBox="0 0 575.49335 115.28"
   height="115.28"
   width="575.49335"
   xml:space="preserve"
   id="svg2"
   version="1.1"><metadata
     id="metadata8"><rdf:RDF><cc:Work
         rdf:about=""><dc:format>image/svg+xml</dc:format><dc:type
           rdf:resource="http://purl.org/dc/dcmitype/StillImage" /></cc:Work></rdf:RDF></metadata><defs
     id="defs6"><clipPath
       id="clipPath20"
       clipPathUnits="userSpaceOnUse"><path
         id="path18"
         d="M 0,0 H 4316 V 864.574 H 0 Z" /></clipPath></defs><g
     transform="matrix(1.3333333,0,0,-1.3333333,0,115.28)"
     id="g10"><g
       transform="scale(0.1)"
       id="g12"><g
         id="g14"><g
           clip-path="url(#clipPath20)"
           id="g16"><path
             id="path22"
             style="fill:#8fdadf;fill-opacity:1;fill-rule:nonzero;stroke:none"
             d="M 2971.98,116.473 2831.54,544.195 H 2724.1 L 2583.64,116.473 2443.21,544.195 H 2340.97 L 2523.7,15.8516 h 119.91 l 134.2,387.7654 134.22,-387.7654 h 119.92 L 3214.67,544.195 H 3112.43 L 2971.98,116.473" /><path
             id="path24"
             style="fill:#8fdadf;fill-opacity:1;fill-rule:nonzero;stroke:none"
             d="m 3283.12,15.8594 h 99.1289 v 528.344 H 3283.12 Z" /><path
             id="path26"
             style="fill:#8fdadf;fill-opacity:1;fill-rule:nonzero;stroke:none"
             d="m 3677.8,520 c -30.54,-21.012 -55.01,-48.297 -72.75,-81.141 l -14.41,-26.632 v 131.972 h -99.1 V 15.8555 h 99.1 V 241.176 c 0,63.461 15.01,114.883 44.56,152.902 29.7,38.219 74.17,57.777 132.2,58.149 l -0.88,99.8 c -30.99,-2.043 -60.8,-12.816 -88.72,-32.027" /><path
             id="path28"
             style="fill:#8fdadf;fill-opacity:1;fill-rule:nonzero;stroke:none"
             d="m 4217.06,312.219 h -327.03 v 7.664 c 0,45.906 17.85,82.859 53.08,109.816 34.57,26.473 74.14,39.899 117.59,39.899 43.57,0 80.85,-13.02 110.76,-38.649 30.24,-25.918 45.6,-63.281 45.6,-111.066 z m 99.12,-3.578 c 0,75.625 -25.24,135.734 -75.01,178.636 -50.13,43.207 -111.9,65.098 -183.56,65.098 -71.58,0 -134.63,-24.754 -187.42,-73.602 -52.61,-48.644 -79.3,-115.355 -79.3,-198.234 0,-82.941 26.2,-149.836 77.83,-198.8085 51.75,-49.1563 115.48,-74.05081 189.42,-74.05081 88.71,0 162.12,28.08591 218.33,83.49611 l -54.69,59.8012 c -36.61,-40.161 -88.85,-60.5395 -155.46,-60.5395 -44.4,0 -84.41,12.7145 -118.95,37.7505 -35.18,25.449 -54.45,59.496 -57.32,101.234 l -0.55,8.195 h 426.68 v 71.024" /><path
             id="path30"
             style="fill:#47b9cd;fill-opacity:1;fill-rule:nonzero;stroke:none"
             d="M 628.492,225.848 521.188,557.98 H 373.008 L 265.703,225.848 158.402,557.98 H 0 L 186.992,8.19531 H 345.395 L 447.59,307.605 548.781,8.19531 H 708.184 L 895.219,557.98 H 735.797 L 628.492,225.848" /><path
             id="path32"
             style="fill:#47b9cd;fill-opacity:1;fill-rule:nonzero;stroke:none"
             d="m 970.828,8.19531 h 153.293 v 549.785 H 970.828 Z" /><path
             id="path34"
             style="fill:#47b9cd;fill-opacity:1;fill-rule:nonzero;stroke:none"
             d="m 1615.66,295.348 c -20.44,12.265 -37.97,21.277 -52.63,27.082 -14.65,5.765 -39.34,14.144 -74.09,25.039 -34.72,10.89 -59.62,20.437 -74.6,28.613 -14.98,8.176 -22.48,19.418 -22.48,33.723 0,25.879 23.66,38.836 71.02,38.836 47.36,0 94.88,-16.352 142.56,-49.055 l 57.23,102.195 c -64.73,43.574 -129.44,65.403 -194.17,65.403 -64.73,0 -117.52,-16.004 -158.4,-48.032 -40.88,-32.027 -61.31,-73.433 -61.31,-124.164 0,-50.75 20.76,-89.07 62.35,-114.968 20.44,-12.957 38.63,-22.829 54.66,-29.637 16,-6.805 39.16,-15 69.49,-24.528 30.31,-9.542 53.49,-19.761 69.49,-30.656 16,-10.914 24.02,-22.851 24.02,-35.769 0,-12.938 -5.79,-23.34 -17.38,-31.168 -11.59,-7.848 -27.26,-11.75 -46.99,-11.75 -64.75,0 -125.71,22.133 -182.94,66.426 l -67.43,-96.0669 c 35.4,-28.6133 75.26,-50.2383 119.55,-64.8906 44.27,-14.65628 86.86,-21.9726875 127.74,-21.9726875 61.31,0 111.9,16.3515875 151.76,49.0546875 39.85,32.6992 59.78,76.1325 59.78,130.2965 0,54.161 -19.09,92.813 -57.23,115.989" /><path
             id="path36"
             style="fill:#47b9cd;fill-opacity:1;fill-rule:nonzero;stroke:none"
             d="m 1904.86,338.262 c 4.09,31.332 18.74,56.207 43.94,74.601 25.2,18.414 52.98,27.594 83.31,27.594 30.29,0 56.02,-8.871 77.14,-26.57 21.11,-17.723 33.37,-42.903 36.81,-75.625 z m 317.31,160.465 c -52.81,45.621 -116.99,68.449 -192.61,68.449 -75.65,0 -141.24,-25.547 -196.73,-76.645 -55.55,-51.097 -83.31,-119.914 -83.31,-206.41 0,-86.539 27.25,-155.519 81.76,-206.9452 C 1885.77,25.7109 1954.75,0 2038.22,0 c 83.45,0 156.19,29.2891 218.19,87.8867 l -85.85,93.0153 c -34.72,-36.132 -79.03,-54.179 -132.85,-54.179 -33.38,0 -63.36,9.543 -89.91,28.632 -26.57,19.047 -42.27,43.594 -47.01,73.559 h 400.58 v 81.758 c 0,79.73 -26.41,142.394 -79.2,188.055" /><path
             id="path38"
             style="fill:#47b9cd;fill-opacity:1;fill-rule:nonzero;stroke:none"
             d="m 1027.26,623.113 -28.158,47.489 c 10.108,3.918 30.758,7.507 47.428,21.808 16.35,13.969 23.36,27.168 22.59,34.18 -0.89,7.676 -1.22,8.504 -7.62,8.504 l -7.29,-1.16 c -5.41,-1.27 -10.66,-1.934 -15.79,-1.934 -18.45,0 -34.13,6.516 -47.049,19.602 -12.973,13.086 -19.433,29.097 -19.433,48.039 0,17.39 6.679,32.578 19.988,45.55 13.364,12.922 29.484,19.383 48.424,19.383 22.31,0 41.63,-9.222 58.03,-27.664 16.4,-18.441 24.63,-41.742 24.63,-69.957 0,-30.758 0.55,-52.844 -20.49,-82.328 -20.98,-29.484 -33.24,-40.75 -75.26,-61.512" /></g></g></g></g></svg>