<?xml version="1.0" encoding="utf-8"?>
<!-- Generator: Adobe Illustrator 16.0.4, SVG Export Plug-In . SVG Version: 6.00 Build 0)  -->
<!DOCTYPE svg PUBLIC "-//W3C//DTD SVG 1.1//EN" "http://www.w3.org/Graphics/SVG/1.1/DTD/svg11.dtd">
<svg version="1.1" id="Layer_1" xmlns="http://www.w3.org/2000/svg" xmlns:xlink="http://www.w3.org/1999/xlink" x="0px" y="0px"
	 width="38.733px" height="38.915px" viewBox="0 0 38.733 38.915" enable-background="new 0 0 38.733 38.915" xml:space="preserve">
<g>
	<path fill="#FFFFFF" d="M26.53,22.611c1.562-2.314,2.475-5.104,2.475-8.107C29.004,6.495,22.51,0.001,14.5,0
		C6.491-0.001-0.001,6.491,0,14.5c0.002,8.01,6.496,14.503,14.505,14.504c2.908,0.001,5.61-0.862,7.879-2.336l12.247,12.247
		l4.103-4.101L26.53,22.611L26.53,22.611z M23.204,14.504c0.001,4.805-3.894,8.7-8.7,8.7c-4.805-0.001-8.702-3.897-8.703-8.703
		c0-4.806,3.895-8.701,8.7-8.7C19.307,5.802,23.203,9.698,23.204,14.504L23.204,14.504z"/>
</g>
</svg>
