<?xml version="1.0" encoding="utf-8"?>
<!-- Generator: Adobe Illustrator 16.0.4, SVG Export Plug-In . SVG Version: 6.00 Build 0)  -->
<!DOCTYPE svg PUBLIC "-//W3C//DTD SVG 1.1//EN" "http://www.w3.org/Graphics/SVG/1.1/DTD/svg11.dtd">
<svg version="1.1" id="Layer_1" xmlns="http://www.w3.org/2000/svg" xmlns:xlink="http://www.w3.org/1999/xlink" x="0px" y="0px"
	 width="60px" height="41.001px" viewBox="0 0 60 41.001" enable-background="new 0 0 60 41.001" xml:space="preserve">
<g>
	<path fill="#FFFFFF" d="M31.805,16.198c0,0-2.633-0.39-3.802-1.805c-1.168-1.415-1.577-5.309-0.735-7.089
		c1.421-3.007,2.775-5.401,0-6.952c-2.776-1.551-6.055,2.336-7.317,5.495c-1.261,3.158-1.766,7.288-1.766,7.288L3.783,13.884
		c-1.914,0-3.666,1.358-3.774,3.198c-0.012,0.217-0.01,0.446,0.011,0.689c0.253,2.915,2.133,2.915,2.133,2.915
		s-2.17,0.967-2.151,3.396c0.018,2.43,2.151,3.387,2.151,3.387s-2.219,0.859-2.151,4.13c0.051,2.479,2.151,3.044,2.151,3.044
		s-1.05,0.763-1.063,2.525c-0.01,1.395,1.063,2.109,1.063,2.109s3.166,1.944,10.229,1.701c7.065-0.243,12.11-0.486,13.624-0.973
		c1.514-0.485,3.028-3.157,4.037-2.916c1.009,0.243,6.308-1.688,6.308-1.688V16.927L31.805,16.198L31.805,16.198z"/>
	<polygon fill="#FFFFFF" points="60,41 38.051,41 38.051,11.096 60,11.096 60,41 	"/>
</g>
</svg>
