<?xml version="1.0" encoding="utf-8"?>
<!-- Generator: Adobe Illustrator 16.0.4, SVG Export Plug-In . SVG Version: 6.00 Build 0)  -->
<!DOCTYPE svg PUBLIC "-//W3C//DTD SVG 1.1//EN" "http://www.w3.org/Graphics/SVG/1.1/DTD/svg11.dtd">
<svg version="1.1" id="Layer_1" xmlns="http://www.w3.org/2000/svg" xmlns:xlink="http://www.w3.org/1999/xlink" x="0px" y="0px"
	 width="85px" height="110px" viewBox="0 0 85 110" enable-background="new 0 0 85 110" xml:space="preserve">
<g>
	<polygon fill="#32C1D2" points="54.401,46.487 42.098,31.339 29.795,46.487 37.302,46.487 37.302,68.013 46.895,68.013 
		46.895,46.487 54.401,46.487 	"/>
	<polygon fill="#32C1D2" points="68.559,86.662 15.638,86.662 15.638,64.617 23.052,64.617 23.052,79.104 61.145,79.104 
		61.145,64.617 68.559,64.617 68.559,86.662 	"/>
	<path fill="#32C1D2" d="M82.831,110H2.169C0.971,110,0,109.011,0,107.789V2.212c0-1.221,0.971-2.211,2.169-2.211h59.264
		c1.197,0,2.168,0.99,2.168,2.211c0,1.221-0.971,2.211-2.168,2.211H4.338v101.155h76.324V24.026c0-1.221,0.971-2.211,2.169-2.211
		S85,22.805,85,24.026v83.763C85,109.011,84.029,110,82.831,110L82.831,110z"/>
	<path fill="#32C1D2" d="M82.831,26.237H61.433c-1.198,0-2.17-0.989-2.17-2.211V2.212c0-0.894,0.528-1.701,1.339-2.043
		c0.814-0.343,1.744-0.153,2.363,0.48l21.4,21.814c0.62,0.632,0.805,1.583,0.47,2.41C84.499,25.699,83.708,26.237,82.831,26.237
		L82.831,26.237z M63.601,21.816h13.994L63.601,7.549V21.816L63.601,21.816z"/>
</g>
</svg>
