<?xml version="1.0" encoding="utf-8"?>
<!-- Generator: Adobe Illustrator 16.0.4, SVG Export Plug-In . SVG Version: 6.00 Build 0)  -->
<!DOCTYPE svg PUBLIC "-//W3C//DTD SVG 1.1//EN" "http://www.w3.org/Graphics/SVG/1.1/DTD/svg11.dtd">
<svg version="1.1" id="Layer_1" xmlns="http://www.w3.org/2000/svg" xmlns:xlink="http://www.w3.org/1999/xlink" x="0px" y="0px"
	 width="36.001px" height="43px" viewBox="0 0 36.001 43" enable-background="new 0 0 36.001 43" xml:space="preserve">
<g>
	<path fill="#FFFFFF" d="M35.656,25.332l-3.506-6.803V16.34c0,0,0,0,0-0.001C32.15,7.315,24.953,0,16.075,0S0,7.315,0,16.339
		c0,4.698,1.954,8.931,5.076,11.911V43h19.036v-5.16h4.653c1.861,0,3.385-1.549,3.385-3.439v-6.021h1.691
		C35.703,28.379,36.52,27.008,35.656,25.332L35.656,25.332z M15.964,19.816l-0.618,1.09l-1.842-0.354l-0.858,0.729l0.024,1.906
		l-1.163,0.432l-1.187-1.477H9.201l-1.188,1.477l-1.163-0.43l0.024-1.908l-0.857-0.729l-1.842,0.354l-0.619-1.089l1.223-1.445
		l-0.195-1.12L2.949,16.32l0.215-1.24l1.85-0.308l0.559-0.984l-0.662-1.783l0.948-0.808l1.612,0.973l1.051-0.389l0.619-1.799h1.238
		l0.619,1.799l1.051,0.389l1.612-0.973l0.948,0.808l-0.662,1.783l0.559,0.985l1.85,0.308l0.216,1.238l-1.636,0.933l-0.194,1.12
		L15.964,19.816L15.964,19.816z M26.23,12.639l-0.743,1.308l-2.032-0.422l-0.918,0.539l-0.654,1.998h-1.486l-0.655-1.998
		l-0.919-0.539l-2.031,0.422l-0.743-1.308l1.376-1.576V9.985l-1.376-1.576L16.791,7.1l2.032,0.423l0.918-0.539l0.656-1.999h1.485
		l0.655,1.999l0.919,0.538l2.03-0.422l0.743,1.308l-1.376,1.577v1.078L26.23,12.639L26.23,12.639z"/>
	<path fill="#FFFFFF" d="M12.096,16.801c0,1.311-1.046,2.374-2.336,2.374s-2.336-1.063-2.336-2.374c0-1.312,1.046-2.375,2.336-2.375
		S12.096,15.489,12.096,16.801L12.096,16.801z"/>
	<path fill="#FFFFFF" d="M22.905,10.524c0,0.991-0.791,1.794-1.766,1.794c-0.976,0-1.766-0.803-1.766-1.794
		c0-0.991,0.79-1.795,1.766-1.795C22.114,8.729,22.905,9.533,22.905,10.524L22.905,10.524z"/>
</g>
</svg>
