<?xml version="1.0" encoding="utf-8"?>
<!-- Generator: Adobe Illustrator 16.0.4, SVG Export Plug-In . SVG Version: 6.00 Build 0)  -->
<!DOCTYPE svg PUBLIC "-//W3C//DTD SVG 1.1//EN" "http://www.w3.org/Graphics/SVG/1.1/DTD/svg11.dtd">
<svg version="1.1" id="Layer_1" xmlns="http://www.w3.org/2000/svg" xmlns:xlink="http://www.w3.org/1999/xlink" x="0px" y="0px"
	 width="36px" height="58px" viewBox="0 0 36 58" enable-background="new 0 0 36 58" xml:space="preserve">
<g>
	<path fill="#FFFFFF" d="M36,54.479V3.52c0-0.967-0.393-1.843-1.028-2.479C34.33,0.398,33.443,0,32.461,0H3.54
		C1.585,0,0,1.576,0,3.52v32.306v18.652C0,56.424,1.585,58,3.54,58h28.921C34.416,58,36,56.424,36,54.479L36,54.479z M16.461,51.959
		c0.394-0.391,0.938-0.633,1.539-0.633C17.399,51.326,16.855,51.568,16.461,51.959L16.461,51.959z M15.824,53.49
		c0-0.299,0.06-0.584,0.171-0.842C15.884,52.906,15.824,53.191,15.824,53.49L15.824,53.49L15.824,53.49z M32.417,49.285H3.583
		V32.264V3.997h28.416h0.418V49.285L32.417,49.285z M28.634,7.345H6.929v21.571h0.019h21.705V7.345H28.634L28.634,7.345z
		 M28.862,32.891H7.753v1.152h21.109V32.891L28.862,32.891z M28.862,36.156H7.753v1.152h21.109V36.156L28.862,36.156z M28.862,39.42
		H7.753v1.152h21.109V39.42L28.862,39.42z M24.754,42.686H7.753v1.152h17.001V42.686L24.754,42.686z"/>
</g>
</svg>
