<?xml version="1.0" encoding="utf-8"?>
<!-- Generator: Adobe Illustrator 16.0.4, SVG Export Plug-In . SVG Version: 6.00 Build 0)  -->
<!DOCTYPE svg PUBLIC "-//W3C//DTD SVG 1.1//EN" "http://www.w3.org/Graphics/SVG/1.1/DTD/svg11.dtd">
<svg version="1.1" id="Layer_1" xmlns="http://www.w3.org/2000/svg" xmlns:xlink="http://www.w3.org/1999/xlink" x="0px" y="0px"
	 width="115.789px" height="110.963px" viewBox="0 0 115.789 110.963" enable-background="new 0 0 115.789 110.963"
	 xml:space="preserve">
<g>
	<polygon fill="#F26A21" points="115.568,84.31 88.572,84.31 88.572,57.113 115.568,57.113 115.568,84.31 	"/>
	<polygon fill="#F26A21" points="26.995,56.771 0,56.771 0,29.575 26.995,29.575 26.995,56.771 	"/>
	<path fill="none" stroke="#F26A21" stroke-width="4.8245" stroke-miterlimit="10" d="M18.884,43.449l73.25-28.544 M18.199,96.781
		l78.809-25.76L20.912,44.469"/>
	<path fill="#F26A21" d="M14.143,110.963c7.784,0,14.093-6.357,14.093-14.199c0-7.84-6.309-14.197-14.093-14.197
		c-7.783,0-14.093,6.357-14.093,14.197C0.05,104.605,6.36,110.963,14.143,110.963L14.143,110.963z"/>
	<path fill="#F26A21" d="M101.695,28.399c7.783,0,14.094-6.358,14.094-14.2C115.789,6.358,109.479,0,101.695,0
		S87.602,6.358,87.602,14.199C87.602,22.041,93.912,28.399,101.695,28.399L101.695,28.399z"/>
</g>
</svg>
