<?xml version="1.0" encoding="utf-8"?>
<!-- Generator: Adobe Illustrator 16.0.4, SVG Export Plug-In . SVG Version: 6.00 Build 0)  -->
<!DOCTYPE svg PUBLIC "-//W3C//DTD SVG 1.1//EN" "http://www.w3.org/Graphics/SVG/1.1/DTD/svg11.dtd">
<svg version="1.1" id="Layer_1" xmlns="http://www.w3.org/2000/svg" xmlns:xlink="http://www.w3.org/1999/xlink" x="0px" y="0px"
	 width="584.307px" height="521.7px" viewBox="133.693 350.351 584.307 521.7"
	 enable-background="new 133.693 350.351 584.307 521.7" xml:space="preserve">
<line fill="none" stroke="#F6891F" stroke-width="3" x1="602.485" y1="424.067" x2="686.023" y2="424.067"/>
<line fill="none" stroke="#F6891F" stroke-width="3" x1="602.485" y1="437.99" x2="670.417" y2="437.99"/>
<line fill="none" stroke="#F6891F" stroke-width="3" x1="557.197" y1="451.913" x2="686.023" y2="451.913"/>
<line fill="none" stroke="#F6891F" stroke-width="3" x1="557.197" y1="480.065" x2="684.952" y2="480.065"/>
<line fill="none" stroke="#F6891F" stroke-width="3" x1="557.197" y1="465.836" x2="678.067" y2="465.836"/>
<line fill="none" stroke="#F6891F" stroke-width="3" x1="557.197" y1="493.988" x2="659.095" y2="493.988"/>
<text transform="matrix(1 0 0 1 552.877 443.415)" fill="#F6891F" font-family="'Montserrat-Regular'" font-size="41.2658">W</text>
<rect x="165.67" y="398.21" fill="#F6891F" width="26.01" height="26.01"/>
<line fill="none" stroke="#F6891F" stroke-width="3" x1="202.849" y1="404.33" x2="261.142" y2="404.33"/>
<line fill="none" stroke="#F6891F" stroke-width="3" x1="202.849" y1="417.947" x2="261.142" y2="417.947"/>
<rect x="165.67" y="437.531" fill="#F6891F" width="26.01" height="26.01"/>
<line fill="none" stroke="#F6891F" stroke-width="3" x1="202.849" y1="443.651" x2="261.142" y2="443.651"/>
<line fill="none" stroke="#F6891F" stroke-width="3" x1="202.849" y1="457.268" x2="261.142" y2="457.268"/>
<rect x="165.67" y="476.699" fill="#F6891F" width="26.01" height="26.01"/>
<line fill="none" stroke="#F6891F" stroke-width="3" x1="202.849" y1="482.666" x2="261.142" y2="482.666"/>
<line fill="none" stroke="#F6891F" stroke-width="3" x1="202.849" y1="496.589" x2="261.142" y2="496.589"/>
<g>
	<g>
		<rect x="357.226" y="351.851" fill="none" stroke="#F6891F" stroke-width="3" width="101.286" height="63.648"/>
	</g>
	<polygon fill="#F6891F" points="396.7,400.046 422.251,383.216 396.7,366.539 	"/>
</g>
<line fill="none" stroke="#F6891F" stroke-width="3.843" x1="360.898" y1="536.369" x2="404.503" y2="536.369"/>
<line fill="none" stroke="#F6891F" stroke-width="3.843" x1="360.898" y1="521.528" x2="404.503" y2="521.528"/>
<line fill="none" stroke="#F6891F" stroke-width="3.843" x1="360.898" y1="551.363" x2="404.503" y2="551.363"/>
<g>
	<path fill="#F6891F" d="M464.785,570.029H350.8v-67.015h114.138v67.015H464.785z M466.468,496.283H349.117
		c-2.907,0-5.049,2.142-5.049,5.049v1.683v68.697c0,2.754,2.142,5.049,5.049,5.049h1.683h114.139h1.683
		c2.754,0,5.049-2.142,5.049-5.049v-68.697v-1.683C471.517,498.425,469.375,496.283,466.468,496.283"/>
	<path fill="#F6891F" d="M419.65,600.17c0,0.918-0.612,1.683-1.684,1.683h-20.043c-1.071,0-1.683-0.611-1.683-1.683v-1.683h23.409
		V600.17L419.65,600.17z M385.684,590.837h44.064l3.366,5.355h-50.949L385.684,590.837z M471.67,579.974
		c-1.071-1.07-3.06-1.683-4.437-1.683H348.046c-1.377,0-3.366,0.918-4.437,1.683l-19.891,18.514v3.365c0,0,0,5.05,5.049,5.05
		h157.591c5.049,0,5.049-5.05,5.049-5.05v-3.365L471.67,579.974z"/>
	<circle fill="none" stroke="#F6891F" stroke-width="3.843" cx="435.562" cy="536.369" r="17.595"/>
</g>
<line fill="none" stroke="#F15623" stroke-width="2.5" x1="407.869" y1="430.34" x2="407.869" y2="469.508"/>
<polygon fill="#F15623" points="407.869,478.229 420.262,464.765 395.323,464.765 "/>
<line fill="none" stroke="#F15623" stroke-width="2.5" x1="279.655" y1="462.164" x2="309.796" y2="483.89"/>
<polygon fill="#F15623" points="316.834,488.939 298.627,491.387 313.315,471.191 "/>
<line fill="none" stroke="#F15623" stroke-width="2.5" x1="529.81" y1="462.164" x2="499.822" y2="483.89"/>
<polygon fill="#F15623" points="492.631,488.939 510.838,491.387 496.303,471.191 "/>
<path fill="#F6891F" d="M186.784,717.674c16.524,0,29.835,13.312,29.835,29.835c0,16.524-13.311,29.835-29.835,29.835
	c-16.524,0-29.835-13.311-29.835-29.835C156.949,730.985,170.26,717.674,186.784,717.674"/>
<path fill="#F6891F" d="M239.875,872.051v-51.408c0-18.207-14.994-33.2-33.201-33.2h-39.78c-18.207,0-33.201,14.993-33.201,33.2
	v51.408H239.875z"/>
<path fill="#F6891F" d="M664.909,717.674c16.523,0,29.835,13.312,29.835,29.835c0,16.524-13.312,29.835-29.835,29.835
	c-16.524,0-29.835-13.311-29.835-29.835C635.074,730.985,648.385,717.674,664.909,717.674"/>
<path fill="#F6891F" d="M718,872.051v-51.408c0-18.207-14.994-33.2-33.201-33.2h-39.78c-18.206,0-33.2,14.993-33.2,33.2v51.408H718z
	"/>
<path fill="#F6891F" d="M493.396,781.322H352.636v-82.773h140.761V781.322z M495.538,690.287H350.8
	c-3.366,0-6.272,2.754-6.272,6.272v1.989v84.762c0,3.366,2.754,6.273,6.272,6.273h1.989h140.76h1.989
	c3.366,0,6.272-2.907,6.272-6.273v-84.762v-1.989C501.658,692.888,499.057,690.287,495.538,690.287"/>
<path fill="#F6891F" d="M437.704,818.501c0,1.224-1.071,1.989-1.989,1.989h-24.786c-1.224,0-1.988-0.918-1.988-1.989v-1.989h28.917
	L437.704,818.501L437.704,818.501z M395.782,806.873h54.468l4.284,6.732h-62.73L395.782,806.873z M501.811,793.715
	c-1.224-1.224-3.672-1.989-5.354-1.989H349.729c-1.684,0-3.979,1.071-5.355,1.989l-24.633,22.797v4.284c0,0,0,6.273,6.272,6.273
	h194.463c6.273,0,6.273-6.273,6.273-6.273v-4.284L501.811,793.715z"/>
<rect x="371.455" y="706.811" fill="#F6891F" width="18.054" height="15.606"/>
<rect x="399.913" y="706.811" fill="#F6891F" width="18.054" height="15.606"/>
<rect x="428.371" y="706.811" fill="#F6891F" width="18.054" height="15.606"/>
<rect x="456.829" y="706.811" fill="#F6891F" width="18.054" height="15.606"/>
<rect x="371.455" y="732.056" fill="#F6891F" width="18.054" height="15.606"/>
<rect x="399.913" y="732.056" fill="#F6891F" width="18.054" height="15.606"/>
<rect x="428.371" y="732.056" fill="#F6891F" width="18.054" height="15.606"/>
<rect x="456.829" y="732.056" fill="#F6891F" width="18.054" height="15.606"/>
<rect x="371.455" y="757.148" fill="#F6891F" width="18.054" height="15.605"/>
<rect x="399.913" y="757.148" fill="#F6891F" width="18.054" height="15.605"/>
<rect x="428.371" y="757.148" fill="#F6891F" width="18.054" height="15.605"/>
<rect x="456.829" y="757.148" fill="#F6891F" width="18.054" height="15.605"/>
<g>
	<path fill="none" stroke="#F15623" stroke-width="2.5" d="M247.372,799.835c8.568-24.479,34.119-31.212,61.965-31.212"/>
	<polygon fill="#F15623" points="318.058,768.47 304.594,755.924 304.594,780.863 	"/>
	<path fill="none" stroke="#F15623" stroke-width="2.5" d="M528.433,769.235c27.999-1.989,42.534-2.907,59.671,22.949"/>
	<polygon fill="#F15623" points="592.846,799.529 575.098,795.245 595.753,781.475 	"/>
</g>
<text transform="matrix(1 0 0 1 170.5205 701.3877)" fill="#F6891F" font-family="'Montserrat-Regular'" font-size="64.3008">?</text>
<text transform="matrix(1 0 0 1 655.3682 701.3877)" fill="#F6891F" font-family="'Montserrat-Regular'" font-size="64.3008">!</text>
<rect x="469.681" y="779.639" fill="#FAA51A" width="37.026" height="65.79"/>
<g>
	<path fill="#F6891F" d="M484.675,851.396c0-1.684,1.377-3.061,3.061-3.061c1.683,0,3.06,1.377,3.06,3.061
		c0,1.683-1.377,3.06-3.06,3.06C486.052,854.456,484.675,853.079,484.675,851.396 M470.752,787.748h33.813v55.692h-33.813V787.748z
		 M479.626,784.076c-0.459,0-0.918-0.307-0.918-0.918v-0.918c0-0.459,0.306-0.918,0.918-0.918h16.065
		c0.459,0,0.918,0.306,0.918,0.918v0.918c0,0.459-0.307,0.918-0.918,0.918H479.626z M509.155,850.325v-64.413
		c0-8.109-8.109-8.109-8.109-8.109h-26.469c0,0-8.109,0-8.109,8.109v64.413c0,8.108,8.109,8.108,8.109,8.108h26.469
		C501.046,858.434,509.155,858.434,509.155,850.325"/>
</g>
<rect x="475.342" y="795.398" fill="#F6891F" width="10.404" height="9.026"/>
<rect x="489.724" y="795.398" fill="#F6891F" width="10.404" height="9.026"/>
<rect x="475.342" y="808.25" fill="#F6891F" width="10.404" height="9.027"/>
<rect x="489.724" y="808.097" fill="#F6891F" width="10.404" height="9.027"/>
<rect x="475.342" y="821.255" fill="#F6891F" width="10.404" height="9.027"/>
<rect x="489.724" y="820.49" fill="#F6891F" width="10.404" height="9.026"/>
<line fill="none" stroke="#F15623" stroke-width="2.5" x1="560.41" y1="647.141" x2="284.551" y2="647.141"/>
<line fill="none" stroke="#F15623" stroke-width="2.5" x1="422.557" y1="647.141" x2="422.557" y2="667.949"/>
<line fill="none" stroke="#F15623" stroke-width="2.5" x1="286.54" y1="632.453" x2="286.54" y2="646.376"/>
<line fill="none" stroke="#F15623" stroke-width="2.5" x1="558.574" y1="632.453" x2="558.574" y2="646.376"/>
</svg>
