<?xml version="1.0" encoding="utf-8"?>
<!-- Generator: Adobe Illustrator 16.0.4, SVG Export Plug-In . SVG Version: 6.00 Build 0)  -->
<!DOCTYPE svg PUBLIC "-//W3C//DTD SVG 1.1//EN" "http://www.w3.org/Graphics/SVG/1.1/DTD/svg11.dtd">
<svg version="1.1" id="Layer_1" xmlns="http://www.w3.org/2000/svg" xmlns:xlink="http://www.w3.org/1999/xlink" x="0px" y="0px"
	 width="607.948px" height="389.657px" viewBox="106.84 449.829 607.948 389.657"
	 enable-background="new 106.84 449.829 607.948 389.657" xml:space="preserve">
<g>
	<line fill="none" stroke="#3FA18A" stroke-width="2.5" x1="197.012" y1="629.642" x2="261.696" y2="629.642"/>
	<polygon fill="#3FA18A" points="268.361,629.642 258.061,619.946 258.061,639.337 	"/>
	<line fill="none" stroke="#3FA18A" stroke-width="2.5" x1="477.107" y1="629.642" x2="541.792" y2="629.642"/>
	<polygon fill="#3FA18A" points="548.609,629.642 538.308,619.946 538.308,639.337 	"/>
	<line fill="none" stroke="#3FA18A" stroke-width="2.5" x1="484.985" y1="604.192" x2="535.43" y2="563.442"/>
	<polygon fill="#3FA18A" points="540.58,559.353 526.492,558.292 538.611,573.289 	"/>
	<line fill="none" stroke="#3FA18A" stroke-width="2.5" x1="484.985" y1="655.242" x2="535.43" y2="695.992"/>
	<polygon fill="#3FA18A" points="540.58,700.385 526.492,701.294 538.611,686.297 	"/>
	<g>
		<path fill="#3FB79A" d="M620.413,449.829c8.938,0,16.058,7.119,16.058,16.057c0,8.938-7.12,16.058-16.058,16.058
			s-16.058-7.119-16.058-16.058C604.355,457.1,611.476,449.829,620.413,449.829"/>
		<path fill="#3FB79A" d="M649.195,533.297v-27.873c0-9.847-8.181-17.875-17.875-17.875h-21.663c-9.847,0-17.875,8.18-17.875,17.875
			v27.722L649.195,533.297L649.195,533.297z"/>
		<path fill="#3FB79A" d="M603.446,594.194c7.878,0,14.24,6.514,14.24,14.239c0,7.877-6.515,14.239-14.24,14.239
			c-7.877,0-14.239-6.514-14.239-14.239C589.358,600.708,595.721,594.194,603.446,594.194"/>
		<path fill="#3FB79A" d="M628.896,668.119v-24.692c0-8.786-7.12-15.906-15.906-15.906h-19.087c-8.786,0-15.906,7.12-15.906,15.906
			v24.692H628.896z"/>
		<path fill="#3FB79A" d="M652.831,617.371c5.302,0,9.846,4.394,9.846,9.847s-4.393,9.847-9.846,9.847
			c-5.454,0-9.847-4.394-9.847-9.847S647.528,617.371,652.831,617.371"/>
		<path fill="#3FB79A" d="M670.555,668.119v-16.967c0-6.06-4.999-10.907-10.907-10.907H646.62c-6.06,0-10.907,4.999-10.907,10.907
			v16.967H670.555z"/>
		<path fill="#3FB79A" d="M566.333,741.893c7.877,0,14.239,6.514,14.239,14.239c0,7.877-6.514,14.239-14.239,14.239
			c-7.878,0-14.24-6.514-14.24-14.239C552.093,748.103,558.304,741.893,566.333,741.893"/>
		<path fill="#3FB79A" d="M591.782,815.816v-24.691c0-8.786-7.12-15.906-15.906-15.906h-19.087c-8.786,0-15.906,7.12-15.906,15.906
			v24.691H591.782z"/>
		<path fill="#3FB79A" d="M636.318,771.28c5.303,0,9.847,4.393,9.847,9.847c0,5.453-4.393,9.847-9.847,9.847
			c-5.302,0-9.846-4.394-9.846-9.847C626.32,775.521,630.714,771.28,636.318,771.28"/>
		<path fill="#3FB79A" d="M653.588,816.12v-13.482c0-4.848-4.999-8.635-10.906-8.635h-13.028c-6.06,0-10.907,3.787-10.907,8.635
			v13.482H653.588z"/>
		<path fill="#3FB79A" d="M615.717,765.523c5.302,0,9.847,4.394,9.847,9.847c0,5.302-4.394,9.847-9.847,9.847
			s-9.847-4.393-9.847-9.847C606.021,769.917,610.415,765.523,615.717,765.523"/>
		<path fill="#3FB79A" d="M633.289,816.12v-16.967c0-6.06-4.999-10.907-10.907-10.907h-13.027c-6.06,0-10.907,4.999-10.907,10.907
			v16.967H633.289z"/>
		<path fill="#3FB79A" d="M697.367,765.523c5.302,0,9.847,4.394,9.847,9.847c0,5.302-4.394,9.847-9.847,9.847
			c-5.302,0-9.847-4.393-9.847-9.847C687.521,769.917,691.914,765.523,697.367,765.523"/>
		<path fill="#3FB79A" d="M714.788,816.12v-16.967c0-6.06-4.999-10.907-10.907-10.907h-13.027c-6.06,0-10.907,4.999-10.907,10.907
			v16.967H714.788z"/>
		<path fill="#3FB79A" d="M656.618,765.523c5.302,0,9.846,4.394,9.846,9.847c0,5.302-4.393,9.847-9.846,9.847
			c-5.303,0-9.847-4.393-9.847-9.847C646.923,769.917,651.164,765.523,656.618,765.523"/>
		<path fill="#3FB79A" d="M673.887,816.12v-16.967c0-6.06-4.999-10.907-10.906-10.907h-13.028c-6.06,0-10.906,4.999-10.906,10.907
			v16.967H673.887z"/>
		<path fill="#3FB79A" d="M676.917,771.28c5.302,0,9.847,4.393,9.847,9.847c0,5.453-4.394,9.847-9.847,9.847
			c-5.454,0-9.847-4.394-9.847-9.847C667.222,775.521,671.463,771.28,676.917,771.28"/>
		<path fill="#3FB79A" d="M694.338,816.12v-13.482c0-4.848-4.999-8.635-10.907-8.635h-13.027c-6.06,0-10.907,3.787-10.907,8.635
			v13.482H694.338z"/>
	</g>
	<rect x="117.028" y="574.198" fill="#5BC2A8" width="66.502" height="92.86"/>
	<rect x="117.028" y="574.198" fill="none" stroke="#3FB79A" stroke-width="2.5" width="66.502" height="92.86"/>
	<rect x="108.09" y="565.109" fill="#5BC2A8" width="66.502" height="92.86"/>
	<g>
		<rect x="108.09" y="565.109" fill="none" stroke="#3FB79A" stroke-width="2.5" width="66.502" height="92.86"/>
	</g>
	<line fill="none" stroke="#3FB79A" stroke-width="2.5" x1="119.148" y1="578.288" x2="161.11" y2="578.288"/>
	<line fill="none" stroke="#3FB79A" stroke-width="2.5" x1="119.148" y1="605.858" x2="161.11" y2="605.858"/>
	<line fill="none" stroke="#3FB79A" stroke-width="2.5" x1="119.148" y1="614.947" x2="161.11" y2="614.947"/>
	<line fill="none" stroke="#3FB79A" stroke-width="2.5" x1="119.148" y1="624.188" x2="161.11" y2="624.188"/>
	<line fill="none" stroke="#3FB79A" stroke-width="2.5" x1="137.478" y1="587.528" x2="161.11" y2="587.528"/>
	<line fill="none" stroke="#3FB79A" stroke-width="2.5" x1="137.478" y1="596.618" x2="161.11" y2="596.618"/>
	<rect x="119.906" y="586.165" fill="none" stroke="#3FB79A" width="11.816" height="11.816"/>
	<rect x="119.906" y="634.641" fill="none" stroke="#3FB79A" width="8.483" height="8.483"/>
	<rect x="135.812" y="634.641" fill="none" stroke="#3FB79A" width="8.483" height="8.483"/>
	<rect x="152.021" y="634.641" fill="none" stroke="#3FB79A" width="8.483" height="8.483"/>
	<rect x="186.56" y="741.893" fill="#5BC2A8" width="92.86" height="66.502"/>
	<rect x="186.56" y="741.893" fill="none" stroke="#3FB79A" stroke-width="2.5" width="92.86" height="66.502"/>
	<line fill="none" stroke="#3FB79A" stroke-width="2.5" x1="195.648" y1="760.524" x2="241.548" y2="760.524"/>
	<line fill="none" stroke="#3FB79A" stroke-width="2.5" x1="195.648" y1="771.734" x2="241.548" y2="771.734"/>
	<line fill="none" stroke="#3FB79A" stroke-width="2.5" x1="195.648" y1="780.976" x2="241.548" y2="780.976"/>
	<line fill="none" stroke="#3FB79A" stroke-width="2.5" x1="195.648" y1="790.064" x2="241.548" y2="790.064"/>
	<rect x="251.244" y="758.556" fill="none" stroke="#3FB79A" width="18.33" height="18.329"/>
	<line fill="none" stroke="#3FB79A" x1="250.638" y1="782.188" x2="270.331" y2="782.188"/>
	<line fill="none" stroke="#3FB79A" x1="250.638" y1="786.126" x2="270.331" y2="786.126"/>
	<line fill="none" stroke="#3FB79A" x1="250.638" y1="790.064" x2="270.331" y2="790.064"/>
	<rect x="108.09" y="757.646" fill="#5BC2A8" width="45.143" height="34.69"/>
	<g>
		<rect x="108.09" y="757.646" fill="none" stroke="#3FB79A" stroke-width="2.5" width="45.143" height="34.69"/>
	</g>
	<line fill="none" stroke="#3FB79A" x1="113.847" y1="767.796" x2="128.238" y2="767.796"/>
	<line fill="none" stroke="#3FB79A" x1="113.847" y1="772.492" x2="128.238" y2="772.492"/>
	<line fill="none" stroke="#3FB79A" x1="113.847" y1="777.34" x2="128.238" y2="777.34"/>
	<line fill="none" stroke="#3FB79A" x1="113.847" y1="782.188" x2="128.238" y2="782.188"/>
	<line fill="none" stroke="#3FB79A" x1="133.54" y1="767.796" x2="147.779" y2="767.796"/>
	<line fill="none" stroke="#3FB79A" x1="133.54" y1="772.492" x2="147.779" y2="772.492"/>
	<line fill="none" stroke="#3FB79A" x1="133.54" y1="777.34" x2="147.779" y2="777.34"/>
	<line fill="none" stroke="#3FB79A" x1="133.54" y1="782.188" x2="147.779" y2="782.188"/>
	<rect x="108.09" y="803.547" fill="#5BC2A8" width="45.143" height="34.689"/>
	<g>
		<rect x="108.09" y="803.547" fill="none" stroke="#3FB79A" stroke-width="2.5" width="45.143" height="34.689"/>
		<line fill="none" stroke="#3FB79A" x1="107.333" y1="803.547" x2="153.081" y2="838.236"/>
		<line fill="none" stroke="#3FB79A" x1="153.536" y1="803.547" x2="107.787" y2="838.236"/>
	</g>
	<rect x="108.09" y="711.898" fill="#5BC2A8" width="45.143" height="34.689"/>
	<g>
		<rect x="108.09" y="711.898" fill="none" stroke="#3FB79A" stroke-width="2.5" width="45.143" height="34.689"/>
	</g>
	<line fill="none" stroke="#3FB79A" x1="135.509" y1="721.896" x2="146.567" y2="721.896"/>
	<line fill="none" stroke="#3FB79A" x1="135.509" y1="726.895" x2="146.567" y2="726.895"/>
	<line fill="none" stroke="#3FB79A" x1="135.509" y1="731.591" x2="146.567" y2="731.591"/>
	<line fill="none" stroke="#3FB79A" x1="135.509" y1="736.287" x2="146.567" y2="736.287"/>
	<g>
		<circle fill="none" stroke="#3FB79A" cx="123.087" cy="729.167" r="7.12"/>
	</g>
	<polygon fill="#3FB79A" points="129.45,726.592 128.238,724.017 125.663,722.502 122.784,721.896 122.784,729.167 130.661,729.167 
			"/>
	<polyline fill="none" stroke="#3FB79A" stroke-width="2" points="160.958,729.925 172.774,729.925 172.774,821.422 
		160.958,821.422 	"/>
	<line fill="none" stroke="#3FB79A" stroke-width="2" x1="172.774" y1="775.673" x2="180.651" y2="775.673"/>
	<rect x="186.56" y="459.221" fill="#5BC2A8" width="92.86" height="66.502"/>
	<rect x="186.56" y="459.221" fill="none" stroke="#3FB79A" stroke-width="2.5" width="92.86" height="66.502"/>
	<line fill="none" stroke="#3FB79A" stroke-width="2.5" x1="196.406" y1="472.248" x2="269.573" y2="472.248"/>
	<line fill="none" stroke="#3FB79A" stroke-width="2.5" x1="196.406" y1="481.338" x2="269.573" y2="481.338"/>
	<rect x="197.164" y="490.578" fill="none" stroke="#3FB79A" stroke-width="1.12" width="38.326" height="23.329"/>
	<polygon fill="#3FB79A" points="212.16,508.453 221.553,502.242 212.16,496.031 	"/>
	<line fill="none" stroke="#3FB79A" x1="253.364" y1="491.639" x2="267.907" y2="491.639"/>
	<line fill="none" stroke="#3FB79A" x1="253.364" y1="494.214" x2="267.907" y2="494.214"/>
	<rect x="245.335" y="490.427" fill="none" stroke="#3FB79A" width="5.302" height="5.302"/>
	<line fill="none" stroke="#3FB79A" x1="253.364" y1="502.849" x2="267.907" y2="502.849"/>
	<line fill="none" stroke="#3FB79A" x1="253.364" y1="505.424" x2="267.907" y2="505.424"/>
	<rect x="245.335" y="501.485" fill="none" stroke="#3FB79A" width="5.302" height="5.302"/>
	<line fill="none" stroke="#3FB79A" x1="253.364" y1="513.907" x2="267.907" y2="513.907"/>
	<line fill="none" stroke="#3FB79A" x1="253.364" y1="516.482" x2="267.907" y2="516.482"/>
	<rect x="245.335" y="512.695" fill="none" stroke="#3FB79A" width="5.302" height="5.302"/>
	<rect x="298.81" y="574.652" fill="#5BC2A8" width="164.665" height="118.462"/>
	<rect x="298.81" y="574.652" fill="none" stroke="#3FB79A" stroke-width="2.5" width="164.665" height="118.462"/>
	<line fill="none" stroke="#3FB79A" stroke-width="2.5" x1="312.141" y1="593.134" x2="376.521" y2="593.134"/>
	<line fill="none" stroke="#3FB79A" stroke-width="2.5" x1="312.141" y1="602.678" x2="376.521" y2="602.678"/>
	<line fill="none" stroke="#3FB79A" x1="327.138" y1="618.886" x2="373.946" y2="618.886"/>
	<line fill="none" stroke="#3FB79A" x1="327.138" y1="624.643" x2="373.946" y2="624.643"/>
	<rect x="312.746" y="616.766" fill="none" stroke="#3FB79A" width="9.998" height="9.998"/>
	<line fill="none" stroke="#3FB79A" x1="395.609" y1="646.153" x2="442.267" y2="646.153"/>
	<line fill="none" stroke="#3FB79A" x1="395.609" y1="651.455" x2="442.267" y2="651.455"/>
	<line fill="none" stroke="#3FB79A" x1="395.609" y1="656.758" x2="442.267" y2="656.758"/>
	<line fill="none" stroke="#3FB79A" x1="395.609" y1="662.06" x2="442.267" y2="662.06"/>
	<line fill="none" stroke="#3FB79A" x1="395.609" y1="667.361" x2="442.267" y2="667.361"/>
	<line fill="none" stroke="#3FB79A" x1="327.138" y1="656.151" x2="373.946" y2="656.151"/>
	<line fill="none" stroke="#3FB79A" x1="327.138" y1="661.605" x2="373.946" y2="661.605"/>
	<rect x="312.746" y="653.728" fill="none" stroke="#3FB79A" width="9.998" height="9.998"/>
	<line fill="none" stroke="#3FB79A" x1="327.138" y1="637.519" x2="373.946" y2="637.519"/>
	<line fill="none" stroke="#3FB79A" x1="327.138" y1="642.973" x2="373.946" y2="642.973"/>
	<rect x="312.746" y="635.246" fill="none" stroke="#3FB79A" width="9.998" height="9.998"/>
	<line fill="none" stroke="#3FB79A" x1="327.138" y1="674.633" x2="373.946" y2="674.633"/>
	<line fill="none" stroke="#3FB79A" x1="327.138" y1="680.086" x2="373.946" y2="680.086"/>
	<rect x="312.746" y="672.36" fill="none" stroke="#3FB79A" width="9.998" height="9.998"/>
	<rect x="397.427" y="592.982" fill="#5BC2A8" width="45.143" height="42.87"/>
	<rect x="397.427" y="592.982" fill="none" stroke="#3FB79A" stroke-width="2.5" width="45.143" height="42.87"/>
	<line fill="none" stroke="#3FB79A" x1="396.973" y1="593.134" x2="442.569" y2="635.55"/>
	<line fill="none" stroke="#3FB79A" x1="443.023" y1="593.134" x2="397.275" y2="635.55"/>
	<g>
		<path fill="#3FB79A" d="M314.11,620.553l4.393,4.241l0.606-0.909c0-0.151,4.09-6.816,8.785-8.635l-0.757-1.363
			c-3.938,1.516-7.574,6.363-8.938,8.332l-0.151,0.151l-2.879-2.727L314.11,620.553z"/>
		<path fill="none" stroke="#3FB79A" stroke-miterlimit="10" d="M314.11,620.553l4.393,4.241l0.606-0.909
			c0-0.151,4.09-6.816,8.785-8.635l-0.757-1.363c-3.938,1.516-7.574,6.363-8.938,8.332l-0.151,0.151l-2.879-2.727L314.11,620.553z"
			/>
		<path fill="none" stroke="#3FA18A" stroke-width="2.5" d="M235.641,726.743c0-14.239-1.212-44.839,21.056-52.717"/>
		<polygon fill="#3FA18A" points="263.06,671.755 249.88,665.998 256.394,684.328 		"/>
		<path fill="none" stroke="#3FA18A" stroke-width="2.5" d="M235.641,539.054c0,14.391-1.212,44.839,21.056,52.717"/>
		<polygon fill="#3FA18A" points="263.06,594.043 249.88,599.647 256.394,581.47 		"/>
	</g>
</g>
</svg>
