<?xml version="1.0" encoding="utf-8"?>
<!-- Generator: Adobe Illustrator 16.0.4, SVG Export Plug-In . SVG Version: 6.00 Build 0)  -->
<!DOCTYPE svg PUBLIC "-//W3C//DTD SVG 1.1//EN" "http://www.w3.org/Graphics/SVG/1.1/DTD/svg11.dtd">
<svg version="1.1" id="Layer_1" xmlns="http://www.w3.org/2000/svg" xmlns:xlink="http://www.w3.org/1999/xlink" x="0px" y="0px"
	 width="600.4px" height="354.1px" viewBox="5.8 227.4 600.4 354.1" enable-background="new 5.8 227.4 600.4 354.1"
	 xml:space="preserve">
<line fill="none" stroke="#04A1B6" stroke-width="3" x1="524.1" y1="323.3" x2="87.9" y2="323.3"/>
<line fill="none" stroke="#04A1B6" stroke-width="3" x1="233.1" y1="323.3" x2="233.1" y2="344.7"/>
<line fill="none" stroke="#04A1B6" stroke-width="3" x1="306" y1="308.8" x2="306" y2="322.9"/>
<line fill="none" stroke="#04A1B6" stroke-width="3" x1="89.2" y1="323.3" x2="89.2" y2="344.7"/>
<line fill="none" stroke="#04A1B6" stroke-width="3" x1="378.9" y1="323.3" x2="378.9" y2="344.7"/>
<line fill="none" stroke="#04A1B6" stroke-width="3" x1="522.8" y1="323.3" x2="522.8" y2="344.7"/>
<g>
	<g>
		<path fill="#08B4CC" d="M22.8,490.7c5.3,0,9.6,4.2,9.6,9.6c0,5.4-4.2,9.601-9.6,9.601c-5.4,0-9.6-4.2-9.6-9.601
			C13.2,494.9,17.4,490.7,22.8,490.7"/>
	</g>
	<g>
		<path fill="#08B4CC" d="M39.8,540.1V523.7c0-5.9-4.7-10.601-10.6-10.601H16.4c-5.9,0-10.6,4.7-10.6,10.601V540.1H39.8z"/>
	</g>
	<g>
		<path fill="#08B4CC" d="M67.7,490.7c5.3,0,9.6,4.2,9.6,9.6c0,5.4-4.2,9.601-9.6,9.601c-5.4,0-9.6-4.2-9.6-9.601
			C58.1,494.9,62.4,490.7,67.7,490.7"/>
	</g>
	<g>
		<path fill="#08B4CC" d="M84.7,540.1V523.7c0-5.9-4.7-10.601-10.6-10.601H61.3c-5.9,0-10.6,4.7-10.6,10.601V540.1H84.7z"/>
	</g>
	<g>
		<path fill="#08B4CC" d="M109.7,525.3c5.3,0,9.6,4.2,9.6,9.601c0,5.399-4.2,9.6-9.6,9.6c-5.3,0-9.6-4.2-9.6-9.6
			C100.1,529.5,104.4,525.3,109.7,525.3"/>
	</g>
	<g>
		<path fill="#08B4CC" d="M126.8,574.7v-16.4c0-5.899-4.7-10.6-10.6-10.6h-12.7c-5.9,0-10.6,4.7-10.6,10.6v16.4H126.8z"/>
	</g>
	<g>
		<path fill="#08B4CC" d="M154.6,525.3c5.3,0,9.6,4.2,9.6,9.601c0,5.399-4.2,9.6-9.6,9.6c-5.3,0-9.6-4.2-9.6-9.6
			C145,529.5,149.3,525.3,154.6,525.3"/>
	</g>
	<g>
		<path fill="#08B4CC" d="M171.7,574.7v-16.4c0-5.899-4.7-10.6-10.6-10.6h-12.7c-5.9,0-10.6,4.7-10.6,10.6v16.4H171.7z"/>
	</g>
	<g>
		<path fill="#08B4CC" d="M196.7,490.7c5.3,0,9.6,4.2,9.6,9.6c0,5.4-4.2,9.601-9.6,9.601c-5.3,0-9.6-4.2-9.6-9.601
			C187.1,494.9,191.3,490.7,196.7,490.7"/>
	</g>
	<g>
		<path fill="#08B4CC" d="M213.6,540.1V523.7c0-5.9-4.7-10.601-10.6-10.601h-12.7c-5.9,0-10.6,4.7-10.6,10.601V540.1H213.6z"/>
	</g>
	<g>
		<path fill="#08B4CC" d="M241.6,490.7c5.3,0,9.6,4.2,9.6,9.6c0,5.4-4.2,9.601-9.6,9.601c-5.3,0-9.6-4.2-9.6-9.601
			C232,494.9,236.2,490.7,241.6,490.7"/>
	</g>
	<g>
		<path fill="#08B4CC" d="M258.5,540.1V523.7c0-5.9-4.7-10.601-10.6-10.601h-12.7c-5.9,0-10.6,4.7-10.6,10.601V540.1H258.5z"/>
	</g>
	<g>
		<path fill="#08B4CC" d="M283.5,532c5.3,0,9.6,4.2,9.6,9.6c0,5.4-4.2,9.601-9.6,9.601c-5.3,0-9.6-4.2-9.6-9.601
			C273.9,536.2,278.3,532,283.5,532"/>
	</g>
	<g>
		<path fill="#08B4CC" d="M300.6,581.5v-16.4c0-5.899-4.7-10.6-10.6-10.6h-12.8c-5.9,0-10.6,4.7-10.6,10.6v16.4H300.6z"/>
	</g>
	<g>
		<path fill="#08B4CC" d="M328.5,532c5.3,0,9.6,4.2,9.6,9.6c0,5.4-4.199,9.601-9.6,9.601c-5.3,0-9.6-4.2-9.6-9.601
			C318.8,536.2,323.2,532,328.5,532"/>
	</g>
	<g>
		<path fill="#08B4CC" d="M345.5,581.5v-16.4c0-5.899-4.7-10.6-10.6-10.6H322c-5.9,0-10.6,4.7-10.6,10.6v16.4H345.5z"/>
	</g>
	<g>
		<path fill="#08B4CC" d="M370.4,490.7c5.3,0,9.6,4.2,9.6,9.6c0,5.4-4.2,9.601-9.6,9.601c-5.301,0-9.601-4.2-9.601-9.601
			C360.8,494.9,365.1,490.7,370.4,490.7"/>
	</g>
	<g>
		<path fill="#08B4CC" d="M387.5,540.1V523.7c0-5.9-4.7-10.601-10.6-10.601h-12.7c-5.9,0-10.601,4.7-10.601,10.601V540.1H387.5z"/>
	</g>
	<g>
		<path fill="#08B4CC" d="M415.3,490.7c5.3,0,9.601,4.2,9.601,9.6c0,5.4-4.2,9.601-9.601,9.601c-5.3,0-9.6-4.2-9.6-9.601
			C405.7,494.9,410.1,490.7,415.3,490.7"/>
	</g>
	<g>
		<path fill="#08B4CC" d="M432.4,540.1V523.7c0-5.9-4.7-10.601-10.601-10.601H409c-5.9,0-10.6,4.7-10.6,10.601V540.1H432.4z"/>
	</g>
	<g>
		<path fill="#08B4CC" d="M544.3,490.7c5.3,0,9.601,4.2,9.601,9.6c0,5.4-4.2,9.601-9.601,9.601c-5.3,0-9.6-4.2-9.6-9.601
			C534.7,494.9,539,490.7,544.3,490.7"/>
	</g>
	<g>
		<path fill="#08B4CC" d="M561.3,540.1V523.7c0-5.9-4.7-10.601-10.6-10.601H538c-5.9,0-10.6,4.7-10.6,10.601V540.1H561.3z"/>
	</g>
	<g>
		<path fill="#08B4CC" d="M589.2,490.7c5.3,0,9.6,4.2,9.6,9.6c0,5.4-4.2,9.601-9.6,9.601c-5.3,0-9.601-4.2-9.601-9.601
			C579.6,494.9,583.9,490.7,589.2,490.7"/>
	</g>
	<g>
		<path fill="#08B4CC" d="M606.2,540.1V523.7c0-5.9-4.7-10.601-10.601-10.601H582.9c-5.9,0-10.601,4.7-10.601,10.601V540.1H606.2z"
			/>
	</g>
	<g>
		<path fill="#08B4CC" d="M457.4,532c5.3,0,9.6,4.2,9.6,9.6c0,5.4-4.2,9.601-9.6,9.601c-5.301,0-9.601-4.2-9.601-9.601
			C447.8,536.2,452.1,532,457.4,532"/>
	</g>
	<g>
		<path fill="#08B4CC" d="M474.5,581.5v-16.4c0-5.899-4.7-10.6-10.6-10.6h-12.7c-5.9,0-10.601,4.7-10.601,10.6v16.4H474.5z"/>
	</g>
	<g>
		<path fill="#08B4CC" d="M502.3,532c5.3,0,9.601,4.2,9.601,9.6c0,5.4-4.2,9.601-9.601,9.601c-5.3,0-9.6-4.2-9.6-9.601
			C492.7,536.2,497,532,502.3,532"/>
	</g>
	<g>
		<path fill="#08B4CC" d="M519.4,581.5v-16.4c0-5.899-4.7-10.6-10.601-10.6H496c-5.9,0-10.6,4.7-10.6,10.6v16.4H519.4z"/>
	</g>
	<g>
		<path fill="#08B4CC" d="M87.5,353.7c7.7,0,14,6.3,14,14c0,7.7-6.3,14-14,14s-14-6.3-14-14C73.5,359.9,79.8,353.7,87.5,353.7"/>
	</g>
	<g>
		<path fill="#08B4CC" d="M112.5,426.3v-24.1c0-8.6-7.1-15.7-15.7-15.7H78.1c-8.6,0-15.7,7.1-15.7,15.7v24.1H112.5z"/>
	</g>
	<g>
		<path fill="#08B4CC" d="M233.1,353.7c7.7,0,14,6.3,14,14c0,7.7-6.3,14-14,14c-7.7,0-14-6.3-14-14
			C219.1,359.9,225.4,353.7,233.1,353.7"/>
	</g>
	<g>
		<path fill="#08B4CC" d="M258.1,426.3v-24.1c0-8.6-7.1-15.7-15.7-15.7h-18.7c-8.6,0-15.7,7.1-15.7,15.7v24.1H258.1z"/>
	</g>
	<g>
		<path fill="#08B4CC" d="M378.9,353.7c7.699,0,14,6.3,14,14c0,7.7-6.301,14-14,14c-7.7,0-14-6.3-14-14
			C364.9,359.9,371,353.7,378.9,353.7"/>
	</g>
	<g>
		<path fill="#08B4CC" d="M403.8,426.3v-24.1c0-8.6-7.1-15.7-15.7-15.7h-18.6c-8.6,0-15.7,7.1-15.7,15.7v24.1H403.8z"/>
	</g>
	<g>
		<path fill="#08B4CC" d="M524.5,353.7c7.7,0,14,6.3,14,14c0,7.7-6.3,14-14,14s-14-6.3-14-14C510.5,359.9,516.7,353.7,524.5,353.7"
			/>
	</g>
	<g>
		<path fill="#08B4CC" d="M549.4,426.3v-24.1c0-8.6-7.101-15.7-15.7-15.7H515c-8.6,0-15.7,7.1-15.7,15.7v24.1H549.4z"/>
	</g>
</g>
<line fill="none" stroke="#04A1B6" stroke-width="3" x1="233.3" y1="438.5" x2="238" y2="480.7"/>
<line fill="none" stroke="#04A1B6" stroke-width="3" x1="233.3" y1="438.5" x2="205.9" y2="484.5"/>
<line fill="none" stroke="#04A1B6" stroke-width="3" x1="233.3" y1="438.5" x2="282.9" y2="515.3"/>
<line fill="none" stroke="#04A1B6" stroke-width="3" x1="380.2" y1="438.5" x2="331.7" y2="515.3"/>
<line fill="none" stroke="#04A1B6" stroke-width="3" x1="87.9" y1="438.5" x2="157.2" y2="515.3"/>
<line fill="none" stroke="#04A1B6" stroke-width="3" x1="87.9" y1="438.5" x2="107.1" y2="515.3"/>
<line fill="none" stroke="#04A1B6" stroke-width="3" x1="87.9" y1="438.5" x2="68.6" y2="484.5"/>
<line fill="none" stroke="#04A1B6" stroke-width="3" x1="87.9" y1="438.5" x2="23.7" y2="484.5"/>
<line fill="none" stroke="#04A1B6" stroke-width="3" x1="380.2" y1="438.5" x2="375.3" y2="480.7"/>
<line fill="none" stroke="#04A1B6" stroke-width="3" x1="380.2" y1="438.5" x2="415.1" y2="480.7"/>
<line fill="none" stroke="#04A1B6" stroke-width="3" x1="524.2" y1="438.5" x2="540.8" y2="480.7"/>
<line fill="none" stroke="#04A1B6" stroke-width="3" x1="524.2" y1="438.5" x2="588.3" y2="480.7"/>
<line fill="none" stroke="#04A1B6" stroke-width="3" x1="524.2" y1="438.5" x2="503.6" y2="515.3"/>
<line fill="none" stroke="#04A1B6" stroke-width="3" x1="524.2" y1="438.5" x2="460" y2="515.3"/>
<g>
	<g>
		<path fill="none" stroke="#04A1B6" stroke-width="2" stroke-dasharray="5.957,3.957" d="M267,274.1
			c-55.1,23.3-128.8,79.5-87.8,206.6"/>
	</g>
	<g>
		<path fill="none" stroke="#04A1B6" stroke-width="2" stroke-dasharray="5.771,3.771" d="M346.2,419.1
			c-20.7,6.4-56.6,39.801-54,96.2"/>
	</g>
</g>
<g>
	<g>
		<path fill="#08B4CC" d="M306,227.4c7.7,0,14,6.3,14,14c0,7.7-6.3,14-14,14s-14-6.3-14-14C292,233.7,298.3,227.4,306,227.4"/>
	</g>
	<g>
		<path fill="#08B4CC" d="M331,300v-24.1c0-8.6-7.1-15.7-15.7-15.7h-18.7c-8.6,0-15.7,7.1-15.7,15.7V300H331z"/>
	</g>
</g>
<g>
	<path fill="none" stroke="#04A1B6" stroke-width="2" stroke-dasharray="5.957,3.957" d="M432.6,480.7
		c41.101-127-32.699-183.3-87.8-206.6"/>
</g>
</svg>
