<svg xmlns="http://www.w3.org/2000/svg" viewBox="0 0 288 288" xmlns:v="https://vecta.io/nano"><path fill="#a0a5aa" d="M237.7 0H50.3C22.5 0 0 22.5 0 50.3v187.4C0 265.5 22.5 288 50.3 288h187.4c27.8 0 50.3-22.5 50.3-50.3V50.3C288 22.5 265.5 0 237.7 0zM82.5 197.4c0 6.4-5.2 11.5-11.5 11.5H50c-6.4 0-11.5-5.2-11.5-11.5V90.6c0-6.4 5.2-11.5 11.5-11.5h21c6.4 0 11.5 5.2 11.5 11.5v106.8zm111.7 20.1c0 6.4-5.2 11.5-11.5 11.5h-77.4c-6.4 0-11.5-5.2-11.5-11.5v-147c0-6.4 5.2-11.5 11.5-11.5h77.4c6.4 0 11.5 5.2 11.5 11.5v147zm55.3-20.1c0 6.4-5.2 11.5-11.5 11.5h-21c-6.4 0-11.5-5.2-11.5-11.5V90.6c0-6.4 5.2-11.5 11.5-11.5h21c6.4 0 11.5 5.2 11.5 11.5v106.8z"/></svg>