<svg xmlns="http://www.w3.org/2000/svg" viewBox="0 0 151 91" xmlns:v="https://vecta.io/nano"><path fill="#f7f8f9" stroke="#d2d2d2" stroke-miterlimit="10" d="M.5.5h150v90H.5z"/><path d="M56.5 21.2h60v2h-60zm0-3h60v2h-60zm0-6h30v3h-30z" fill="#bdc5cb"/><path fill="#d8dcde" d="M56.5 24.2h22.7v2H56.5z"/><path d="M26.5 11.5h26v20h-26zm30 33.7h60v2h-60zm0-3h60v2h-60zm0-6h30v3h-30z" fill="#bdc5cb"/><path fill="#d8dcde" d="M56.5 48.2h22.7v2H56.5z"/><path d="M26.5 35.5h26v20h-26zm30 33.7h60v2h-60zm0-3h60v2h-60zm0-6h30v3h-30z" fill="#bdc5cb"/><path fill="#d8dcde" d="M56.5 72.2h22.7v2H56.5z"/><path fill="#bdc5cb" d="M26.5 59.5h26v20h-26z"/></svg>