<!DOCTYPE svg PUBLIC "-//W3C//DTD SVG 20010904//EN" "http://www.w3.org/TR/2001/REC-SVG-20010904/DTD/svg10.dtd">
<svg version="1.0" xmlns="http://www.w3.org/2000/svg" width="640px" height="320px" viewBox="0 0 6400 3200" preserveAspectRatio="xMidYMid meet">
<g id="layer101" fill="#ffffff" stroke="none">
 <path d="M1610 3087 l-25 -13 -3 -1466 c-2 -1323 -1 -1468 14 -1482 14 -14 171 -16 1600 -16 1571 0 1584 0 1604 20 20 20 20 33 20 1469 0 1412 0 1449 -19 1472 l-19 24 -959 3 c-527 1 -973 0 -991 -3 -39 -7 -67 -45 -58 -80 14 -56 -28 -54 979 -56 l927 -2 0 -1128 0 -1129 -1485 0 -1485 0 0 1130 0 1130 283 0 c316 0 327 2 327 63 -1 75 -10 77 -372 77 -232 0 -319 -4 -338 -13z"/>
 <path d="M2522 3088 c-47 -23 -39 -105 11 -122 43 -15 81 10 85 54 2 19 -3 43 -10 52 -17 22 -57 30 -86 16z"/>
 <path d="M1980 2550 c-24 -24 -26 -57 -4 -88 l15 -22 369 0 c408 0 400 -1 400 64 0 67 4 66 -398 66 -349 0 -363 -1 -382 -20z"/>
 <path d="M2937 2552 c-22 -25 -21 -75 1 -95 15 -14 41 -17 140 -17 114 0 122 1 136 22 22 31 20 64 -4 88 -18 18 -33 20 -138 20 -103 0 -121 -3 -135 -18z"/>
 <path d="M3390 2550 c-25 -25 -26 -72 -2 -93 17 -15 57 -17 364 -17 321 0 346 1 361 18 25 27 22 78 -5 96 -19 14 -71 16 -360 16 -325 0 -339 -1 -358 -20z"/>
 <path d="M4242 2413 c-7 -3 -60 -72 -118 -154 -58 -82 -108 -149 -111 -149 -3 0 -52 38 -110 85 -106 86 -130 97 -153 70 -16 -19 -61 -890 -48 -917 4 -9 17 -19 27 -23 27 -8 819 450 834 483 16 35 -9 52 -143 97 l-120 40 101 142 c69 99 99 150 97 165 -2 17 -34 43 -117 95 -62 40 -116 73 -120 72 -3 0 -12 -3 -19 -6z m88 -144 c27 -17 50 -35 50 -39 0 -5 -45 -73 -100 -151 -55 -78 -100 -150 -100 -160 0 -25 30 -42 133 -75 48 -15 87 -31 87 -34 0 -6 -603 -358 -608 -355 -3 3 27 664 31 677 1 4 42 -27 92 -68 49 -40 97 -74 105 -74 27 0 43 19 146 168 54 78 102 142 106 142 4 0 30 -14 58 -31z"/>
 <path d="M1985 2246 c-14 -14 -25 -34 -25 -46 0 -11 11 -32 25 -46 l25 -25 461 3 461 3 19 24 c10 13 19 31 19 41 0 10 -9 28 -19 41 l-19 24 -461 3 -461 3 -25 -25z"/>
 <path d="M3132 2260 c-53 -22 -46 -104 12 -123 66 -22 115 69 60 112 -29 23 -38 24 -72 11z"/>
 <path d="M3357 1922 c-10 -10 -17 -32 -17 -48 0 -25 16 -46 90 -118 81 -79 93 -88 117 -81 39 9 56 29 56 66 0 26 -13 45 -85 115 -91 90 -127 104 -161 66z"/>
 <path d="M2082 1899 c-46 -14 -109 -80 -122 -129 -7 -26 -10 -130 -8 -290 l3 -248 30 -43 c17 -23 50 -53 74 -66 44 -23 47 -23 385 -23 310 0 345 2 381 19 48 22 79 54 100 103 12 30 15 84 15 286 0 237 -1 250 -22 292 -14 26 -41 57 -66 75 l-44 30 -346 2 c-202 1 -361 -2 -380 -8z m719 -128 l29 -29 0 -239 0 -239 -28 -27 -28 -27 -328 0 -328 0 -29 29 -29 29 0 237 0 237 29 29 29 29 327 0 327 0 29 -29z"/>
 <path d="M2323 1723 c-12 -2 -34 -18 -48 -34 -24 -30 -25 -34 -25 -184 0 -150 1 -154 25 -183 32 -38 72 -48 116 -29 60 25 227 140 238 165 14 29 14 65 0 94 -12 27 -220 164 -259 171 -14 3 -35 3 -47 0z m134 -173 l71 -46 -61 -39 c-34 -21 -72 -45 -84 -53 l-23 -14 0 106 c0 83 3 105 13 100 6 -5 44 -29 84 -54z"/>
 <path d="M3220 1550 c-11 -11 -20 -31 -20 -45 0 -14 9 -34 20 -45 18 -18 33 -20 143 -20 106 0 126 3 139 18 28 31 30 57 7 85 -20 27 -22 27 -145 27 -111 0 -126 -2 -144 -20z"/>
 <path d="M3460 1244 c-76 -74 -90 -93 -90 -119 0 -39 26 -65 65 -65 23 0 46 18 112 83 73 73 83 88 83 119 0 39 -11 53 -53 63 -25 7 -36 -2 -117 -81z"/>
 <path d="M4000 1280 c-39 -39 -27 -68 68 -163 94 -94 123 -106 162 -67 39 39 27 67 -68 162 -95 95 -123 107 -162 68z"/>
 <path d="M3772 1204 c-21 -14 -22 -22 -22 -148 0 -142 2 -149 50 -161 18 -4 34 0 53 15 27 21 27 23 27 145 0 122 0 124 -26 144 -32 25 -52 26 -82 5z"/>
 </g>

</svg>