<!DOCTYPE svg PUBLIC "-//W3C//DTD SVG 20010904//EN" "http://www.w3.org/TR/2001/REC-SVG-20010904/DTD/svg10.dtd">
<svg version="1.0" xmlns="http://www.w3.org/2000/svg" width="640px" height="320px" viewBox="0 0 6400 3200" preserveAspectRatio="xMidYMid meet">
<g id="layer101" fill="#ffffff" stroke="none">
 <path d="M2404 3096 c-14 -10 -32 -52 -54 -125 l-33 -111 -291 0 c-332 0 -336 -1 -336 -69 0 -50 18 -64 91 -69 67 -5 61 6 79 -135 26 -210 113 -420 251 -608 69 -93 241 -256 332 -314 42 -27 77 -52 77 -56 0 -4 -4 -19 -10 -33 -9 -25 -13 -26 -87 -26 -98 0 -138 -11 -187 -52 -65 -53 -76 -90 -76 -261 0 -161 9 -198 58 -250 36 -39 94 -67 135 -67 l34 0 6 -97 c7 -113 25 -179 74 -278 118 -235 312 -389 553 -440 90 -19 264 -19 355 0 243 51 443 211 554 445 52 110 71 185 71 286 l0 81 51 5 c64 7 125 48 158 108 21 38 26 61 29 157 6 153 -3 211 -39 267 -46 68 -109 96 -220 96 l-86 0 -9 32 c-9 32 -9 32 81 92 50 34 134 105 190 161 211 210 342 472 383 767 l17 118 51 0 c89 0 137 67 83 116 -19 18 -44 19 -317 24 l-296 5 -30 102 c-49 162 61 143 -844 143 -659 0 -781 -2 -798 -14z m-134 -387 c0 -6 -18 -70 -40 -141 -44 -144 -48 -173 -23 -200 15 -17 59 -18 990 -18 960 0 973 0 993 20 11 11 20 26 20 33 0 11 -51 188 -86 300 -5 16 6 17 140 17 l146 0 0 -39 c0 -101 -58 -308 -122 -436 -85 -168 -222 -328 -378 -442 -95 -69 -94 -69 -143 -30 -75 61 -199 139 -271 172 -199 91 -422 88 -615 -10 l-72 -36 -62 35 c-34 19 -84 51 -112 70 -77 55 -145 42 -145 -27 0 -36 39 -74 126 -125 l63 -35 -42 -38 c-23 -21 -46 -38 -50 -39 -19 0 -154 98 -224 164 -192 179 -322 423 -368 690 -24 139 -38 126 130 126 101 0 145 -3 145 -11z m1043 -845 c40 -9 99 -30 132 -46 77 -39 229 -137 222 -144 -3 -3 -14 -1 -24 4 -10 5 -58 20 -108 32 -71 18 -120 23 -228 24 -134 1 -139 0 -158 -23 -27 -33 -26 -114 1 -141 17 -17 33 -20 105 -20 80 0 88 2 111 27 l25 27 95 -22 c98 -22 218 -73 266 -114 25 -21 30 -39 63 -218 65 -367 68 -452 15 -587 -103 -266 -354 -443 -629 -443 -168 0 -351 72 -463 183 -129 127 -207 289 -208 430 0 75 1 77 23 73 12 -3 72 -15 132 -27 142 -27 220 -51 327 -100 117 -54 129 -48 183 86 22 53 43 99 49 102 5 3 64 -23 132 -57 110 -57 125 -63 148 -52 38 17 54 57 36 90 -20 34 -167 117 -264 148 -66 20 -84 23 -112 14 -39 -13 -52 -32 -89 -128 -22 -56 -32 -71 -44 -67 -90 36 -223 73 -352 99 l-156 31 38 209 c43 236 67 325 104 378 25 37 167 138 258 184 65 33 179 63 245 63 29 1 85 -6 125 -15z m-846 -471 c-3 -16 -18 -99 -33 -185 -27 -152 -29 -158 -52 -158 -34 0 -60 17 -77 50 -18 35 -21 210 -4 260 14 39 55 59 123 60 48 0 48 -1 43 -27z m1609 -7 c22 -25 24 -35 24 -152 0 -125 0 -126 -29 -155 -36 -36 -78 -39 -86 -6 -2 12 -16 87 -30 167 -14 80 -27 153 -30 164 -3 17 2 18 62 14 57 -4 69 -8 89 -32z"/>
 <path d="M2339 2202 c-61 -50 24 -177 94 -141 30 16 37 28 37 65 0 24 -9 40 -35 63 -41 36 -63 39 -96 13z"/>
 <path d="M3602 844 c-34 -24 -29 -69 13 -111 29 -29 40 -34 63 -28 41 10 52 24 52 64 0 69 -74 113 -128 75z"/>
 </g>

</svg>