<!DOCTYPE svg PUBLIC "-//W3C//DTD SVG 20010904//EN" "http://www.w3.org/TR/2001/REC-SVG-20010904/DTD/svg10.dtd">
<svg version="1.0" xmlns="http://www.w3.org/2000/svg" width="640px" height="320px" viewBox="0 0 6400 3200" preserveAspectRatio="xMidYMid meet">
<g id="layer101" fill="#ffffff" stroke="none">
 <path d="M3118 3087 c-10 -86 -66 -164 -151 -209 l-42 -23 -702 -5 c-657 -5 -703 -6 -720 -23 -17 -17 -18 -82 -18 -1296 0 -1244 1 -1279 19 -1300 19 -21 24 -21 468 -21 l448 0 0 75 0 75 -390 0 -390 0 0 1170 0 1170 639 0 c610 0 642 1 703 20 36 11 81 31 102 45 l36 24 0 -149 0 -150 -120 0 c-161 0 -160 1 -160 -160 l0 -120 -70 0 -70 0 0 -75 0 -75 65 0 c65 0 65 0 65 -28 0 -49 -39 -184 -75 -259 -43 -92 -76 -140 -169 -246 -126 -145 -174 -229 -218 -384 -30 -104 -32 -333 -4 -433 117 -423 507 -691 929 -641 360 43 644 288 738 637 31 112 31 315 0 429 -28 106 -98 246 -160 320 -135 160 -170 207 -208 280 -44 85 -78 187 -92 273 l-8 52 68 0 69 0 0 75 0 75 -70 0 -70 0 0 120 c0 162 2 160 -165 160 l-125 0 0 149 0 149 81 -42 81 -41 664 -3 664 -3 0 -1169 0 -1170 -390 0 -390 0 0 -75 0 -75 445 0 c432 0 446 1 465 20 20 20 20 33 20 1298 l0 1279 -23 21 -23 22 -675 0 c-755 0 -745 -1 -821 68 -45 40 -75 98 -86 165 l-7 42 -76 3 -76 3 -5 -44z m2 -1457 l0 -430 75 0 75 0 0 430 0 430 69 0 70 0 6 -47 c29 -220 124 -417 288 -599 141 -157 198 -300 198 -494 -1 -265 -144 -500 -380 -623 -125 -66 -261 -91 -402 -76 -149 17 -281 77 -392 179 -105 96 -165 192 -208 330 -33 106 -33 273 0 380 33 108 84 199 160 285 109 125 159 195 206 290 41 83 85 230 101 338 l5 37 64 0 65 0 0 -430z"/>
 <path d="M2799 1063 c-82 -81 -149 -152 -149 -158 0 -6 23 -33 50 -60 l50 -49 123 121 122 121 89 -59 c54 -36 99 -59 116 -59 16 0 62 23 114 57 l88 56 116 -116 c65 -65 122 -117 128 -117 5 0 32 23 59 50 l50 50 -155 155 c-130 130 -159 155 -184 155 -20 0 -62 -21 -123 -61 l-93 -62 -93 62 c-137 90 -128 92 -308 -86z"/>
 <path d="M1770 2485 l0 -75 325 0 325 0 0 75 0 75 -325 0 -325 0 0 -75z"/>
 <path d="M3980 2485 l0 -75 325 0 325 0 0 75 0 75 -325 0 -325 0 0 -75z"/>
 <path d="M1770 2205 l0 -75 185 0 185 0 0 75 0 75 -185 0 -185 0 0 -75z"/>
 <path d="M4260 2205 l0 -75 185 0 185 0 0 75 0 75 -185 0 -185 0 0 -75z"/>
 <path d="M1770 1915 l0 -75 110 0 110 0 0 75 0 75 -110 0 -110 0 0 -75z"/>
 <path d="M4400 1915 l0 -75 115 0 115 0 0 75 0 75 -115 0 -115 0 0 -75z"/>
 <path d="M2200 1565 l0 -75 75 0 75 0 0 75 0 75 -75 0 -75 0 0 -75z"/>
 <path d="M4050 1565 l0 -75 75 0 75 0 0 75 0 75 -75 0 -75 0 0 -75z"/>
 <path d="M1980 1135 l0 -75 80 0 80 0 0 75 0 75 -80 0 -80 0 0 -75z"/>
 <path d="M4260 1135 l0 -75 75 0 75 0 0 75 0 75 -75 0 -75 0 0 -75z"/>
 <path d="M1980 705 l0 -75 80 0 80 0 0 75 0 75 -80 0 -80 0 0 -75z"/>
 <path d="M4260 705 l0 -75 75 0 75 0 0 75 0 75 -75 0 -75 0 0 -75z"/>
 </g>

</svg>