<!DOCTYPE svg PUBLIC "-//W3C//DTD SVG 20010904//EN" "http://www.w3.org/TR/2001/REC-SVG-20010904/DTD/svg10.dtd">
<svg version="1.0" xmlns="http://www.w3.org/2000/svg" width="640px" height="320px" viewBox="0 0 6400 3200" preserveAspectRatio="xMidYMid meet">
<g id="layer101" fill="#ffffff" stroke="none">
 <path d="M2280 2940 l0 -70 180 0 180 0 0 -125 0 -125 -535 0 -535 0 0 -1210 0 -1210 1630 0 1630 0 0 1210 0 1210 -535 0 -535 0 0 125 0 125 180 0 180 0 0 70 0 70 -920 0 -920 0 0 -70z m1340 -195 l0 -125 -415 0 -415 0 0 125 0 125 415 0 415 0 0 -125z m-560 -1560 l0 -855 -670 0 -670 0 0 855 0 855 670 0 670 0 0 -855z m1610 0 l0 -855 -745 0 -745 0 0 855 0 855 745 0 745 0 0 -855z"/>
 <path d="M1840 1805 l0 -65 120 0 120 0 0 65 0 65 -120 0 -120 0 0 -65z"/>
 <path d="M2220 1805 l0 -65 285 0 285 0 0 65 0 65 -285 0 -285 0 0 -65z"/>
 <path d="M1840 1525 l0 -65 120 0 120 0 0 65 0 65 -120 0 -120 0 0 -65z"/>
 <path d="M2220 1525 l0 -65 285 0 285 0 0 65 0 65 -285 0 -285 0 0 -65z"/>
 <path d="M1840 1295 l0 -65 120 0 120 0 0 65 0 65 -120 0 -120 0 0 -65z"/>
 <path d="M2220 1295 l0 -65 350 0 350 0 0 65 0 65 -350 0 -350 0 0 -65z"/>
 <path d="M1840 1050 l0 -50 120 0 120 0 0 50 0 50 -120 0 -120 0 0 -50z"/>
 <path d="M2220 1050 l0 -50 240 0 240 0 0 50 0 50 -240 0 -240 0 0 -50z"/>
 <path d="M1840 820 l0 -60 120 0 120 0 0 60 0 60 -120 0 -120 0 0 -60z"/>
 <path d="M2220 820 l0 -60 285 0 285 0 0 60 0 60 -285 0 -285 0 0 -60z"/>
 <path d="M1840 590 l0 -70 120 0 120 0 0 70 0 70 -120 0 -120 0 0 -70z"/>
 <path d="M2220 590 l0 -70 350 0 350 0 0 70 0 70 -350 0 -350 0 0 -70z"/>
 <path d="M3300 1772 c0 -67 24 -154 67 -242 49 -100 168 -220 269 -271 l71 -36 -34 -32 c-186 -177 -132 -489 105 -599 49 -23 70 -27 152 -27 83 0 102 3 150 27 79 39 132 88 167 155 79 147 59 313 -51 430 l-45 49 77 39 c178 91 310 287 329 487 l6 68 -57 0 -56 0 0 -37 c-1 -145 -103 -313 -244 -405 -258 -167 -610 -65 -746 215 -31 66 -59 168 -60 220 0 4 -22 7 -50 7 l-50 0 0 -48z m733 -609 c86 -44 141 -118 153 -205 15 -105 -56 -224 -157 -268 -93 -40 -206 -19 -279 53 -139 135 -86 364 100 431 53 19 135 14 183 -11z"/>
 </g>

</svg>