<!DOCTYPE svg PUBLIC "-//W3C//DTD SVG 20010904//EN" "http://www.w3.org/TR/2001/REC-SVG-20010904/DTD/svg10.dtd">
<svg version="1.0" xmlns="http://www.w3.org/2000/svg" width="640px" height="320px" viewBox="0 0 6400 3200" preserveAspectRatio="xMidYMid meet">
<g id="layer101" fill="#ffffff" stroke="none">
 <path d="M2027 3072 c-21 -23 -21 -44 -1 -156 l15 -88 -80 -83 c-83 -84 -92 -105 -66 -142 12 -17 33 -23 102 -33 135 -18 129 -14 187 -125 52 -102 64 -113 112 -101 18 5 36 30 74 105 55 110 40 100 184 122 84 13 116 32 116 70 0 13 -31 53 -81 105 l-82 83 17 89 c20 114 20 135 -2 155 -29 26 -60 20 -158 -31 l-90 -47 -90 47 c-96 51 -132 58 -157 30z m248 -212 c9 0 38 11 66 25 l50 26 -7 -66 -7 -66 47 -48 48 -48 -60 -7 c-71 -8 -83 -16 -115 -80 l-24 -50 -20 45 c-29 65 -46 77 -114 85 l-61 7 47 48 48 47 -8 67 -7 66 51 -25 c28 -14 57 -26 66 -26z"/>
 <path d="M2950 3070 c-24 -24 -24 -20 0 -145 l19 -100 -80 -75 c-66 -62 -79 -80 -79 -106 0 -47 24 -61 139 -77 56 -9 104 -17 106 -19 1 -2 22 -41 45 -88 51 -103 65 -120 100 -120 35 0 49 17 100 120 23 47 44 86 45 88 2 2 50 10 106 19 115 16 139 30 139 77 0 26 -13 44 -78 106 l-78 75 18 109 c17 99 17 111 3 132 -23 36 -59 31 -163 -23 l-92 -48 -90 48 c-98 52 -130 57 -160 27z m185 -185 c51 -31 78 -31 132 1 25 14 46 24 49 22 2 -3 0 -29 -6 -58 -14 -72 -15 -65 35 -119 l46 -49 -58 -7 c-66 -8 -83 -20 -108 -75 -10 -22 -21 -40 -25 -40 -4 0 -15 18 -25 40 -25 55 -42 67 -108 75 l-58 7 47 50 c45 48 46 51 39 96 -3 26 -8 55 -11 65 -7 23 4 22 51 -8z"/>
 <path d="M3875 3070 c-18 -20 -18 -24 -1 -131 l18 -111 -81 -83 c-50 -51 -81 -91 -81 -104 0 -38 32 -57 116 -70 144 -22 129 -12 184 -122 38 -75 56 -100 74 -105 48 -12 60 -1 112 101 58 111 52 107 187 125 69 10 90 16 102 33 27 38 17 59 -66 143 l-80 81 15 89 c20 112 20 139 0 158 -25 26 -60 19 -156 -31 l-90 -46 -94 46 c-104 52 -132 57 -159 27z m250 -210 c9 0 38 12 66 26 l51 25 -7 -66 -8 -67 48 -47 47 -48 -60 -7 c-66 -7 -77 -16 -112 -86 l-23 -44 -24 49 c-32 65 -44 73 -115 81 l-60 7 48 48 47 48 -7 66 -7 66 50 -26 c28 -14 57 -25 66 -25z"/>
 <path d="M2975 2137 c-395 -101 -696 -414 -777 -807 -16 -76 -19 -120 -15 -225 6 -161 29 -254 97 -392 113 -228 277 -391 501 -498 162 -76 227 -90 424 -89 156 0 177 2 258 27 350 108 617 374 723 722 26 83 28 104 28 260 1 148 -2 180 -22 249 -88 304 -291 548 -566 681 -141 68 -224 87 -406 91 -137 3 -166 1 -245 -19z m-391 -421 c4 -20 25 -72 48 -118 51 -101 152 -207 251 -262 l68 -38 -46 -49 c-118 -126 -147 -315 -72 -464 49 -98 127 -166 234 -205 90 -32 222 -26 308 15 252 121 313 457 118 656 l-45 46 69 38 c98 55 200 161 251 264 23 45 44 97 48 117 3 19 10 36 14 39 5 3 26 -16 48 -42 94 -113 165 -252 199 -390 24 -100 22 -285 -6 -388 -95 -357 -403 -633 -763 -686 -373 -54 -781 192 -937 565 -48 116 -64 197 -64 326 0 212 63 380 212 568 23 29 46 50 50 47 5 -2 12 -20 15 -39z m709 -482 c62 -21 135 -87 163 -149 45 -95 27 -223 -42 -303 -105 -123 -296 -130 -411 -15 -61 61 -78 104 -78 203 0 75 3 91 27 132 73 123 211 177 341 132z"/>
 </g>

</svg>