<?xml version="1.0" encoding="utf-8"?>
<!-- Generator: Adobe Illustrator 16.0.4, SVG Export Plug-In . SVG Version: 6.00 Build 0)  -->
<!DOCTYPE svg PUBLIC "-//W3C//DTD SVG 1.1//EN" "http://www.w3.org/Graphics/SVG/1.1/DTD/svg11.dtd">
<svg version="1.1" id="Layer_1" xmlns="http://www.w3.org/2000/svg" xmlns:xlink="http://www.w3.org/1999/xlink" x="0px" y="0px"
	 width="47px" height="41px" viewBox="0 0 47 41" enable-background="new 0 0 47 41" xml:space="preserve">
<g>
	<path fill="#FFFFFF" d="M47,23.242V6.051C47,2.709,44.279,0,40.923,0H6.077C2.721,0,0,2.709,0,6.051v17.191
		c0,3.342,2.721,6.053,6.077,6.053h5.986V41l10.239-11.705h18.621C44.279,29.295,47,26.584,47,23.242L47,23.242z M15.427,14.29
		c0,1.775-1.445,3.215-3.228,3.215c-1.784,0-3.229-1.44-3.229-3.215c0-1.776,1.445-3.215,3.229-3.215
		C13.982,11.075,15.427,12.514,15.427,14.29L15.427,14.29z M26.909,14.29c0,1.775-1.447,3.215-3.229,3.215
		c-1.785,0-3.229-1.44-3.229-3.215c0-1.776,1.445-3.215,3.229-3.215C25.462,11.075,26.909,12.514,26.909,14.29L26.909,14.29z
		 M38.389,14.29c0,1.775-1.444,3.215-3.229,3.215c-1.783,0-3.229-1.44-3.229-3.215c0-1.776,1.446-3.215,3.229-3.215
		C36.944,11.075,38.389,12.514,38.389,14.29L38.389,14.29z"/>
</g>
</svg>
