<?xml version="1.0" encoding="utf-8"?><!DOCTYPE svg PUBLIC "-//W3C//DTD SVG 1.1//EN" "http://www.w3.org/Graphics/SVG/1.1/DTD/svg11.dtd"><svg width="244" height="224" viewBox="0 0 244 224" xmlns="http://www.w3.org/2000/svg" xmlns:xlink="http://www.w3.org/1999/xlink"><svg id="arrow-next" viewBox="-1 -1 42 42" width="42" height="42" x="52.67" y="65"><style>.aast0{opacity:.4}.aast1{fill:none;stroke:#fff;stroke-width:2.2639;stroke-linecap:round}</style><g id="aaXMLID_8_" class="aast0"><path id="aaXMLID_10_" d="M20 40C9 40 0 31 0 20S9 0 20 0s20 8.9 20 20-8.9 20-20 20"/></g><path id="aaXMLID_4_" class="aast1" d="M16.1 29.5l10.5-9.3-10.5-9.7"/></svg><svg id="arrow-next-active" viewBox="-1 -1 42 42" width="42" height="42" x="117.67" y="42"><style>.abst0{opacity:.8}.st1{opacity:.4}.abst2{fill:none;stroke:#fff;stroke-width:2.2639;stroke-linecap:round}</style><g id="abXMLID_8_" class="abst0"><path id="abXMLID_10_" d="M20 40C9 40 0 31 0 20S9 0 20 0s20 8.9 20 20-8.9 20-20 20"/></g><path id="abXMLID_4_" class="abst2" d="M16.1 29.5l10.5-9.3-10.5-9.7"/></svg><svg id="arrow-previous" viewBox="-1 -1 42 42" width="42" height="42" y="112.03999999999999"><style>.acst0{opacity:.4}.acst1{fill:none;stroke:#fff;stroke-width:2.2639;stroke-linecap:round}</style><g id="acXMLID_8_" class="acst0"><path id="acXMLID_10_" d="M20 0c11 0 20 8.9 20 20s-8.9 20-20 20C9 40 0 31 0 20S9 0 20 0"/></g><path id="acXMLID_4_" class="acst1" d="M23.9 10.5l-10.5 9.3 10.5 9.7"/></svg><svg id="arrow-previous-active" viewBox="-1 -1 42 42" width="42" height="42" x="117.67"><style>.adst0{opacity:.8}.st1{opacity:.4}.adst2{fill:none;stroke:#fff;stroke-width:2.2639;stroke-linecap:round}</style><g id="adXMLID_8_" class="adst0"><path id="adXMLID_10_" d="M20 0c11 0 20 8.9 20 20s-8.9 20-20 20C9 40 0 31 0 20S9 0 20 0"/></g><path id="adXMLID_4_" class="adst2" d="M23.9 10.5l-10.5 9.3 10.5 9.7"/></svg><svg width="12.96" height="19.61" viewBox="-1 -1 12.96 19.61" id="arrow-thin-right" x="223.67000000000002" y="36"><path fill="none" stroke="#F596A1" stroke-width="2" stroke-linecap="round" d="M1 16.614L9.482 8.97 1 1"/></svg><svg width="19.5" height="11.77" viewBox="-1 -1 19.5 11.77" id="arrow-up-black" x="223.67000000000002" y="55.61"><path fill="none" stroke="#000" stroke-width="2" d="M16.81 9.044L8.753 1.38.69 9.044"/></svg><svg width="19.5" height="11.77" viewBox="-1 -1 19.5 11.77" id="arrow-up-white" x="223.67000000000002" y="67.38"><path fill="none" stroke="#FFF" stroke-width="2" d="M16.81 9.044L8.753 1.38.69 9.044"/></svg><svg width="27" height="27" viewBox="-1 -1 27 27" id="btn-grid" x="191.67000000000002" y="149.16"><path fill="none" stroke="#ABABAB" d="M.5.5v24h24V.5H.5z"/><path fill="#ABABAB" d="M4.828 4.82v6h6v-6h-6M4.828 14.176v6h6v-6h-6M14.172 4.82v6h6v-6h-6M14.172 14.176v6h6v-6h-6"/></svg><svg width="27" height="27" viewBox="-1 -1 27 27" id="btn-grid-active" x="117.67" y="84"><path fill="none" stroke="#D42A63" d="M.5.5v24h24V.5H.5z"/><path fill="#D42A63" d="M4.828 4.82v6h6v-6h-6M4.828 14.176v6h6v-6h-6M14.172 4.82v6h6v-6h-6M14.172 14.176v6h6v-6h-6"/></svg><svg width="27" height="27" viewBox="-1 -1 27 27" id="btn-list" x="191.67000000000002" y="122.16"><path fill="none" stroke="#ABABAB" d="M.5.5v24h24V.5H.5z"/><path fill="#ABABAB" d="M5 5.03v3h15v-3H5M5 11.007v3h15v-3H5M5 16.967v3h15v-3H5"/></svg><svg width="27" height="27" viewBox="-1 -1 27 27" id="btn-list-active" x="191.67000000000002" y="95.16"><path fill="none" stroke="#D42A63" d="M.5.5v24h24V.5H.5z"/><path fill="#D42A63" d="M5 5.03v3h15v-3H5M5 11.007v3h15v-3H5M5 16.967v3h15v-3H5"/></svg><svg width="23.41" height="23.41" viewBox="-1 -1 23.41 23.41" id="close" x="48" y="186.04"><path fill="none" stroke="#ABABAB" stroke-width="2" d="M.707.707l20 20m-20 0l20-20"/></svg><svg width="37" height="37" viewBox="-1 -1 37 37" id="close-box" x="42" y="112.03999999999999"><path fill="#6D6F71" d="M35 35H0V0h35v35"/><path fill="#E6E6E6" d="M9.293 10.71l15 15 1.414-1.417-15-15"/><path fill="#E6E6E6" d="M10.708 25.707l15-15-1.416-1.413-15 15"/></svg><svg width="37" height="37" viewBox="-1 -1 37 37" id="close-box-black" x="79" y="112.03999999999999"><path d="M35 35H0V0h35v35"/><path fill="#E6E6E6" d="M9.293 10.71l15 15 1.414-1.417-15-15"/><path fill="#E6E6E6" d="M10.708 25.707l15-15-1.416-1.413-15 15"/></svg><svg width="32" height="32" viewBox="-1 -1 32 32" id="close-box-black-mobile" x="159.67000000000002"><path d="M30 30H0V0h30v30"/><path fill="#ABABAB" d="M6.565 7.68L22.32 23.433c.308.307.807.307 1.114 0 .308-.31.308-.807 0-1.115L7.68 6.564c-.308-.308-.807-.308-1.115 0-.307.308-.307.807 0 1.114"/><path fill="#ABABAB" d="M7.68 23.434L23.432 7.68c.308-.31.308-.807 0-1.115s-.807-.308-1.114 0L6.563 22.32c-.307.307-.307.805 0 1.113.308.31.807.31 1.115 0"/></svg><svg width="32" height="32" viewBox="-1 -1 32 32" id="close-box-mobile" x="159.67000000000002" y="32"><path fill="#58595B" d="M30 30H0V0h30v30"/><path fill="#ABABAB" d="M6.565 7.68L22.32 23.433c.308.307.807.307 1.114 0 .308-.31.308-.807 0-1.115L7.68 6.564c-.308-.308-.807-.308-1.115 0-.307.308-.307.807 0 1.114"/><path fill="#ABABAB" d="M7.68 23.434L23.432 7.68c.308-.31.308-.807 0-1.115s-.807-.308-1.114 0L6.563 22.32c-.307.307-.307.805 0 1.113.308.31.807.31 1.115 0"/></svg><svg width="12.03" height="12.03" viewBox="-1 -1 12.03 12.03" id="close-filter" x="105" y="47.04"><path fill="#ABABAB" d="M5.016 10.032c2.77 0 5.017-2.246 5.017-5.017C10.033 2.245 7.786 0 5.016 0 2.246 0 0 2.246 0 5.016s2.246 5.016 5.016 5.016z"/><path fill="none" stroke="#FFF" stroke-width="1.274" stroke-linecap="round" d="M6.727 3.305l-3.422 3.42M3.305 3.305l3.422 3.42"/></svg><svg width="17.39" height="17.39" viewBox="-1 -1 17.39 17.39" id="close-menu-mobile" x="223.67000000000002" y="151.91"><g fill="none" stroke="#3C3C3C" stroke-width="1.555" stroke-linecap="round"><path d="M.778.778l13.837 13.837M14.615.778L.778 14.615"/></g></svg><svg width="10" height="9.53" viewBox="-1 -1 10 9.53" id="close-small" x="208.65" y="176.16"><path fill="none" stroke="#ABABAB" d="M.827.354l6.82 6.82m-7.293 0L7.176.354"/></svg><svg width="10" height="9.53" viewBox="-1 -1 10 9.53" id="close-small-black" x="148" y="112.03999999999999"><path fill="none" stroke="#000" d="M.827.354l6.82 6.82m-7.293 0L7.176.354"/></svg><svg width="16.98" height="9.84" viewBox="-1 -1 16.98 9.84" id="eye" x="191.67000000000002" y="176.16"><path fill="none" stroke="#FFF" stroke-width="1.173" d="M.83 3.92S4.165.588 7.5.588c3.707 0 6.67 2.963 6.67 2.963S10.835 7.256 7.5 7.256.83 3.92.83 3.92z"/><path fill="#FFF" d="M7.497 5.46c.85 0 1.54-.688 1.54-1.54 0-.85-.69-1.537-1.54-1.537-.85 0-1.54.688-1.54 1.538 0 .85.69 1.54 1.54 1.54z"/></svg><svg width="18.65" height="10.89" viewBox="-1 -1 18.65 10.89" id="eye-big" x="223.67000000000002" y="105.83999999999999"><path fill="none" stroke="#FFF" stroke-width="1.323" d="M.926 4.446S4.63.66 8.336.66c4.116 0 7.41 3.365 7.41 3.365S12.038 8.23 8.335 8.23C4.63 8.23.925 4.446.925 4.446z"/><path fill="#FFF" d="M8.332 6.19c.946 0 1.71-.78 1.71-1.744S9.278 2.7 8.333 2.7s-1.71.782-1.71 1.746c0 .963.765 1.744 1.71 1.744z"/></svg><svg width="18.65" height="10.89" viewBox="-1 -1 18.65 10.89" id="eye-big-black" x="223.67000000000002" y="94.94999999999999"><path fill="none" stroke="#000" stroke-width="1.323" d="M.926 4.446S4.63.66 8.336.66c4.116 0 7.41 3.365 7.41 3.365S12.038 8.23 8.335 8.23C4.63 8.23.925 4.446.925 4.446z"/><path d="M8.332 6.19c.946 0 1.71-.78 1.71-1.744S9.278 2.7 8.333 2.7s-1.71.782-1.71 1.746c0 .963.765 1.744 1.71 1.744z"/></svg><svg width="16.98" height="9.84" viewBox="-1 -1 16.98 9.84" id="eye-black" x="91.41" y="186.04"><path fill="none" stroke="#000" stroke-width="1.173" d="M.83 3.92S4.165.588 7.5.588c3.707 0 6.67 2.963 6.67 2.963S10.835 7.256 7.5 7.256.83 3.92.83 3.92z"/><path d="M7.497 5.46c.85 0 1.54-.688 1.54-1.54 0-.85-.69-1.537-1.54-1.537-.85 0-1.54.688-1.54 1.538 0 .85.69 1.54 1.54 1.54z"/></svg><svg width="31.95" height="17.68" viewBox="-1 -1 31.95 17.68" id="eye-xl" x="191.67000000000002" y="32"><path fill="none" stroke="#FFF" stroke-width="2.346" d="M1.66 7.842s6.668-6.668 13.337-6.668c7.41 0 13.338 5.927 13.338 5.927s-6.67 7.41-13.338 7.41c-6.67 0-13.338-6.668-13.338-6.668z"/><path fill="#FFF" d="M14.99 10.92c1.7 0 3.08-1.378 3.08-3.078s-1.38-3.078-3.08-3.078c-1.7 0-3.077 1.378-3.077 3.078s1.378 3.077 3.078 3.077z"/></svg><svg width="31.95" height="17.68" viewBox="-1 -1 31.95 17.68" id="eye-xl-black" x="191.67000000000002" y="49.68"><path fill="none" stroke="#000" stroke-width="2.346" d="M1.66 7.842s6.668-6.668 13.337-6.668c7.41 0 13.338 5.927 13.338 5.927s-6.67 7.41-13.338 7.41c-6.67 0-13.338-6.668-13.338-6.668z"/><path d="M14.99 10.92c1.7 0 3.08-1.378 3.08-3.078s-1.38-3.078-3.08-3.078c-1.7 0-3.077 1.378-3.077 3.078s1.378 3.077 3.078 3.077z"/></svg><svg width="65" height="65" viewBox="-1 -1 65 65" id="icon-customize"><path fill="#FFF" d="M31.5 63C48.897 63 63 48.896 63 31.5 63 14.103 48.897 0 31.5 0S0 14.103 0 31.5C0 48.896 14.103 63 31.5 63z"/><path fill="#3EB799" d="M48.986 45.006c-.01-.01-.02-.018-.032-.027l-.013-.017-.64-.643-.104-.105L24.82 20.842c.624-2.307.037-4.874-1.775-6.685-2.07-2.07-5.125-2.543-7.654-1.432l4.6 4.598c.062.062.097.15.1.26l.063 2.41c.006.218-.12.483-.334.695-.213.213-.478.34-.695.334l-2.41-.063c-.11-.004-.2-.04-.26-.102l-4.6-4.598c-1.11 2.528-.637 5.584 1.433 7.654 1.812 1.812 4.378 2.4 6.685 1.775l23.48 23.478.64.643.018.013.028.03c1.34 1.34 3.51 1.34 4.85 0 1.336-1.337 1.336-3.507-.002-4.847zm-.952 3.896c-.813.814-2.13.814-2.944 0-.812-.812-.812-2.13 0-2.945.813-.812 2.13-.812 2.944 0 .813.814.813 2.133 0 2.945z"/><path fill="#3EB799" d="M51.317 14.882l-2.43-2.43c-.55-.547-1.44-.548-1.99 0l-.583.585-.098.096-15.67 15.673c-.13.128-.224.29-.273.47l-.9 3.36-13.416 13.417c-.202-.104-.453-.076-.622.094L12.97 48.51c-.21.21-.21.553 0 .764l1.526 1.527c.21.212.553.212.764 0l2.365-2.364c.168-.17.196-.42.094-.623l13.416-13.416 3.357-.9c.182-.05.343-.143.472-.27l15.77-15.77h-.002l.585-.585c.547-.55.547-1.442 0-1.99zM35.337 25.34l11.406-11.405c.627-.627 1.622-.65 2.283-.08L35.26 27.622c-.57-.66-.548-1.656.078-2.283zm14.498-8.313L38.43 28.43c-.627.628-1.62.65-2.28.08l13.766-13.766c.567.66.546 1.655-.08 2.283z"/></svg><svg width="19" height="15.8" viewBox="-1 -1 19 15.8" id="menu" x="223.67000000000002" y="79.14999999999999"><path fill="#FFF" stroke="#FFF" stroke-width="2" stroke-linecap="round" d="M1 1h15M1 12.795h15M1 6.897h15"/></svg><svg width="20" height="16" viewBox="-1 -1 20 16" id="quote-blue" x="85" y="47.04"><g fill="#4198BD"><path d="M0 6.084V14h7.984V6.29H3.522V0L0 6.084M10.017 6.084V14H18V6.29h-4.46V0l-3.523 6.084"/></g></svg><svg width="20" height="16" viewBox="-1 -1 20 16" id="quote-green" x="65" y="47.04"><g fill="#309E73"><path d="M0 6.084V14h7.984V6.29H3.522V0L0 6.084M10.017 6.084V14H18V6.29h-4.46V0l-3.523 6.084"/></g></svg><svg width="20" height="16" viewBox="-1 -1 20 16" id="quote-orange" x="71.41" y="186.04"><g fill="#F26A21"><path d="M0 6.084V14h7.984V6.29H3.522V0L0 6.084M10.017 6.084V14H18V6.29h-4.46V0l-3.523 6.084"/></g></svg><svg width="26" height="26" viewBox="-1 -1 26 26" id="search-black" x="160" y="154.04"><path fill="none" stroke="#000" stroke-width="4" stroke-linecap="round" d="M9.702 17.477c4.254 0 7.702-3.465 7.702-7.74S13.956 2 9.702 2 2 5.464 2 9.738s3.448 7.74 7.702 7.74zm6.085-1.73L22 22"/></svg><svg width="17" height="17" viewBox="-1 -1 17 17" id="search-black-mobile" x="223.67000000000002" y="169.3"><path fill="none" stroke="#000" stroke-width="2" stroke-linecap="round" d="M5.93 10.908c2.723 0 4.93-2.217 4.93-4.955C10.86 3.218 8.654 1 5.93 1S1 3.218 1 5.954c0 2.737 2.207 4.954 4.93 4.954zm4.49-.513L14 14"/></svg><svg width="24" height="24" viewBox="-1 -1 24 24" id="search-grey" y="186.04"><path fill="none" stroke="#5F6060" stroke-width="2" stroke-linecap="round" d="M8.702 16.477c4.254 0 7.702-3.465 7.702-7.74S12.956 1 8.702 1 1 4.464 1 8.738s3.448 7.74 7.702 7.74zm6.085-1.73L21 21"/></svg><svg width="26" height="26" viewBox="-1 -1 26 26" id="search-grey-bold" x="159.67000000000002" y="128"><path fill="none" stroke="#ABABAB" stroke-width="4" stroke-linecap="round" d="M9.702 17.477c4.254 0 7.702-3.465 7.702-7.74S13.956 2 9.702 2 2 5.464 2 9.738s3.448 7.74 7.702 7.74zm6.085-1.73L22 22"/></svg><svg width="17" height="17" viewBox="-1 -1 17 17" id="search-mobile" x="223.67000000000002" y="186.3"><path fill="none" stroke="#FFF" stroke-width="2" stroke-linecap="round" d="M5.93 10.908c2.723 0 4.93-2.217 4.93-4.955C10.86 3.218 8.654 1 5.93 1S1 3.218 1 5.954c0 2.737 2.207 4.954 4.93 4.954zm4.49-.513L14 14"/></svg><svg width="27.9" height="27.8" viewBox="-1 -1 27.9 27.8" id="search-purple" x="191.67000000000002" y="67.36"><path fill="none" stroke="#F596A1" stroke-width="4.409" stroke-linecap="round" d="M10.47 18.736c4.565 0 8.266-3.7 8.266-8.266 0-4.565-3.7-8.266-8.266-8.266s-8.266 3.7-8.266 8.266c0 4.567 3.7 8.266 8.266 8.266zm6.613-1.75l6.613 6.613"/></svg><svg width="21.43" height="21.35" viewBox="-1 -1 21.43 21.35" id="search-purple-mobile" x="94.67" y="65"><path fill="none" stroke="#F596A1" stroke-width="3.306" stroke-linecap="round" d="M7.852 14.052c3.424 0 6.2-2.775 6.2-6.2 0-3.424-2.775-6.2-6.2-6.2-3.424 0-6.2 2.776-6.2 6.2 0 3.424 2.776 6.2 6.2 6.2zm4.96-1.313l4.96 4.96"/></svg><svg width="24" height="24" viewBox="-1 -1 24 24" id="search-white" x="24" y="186.04"><path fill="none" stroke="#FFF" stroke-width="2" stroke-linecap="round" d="M8.702 16.477c4.254 0 7.702-3.465 7.702-7.74S12.956 1 8.702 1 1 4.464 1 8.738s3.448 7.74 7.702 7.74zm6.085-1.73L21 21"/></svg><svg id="social-fb" viewBox="-1 -1 32 32" width="32" height="32" x="159.67000000000002" y="96"><style>.bnst0{fill:#aaa}</style><g id="bnXMLID_575_"><path id="bnXMLID_577_" class="bnst0" d="M19.5 15.7H16v10.5h-3.5V15.7H9v-3.5h3.5v-2.1c0-2.9 1.7-4.9 4.1-4.9h2.9v3.4h-2.6c-.3 0-.9.2-.9.7v2.8h3.5v3.6zM30 15c0-8.3-6.7-15-15-15S0 6.7 0 15s6.7 15 15 15 15-6.7 15-15"/></g></svg><svg width="32" height="32" viewBox="-1 -1 32 32" id="social-fb-mobile" x="64" y="154.04"><path fill="#FFF" d="M30 15c0-8.284-6.716-15-15-15C6.716 0 0 6.716 0 15c0 8.283 6.716 15 15 15 8.284 0 15-6.717 15-15zm-10.485.71h-3.498v10.495h-3.5V15.71H9.02V12.21h3.498V10.07c0-2.895 1.685-4.854 4.097-4.854h2.9V8.66H16.89c-.3 0-.873.164-.873.737v2.815h3.498v3.497z"/></svg><svg id="social-fb-white" viewBox="-1 -1 32 32" width="32" height="32" x="159.67000000000002" y="64"><style>.bpst0{fill:#fff}</style><g id="bpXMLID_575_"><path id="bpXMLID_577_" class="bpst0" d="M19.5 15.7H16v10.5h-3.5V15.7H9v-3.5h3.5v-2.1c0-2.9 1.7-4.9 4.1-4.9h2.9v3.4h-2.6c-.3 0-.9.2-.9.7v2.8h3.5v3.6zM30 15c0-8.3-6.7-15-15-15S0 6.7 0 15s6.7 15 15 15 15-6.7 15-15"/></g></svg><svg id="social-linkedin" viewBox="-1 -1 32 32" width="32" height="32" x="191.67000000000002"><style>.bqst0{fill:#aaa}</style><g id="bqXMLID_575_"><path id="bqXMLID_577_" class="bqst0" d="M23.9 23.3h-3.5v-7.8c0-.3-.1-.6-.2-.7-.1-.1-.4-.1-.7 0l-2.5.9v7.6h-3.5V11.1H17v.9l1.4-.5c1.4-.5 2.8-.3 3.9.4 1.1.8 1.7 2.1 1.7 3.6v7.8zM12.3 7.6c0 1.3-1.1 2.4-2.4 2.4-1.3 0-2.4-1.1-2.4-2.4 0-1.3 1.1-2.4 2.4-2.4 1.3 0 2.4 1.1 2.4 2.4m-4.1 3.5h3.5v12.2H8.2V11.1zM30 15c0-8.3-6.7-15-15-15S0 6.7 0 15s6.7 15 15 15 15-6.7 15-15"/></g></svg><svg width="32" height="32" viewBox="-1 -1 32 32" id="social-linkedin-mobile" x="128" y="154.04"><path fill="#FFF" d="M30 15c0-8.284-6.716-15-15-15C6.716 0 0 6.716 0 15c0 8.283 6.716 15 15 15 8.284 0 15-6.717 15-15zM8.168 11.074h3.5v12.243h-3.5V11.074zm4.11-3.498c0 1.305-1.054 2.36-2.36 2.36-1.308 0-2.362-1.055-2.362-2.36s1.054-2.36 2.362-2.36c1.306 0 2.36 1.055 2.36 2.36zm11.632 15.74h-3.498V15.52c0-.34-.09-.605-.238-.71-.146-.106-.43-.105-.748.005l-2.512.87v7.632h-3.498V11.074h3.498v.91l1.368-.473c1.407-.487 2.835-.323 3.92.45 1.086.77 1.708 2.067 1.708 3.56v7.796z"/></svg><svg id="social-linkedin-white" viewBox="-1 -1 32 32" width="32" height="32" x="96" y="154.04"><style>.bsst0{fill:#fff}</style><g id="bsXMLID_575_"><path id="bsXMLID_577_" class="bsst0" d="M23.9 23.3h-3.5v-7.8c0-.3-.1-.6-.2-.7-.1-.1-.4-.1-.7 0l-2.5.9v7.6h-3.5V11.1H17v.9l1.4-.5c1.4-.5 2.8-.3 3.9.4 1.1.8 1.7 2.1 1.7 3.6v7.8zM12.3 7.6c0 1.3-1.1 2.4-2.4 2.4-1.3 0-2.4-1.1-2.4-2.4 0-1.3 1.1-2.4 2.4-2.4 1.3 0 2.4 1.1 2.4 2.4m-4.1 3.5h3.5v12.2H8.2V11.1zM30 15c0-8.3-6.7-15-15-15S0 6.7 0 15s6.7 15 15 15 15-6.7 15-15"/></g></svg><svg id="social-twitter" viewBox="-1 -1 32 32" width="32" height="32" x="116" y="112.03999999999999"><style>.btst0{clip-path:url(#btXMLID_580_);fill:#aaa}</style><g id="btXMLID_575_"><defs><path id="btXMLID_576_" d="M0 0h30v30H0z"/></defs><clipPath id="btXMLID_580_"><use xlink:href="#btXMLID_576_" overflow="visible"/></clipPath><path id="btXMLID_577_" class="btst0" d="M13 15c0 2.2 1.4 4.1 3.1 4.1h3.1c1.1 0 2 .9 2 2s-.9 2-2 2H16c-3.9 0-7.1-3.7-7.1-8.1V8.9c0-1.1.9-2 2-2s2 .9 2 2v2H19c1.1 0 2 .9 2 2s-.9 2-2 2h-6zm17 0c0-8.3-6.7-15-15-15S0 6.7 0 15s6.7 15 15 15 15-6.7 15-15"/></g></svg><svg width="32" height="32" viewBox="-1 -1 32 32" id="social-twitter-mobile" x="32" y="154.04"><path fill="#FFF" d="M30 15c0-8.284-6.716-15-15-15C6.716 0 0 6.716 0 15c0 8.283 6.716 15 15 15 8.284 0 15-6.717 15-15zm-17.034-.004v.002c0 2.207 1.398 4.07 3.052 4.07h3.052c1.126 0 2.035.91 2.035 2.035 0 1.127-.91 2.037-2.035 2.037h-3.052c-3.925 0-7.123-3.652-7.123-8.143V8.893c0-1.123.91-2.034 2.035-2.034s2.035.91 2.035 2.033v2.036h6.104c1.125 0 2.034.908 2.034 2.033 0 1.124-.91 2.033-2.035 2.033h-6.104z"/></svg><svg id="social-twitter-white" viewBox="-1 -1 32 32" width="32" height="32" y="154.04"><style>.bvst0{fill:#fff}</style><g id="bvXMLID_575_"><path id="bvXMLID_577_" class="bvst0" d="M13 15c0 2.2 1.4 4.1 3.1 4.1h3.1c1.1 0 2 .9 2 2s-.9 2-2 2H16c-3.9 0-7.1-3.7-7.1-8.1V8.9c0-1.1.9-2 2-2s2 .9 2 2v2H19c1.1 0 2 .9 2 2s-.9 2-2 2h-6zm17 0c0-8.3-6.7-15-15-15S0 6.7 0 15s6.7 15 15 15 15-6.7 15-15"/></g></svg><svg width="52.67" height="47.04" viewBox="-1 -1 52.67 47.04" id="star-big" y="65"><path fill="#ABABAB" d="M26.962 1.103l4.337 12.43c.51 1.46 1.97 2.45 3.616 2.45H48.95c1.66 0 2.35 1.976 1.007 2.884L38.604 26.55c-1.333.9-1.892 2.5-1.383 3.96l4.34 12.432c.512 1.47-1.294 2.692-2.637 1.783L27.57 37.042c-1.333-.902-3.138-.902-4.47 0l-11.356 7.683c-1.342.91-3.148-.312-2.635-1.783l4.336-12.43c.51-1.46-.05-3.06-1.38-3.962L.708 18.866c-1.343-.908-.653-2.885 1.006-2.885H15.75c1.648 0 3.108-.987 3.618-2.447l4.336-12.43c.513-1.47 2.745-1.47 3.258 0z"/></svg><svg width="52.67" height="47.04" viewBox="-1 -1 52.67 47.04" id="star-big-active" x="65"><path fill="#ff6900" d="M26.962 1.103l4.337 12.43c.51 1.46 1.97 2.45 3.616 2.45H48.95c1.66 0 2.35 1.976 1.007 2.884L38.604 26.55c-1.333.9-1.892 2.5-1.383 3.96l4.34 12.432c.512 1.47-1.294 2.692-2.637 1.783L27.57 37.042c-1.333-.902-3.138-.902-4.47 0l-11.356 7.683c-1.342.91-3.148-.312-2.635-1.783l4.336-12.43c.51-1.46-.05-3.06-1.38-3.962L.708 18.866c-1.343-.908-.653-2.885 1.006-2.885H15.75c1.648 0 3.108-.987 3.618-2.447l4.336-12.43c.513-1.47 2.745-1.47 3.258 0z"/></svg><svg width="20" height="18" viewBox="-1 -1 20 18" id="star-default" x="223.67000000000002" y="18"><path fill="#ABABAB" d="M9.58.392l1.54 4.417c.18.517.7.868 1.284.868h4.986c.59 0 .835.703.357 1.025l-4.034 2.73c-.473.32-.67.888-.49 1.406l1.54 4.415c.183.522-.458.957-.936.635l-4.034-2.73c-.473-.32-1.115-.32-1.588 0L4.17 15.89c-.476.322-1.117-.112-.935-.635l1.54-4.416c.182-.52-.017-1.088-.49-1.407L.25 6.703C-.224 6.38.02 5.678.61 5.678h4.986c.585 0 1.104-.35 1.285-.87L8.42.393c.184-.522.977-.522 1.16 0z"/></svg><svg width="20" height="18" viewBox="-1 -1 20 18" id="star-default-active" x="223.67000000000002"><path fill="#ff6900" d="M9.58.392l1.54 4.417c.18.517.7.868 1.284.868h4.986c.59 0 .835.703.357 1.025l-4.034 2.73c-.473.32-.67.888-.49 1.406l1.54 4.415c.183.522-.458.957-.936.635l-4.034-2.73c-.473-.32-1.115-.32-1.588 0L4.17 15.89c-.476.322-1.117-.112-.935-.635l1.54-4.416c.182-.52-.017-1.088-.49-1.407L.25 6.703C-.224 6.38.02 5.678.61 5.678h4.986c.585 0 1.104-.35 1.285-.87L8.42.393c.184-.522.977-.522 1.16 0z"/></svg><svg width="20" height="18" viewBox="-1 -1 20 18" id="star-default-half" x="94.67" y="86.35"><path fill="#ABABAB" d="M9.58.392l1.54 4.417c.18.517.7.868 1.284.868h4.986c.59 0 .835.703.357 1.025l-4.034 2.73c-.473.32-.67.888-.49 1.406l1.54 4.415c.183.522-.458.957-.936.635l-4.034-2.73c-.473-.32-1.115-.32-1.588 0L4.17 15.89c-.476.322-1.117-.112-.935-.635l1.54-4.416c.182-.52-.017-1.088-.49-1.407L.25 6.703C-.224 6.38.02 5.678.61 5.678h4.986c.585 0 1.104-.35 1.285-.87L8.42.393c.184-.522.977-.522 1.16 0z"/><path fill="#F26A21" d="M9.034 12.92c-.29-.007-.582.073-.828.24l-4.034 2.73c-.477.32-1.118-.113-.936-.636l1.54-4.416c.182-.52-.017-1.087-.49-1.406L.252 6.702C-.225 6.382.02 5.678.61 5.678h4.986c.585 0 1.104-.35 1.285-.87L8.42.393c.093-.26.336-.39.58-.39"/></svg><svg width="14" height="13" viewBox="-1 -1 14 13" id="star-small" x="144.67000000000002" y="84"><path fill="#ABABAB" d="M6.385.27l1.027 3.036c.122.356.466.597.858.597h3.323c.394 0 .557.483.238.705L9.144 6.484c-.316.22-.448.612-.327.968l1.026 3.036c.12.36-.306.657-.624.435l-2.69-1.875c-.314-.22-.742-.22-1.057 0l-2.69 1.875c-.316.223-.744-.075-.623-.435l1.027-3.036c.12-.356-.01-.747-.327-.968L.167 4.608c-.317-.22-.153-.705.24-.705H3.73c.39 0 .736-.24.856-.598L5.614.27c.122-.36.65-.36.77 0z"/></svg><svg width="14" height="13" viewBox="-1 -1 14 13" id="star-small-active" x="144.67000000000002" y="97"><path fill="#ff6900" d="M6.385.27l1.027 3.036c.122.356.466.597.858.597h3.323c.394 0 .557.483.238.705L9.144 6.484c-.316.22-.448.612-.327.968l1.026 3.036c.12.36-.306.657-.624.435l-2.69-1.875c-.314-.22-.742-.22-1.057 0l-2.69 1.875c-.316.223-.744-.075-.623-.435l1.027-3.036c.12-.356-.01-.747-.327-.968L.167 4.608c-.317-.22-.153-.705.24-.705H3.73c.39 0 .736-.24.856-.598L5.614.27c.122-.36.65-.36.77 0z"/></svg><svg width="14" height="13" viewBox="-1 -1 14 13" id="star-small-half" y="210.04"><path fill="#ABABAB" d="M6.385.27l1.027 3.036c.12.356.466.598.856.598h3.324c.394 0 .557.483.238.705L9.143 6.483c-.316.222-.448.612-.327.968l1.026 3.036c.12.36-.306.657-.624.435l-2.69-1.876c-.314-.22-.742-.22-1.057 0l-2.69 1.876c-.316.223-.744-.075-.623-.435l1.027-3.036c.12-.356-.01-.746-.327-.968L.167 4.608c-.317-.22-.153-.705.24-.705H3.73c.39 0 .736-.24.856-.598L5.614.27c.122-.36.65-.36.77 0z"/><path fill="#F26A21" d="M6.02 8.882c-.19-.005-.385.05-.55.165l-2.69 1.876c-.316.223-.744-.075-.623-.435l1.027-3.036c.12-.356-.01-.746-.327-.968L.167 4.608c-.317-.22-.153-.705.24-.705H3.73c.39 0 .736-.24.856-.598L5.614.27C5.674.09 5.838 0 6 0"/></svg><svg width="13.61" height="17.59" viewBox="-1 -1 13.61 17.59" id="user" x="223.67000000000002" y="134.32"><g fill="#FFF"><path d="M5.807 6.402c1.803 0 3.266-1.433 3.266-3.2S7.61 0 5.807 0 2.542 1.433 2.542 3.2s1.462 3.202 3.265 3.202zM11.614 15.59v-3.797S11.614 8 7.744 8H3.87S0 8 0 11.793v3.797h11.614z"/></g></svg><svg width="13.61" height="17.59" viewBox="-1 -1 13.61 17.59" id="user-black" x="223.67000000000002" y="116.72999999999999"><path d="M5.807 6.402c1.803 0 3.266-1.433 3.266-3.2S7.61 0 5.807 0 2.542 1.433 2.542 3.2s1.462 3.202 3.265 3.202zM11.614 15.59v-3.797S11.614 8 7.744 8H3.87S0 8 0 11.793v3.797h11.614z"/></svg></svg>