<svg xmlns="http://www.w3.org/2000/svg" viewBox="0 0 500 500">
    <defs>
        <style>
            .cls-1 {
                fill: #edc256;
            }

            .cls-2 {
                fill: #333e53;
            }

            .cls-3 {
                fill: #fff;
            }

            .cls-4 {
                fill: #1091a3;
            }

            .cls-5 {
                fill: #d8a739;
            }
        </style>
    </defs>
    <title>Asset 1</title>
    <g id="Layer_2" data-name="Layer 2">
        <g id="Layer_2-2" data-name="Layer 2">
            <path class="cls-1" d="M500,250c0,138.08-111.94,250-250,250S0,388.07,0,250,111.92,0,250,0,500,111.93,500,250Z" />
            <path class="cls-2" d="M359.74,139.59H112.63a8.6,8.6,0,0,0-8.63,8.56V314.71a8.6,8.6,0,0,0,8.63,8.55h86l-3.25,20.52-15.27,4.37V357H292.78v-8.81l-15-4.35-3-20.54h85a8.59,8.59,0,0,0,8.62-8.55V148.15A8.6,8.6,0,0,0,359.74,139.59Z" />
            <polygon class="cls-3" points="116.1 152.46 116.1 264.76 116.1 298.13 116.1 298.19 357.05 298.19 357.05 226.78 357.05 152.62 357.05 152.46 116.1 152.46" />
            <path class="cls-4" d="M395.44,364.14A10.45,10.45,0,0,1,385,374.54l-53.24-.23a10.52,10.52,0,0,1-10.41-10.52l.55-115.59a10.49,10.49,0,0,1,10.52-10.41l53.21.24A10.5,10.5,0,0,1,396,248.55Z" />
            <path class="cls-3" d="M366.44,250.31a1.15,1.15,0,0,1-1.15,1.15l-12.45-.06a1.14,1.14,0,0,1-1.13-1.15v-.43a1.13,1.13,0,0,1,1.16-1.14l12.42,0a1.17,1.17,0,0,1,1.15,1.17Z" />
            <path class="cls-3" d="M364.15,363.82a5.76,5.76,0,1,1-5.74-5.77A5.77,5.77,0,0,1,364.15,363.82Z" />
            <polygon class="cls-3" points="358.87 259.28 327.03 259.12 326.61 352.7 358.45 352.84 390.49 352.99 390.93 259.43 358.87 259.28" />
            <path class="cls-5" d="M500,250a253.52,253.52,0,0,0-1.78-29.45l-130.71-76a8.06,8.06,0,0,1,.85,3.57v89.79l17.22.09A10.5,10.5,0,0,1,396,248.55l-.55,115.59A10.45,10.45,0,0,1,385,374.54l-53.24-.23a10.52,10.52,0,0,1-10.41-10.52l.19-40.53H274.75l3,20.54,15,4.35V357H180.15v-8.81l15.27-4.37,3.25-20.52H113.16l254,147.6A249.93,249.93,0,0,0,500,250Z" />
        </g>
    </g>
</svg>