<svg xmlns="http://www.w3.org/2000/svg" viewBox="0 0 73.1 73.1">
    <defs>
        <style>
            .cls-1 {
                fill: #1278a0;
            }

            .cls-2 {
                fill: #036989;
            }

            .cls-3 {
                fill: #081f20;
            }

            .cls-4 {
                fill: #0f3d3f;
            }

            .cls-5 {
                fill: #58dae0;
            }
        </style>
    </defs>
    <title>InteractiveAssesment_icon</title>
    <g id="Layer_2" data-name="Layer 2">
        <path class="cls-1" d="M74.33,38.05A36.55,36.55,0,1,1,37.77,1.5,36.55,36.55,0,0,1,74.33,38.05Z" transform="translate(-1.23 -1.5)" />
    </g>
    <g id="Layer_3" data-name="Layer 3">
        <path class="cls-2" d="M74.25,38.27a37.45,37.45,0,0,0-.4-5.44L50.14,19.05c.84.64-3.7,25.25-3.7,25.26S29.38,53.4,28.54,52.9C27.16,54,26,54.84,25,55.49L52.71,71.6A36.55,36.55,0,0,0,74.25,38.27Z"
            transform="translate(-1.23 -1.5)" />
    </g>
    <g id="Layer_1" data-name="Layer 1">
        <g id="Layer_4" data-name="Layer 4">
            <path d="M57.85,44.22a49.9,49.9,0,0,0,.72-5.75c-1.06-.54-2.42-1.15-4.07-1.81,0-1-.06,0-.23-1a49.62,49.62,0,0,0,4.3-3.3c-.28-1.12-.28-1.12-.49-2.16a15.84,15.84,0,0,0-1.32-2.54c-1.19.07-2.67,2.22-4.43,2.48a16.91,16.91,0,0,0-1.71-2.52c.88-1.54,1.56-4.67,2.05-5.76a23.45,23.45,0,0,0-2.89-2.67c-1,.64-2.89,1.9-4.28,3-.88-.52-1.12-1.13-2.06-1.48A15.37,15.37,0,0,0,43.25,18a21.53,21.53,0,0,0-3.76-.72c-.54,1.07-1.14,2.42-1.8,4.07a14,14,0,0,0-1.44.05c-.53,0-1.06.1-1.59.18-.9-1.53-1.69-2.78-2.39-3.75-1.12.29-1.22-.83-2.31-.35-.1,0-1.24.13-1.34.17.06,1.19.26,4.11.52,5.87a16.91,16.91,0,0,0-2.52,1.71c-1.54-.88-2.53-2.84-3.62-3.33-.92.89-2.31,1.51-3,2.54.12,1.25,1.74,3.84,2.85,5.23a17.27,17.27,0,0,0-1.32,2.74c-1.78,0-3.34-1.61-4.53-1.49a26.69,26.69,0,0,0-.63,4.18,12.94,12.94,0,0,0,4.07,3.06c0,1,.06,0,.23,1-1.54.89-2.78,1.69-3.76,2.38.29,1.12.67,4.23,1.14,5.33,0,.09.09.18.13.28a44.08,44.08,0,0,0,4.43-.47,7.46,7.46,0,0,0,1.07,1.74,41.18,41.18,0,0,0-1.89,3.77,34.27,34.27,0,0,0,3.37,3.44q1.5-1,3.6-2.62a16.69,16.69,0,0,0,2.73,1.31c0,1.78.07,3.26.2,4.45a20.68,20.68,0,0,0,3.75.71,43.25,43.25,0,0,0,1.8-4.07,14,14,0,0,0,1.45,0c.53,0,1.06-.1,1.59-.19.9,1.54,1.69,2.79,2.39,3.76A22.09,22.09,0,0,0,46,57.86l.29-.13c-.06-1.19-.22-2.66-.48-4.42a16.46,16.46,0,0,0,2.52-1.72c1.55.89,2.85,1.58,3.94,2.07a43.21,43.21,0,0,0,3.28-4.24,10.37,10.37,0,0,0-2.89-3.14,7.69,7.69,0,0,0,.8-1.86C55.19,44.41,56.67,44.34,57.85,44.22Zm-7.92-.91a13.35,13.35,0,0,1-7.1,7.4,14,14,0,0,1-2.89.89,13.69,13.69,0,0,1-1.55.2A13.41,13.41,0,0,1,35,25.25a12,12,0,0,1,1.55-.2A13.4,13.4,0,0,1,49.93,43.31Z"
                transform="translate(-1.23 -1.5)" />
        </g>
        <path class="cls-3" d="M43.52,34.91A6.51,6.51,0,0,0,37.07,31a6.43,6.43,0,0,0-2.08.49,6.5,6.5,0,0,0,3,12.48,6.7,6.7,0,0,0,2.08-.49A6.51,6.51,0,0,0,43.52,34.91ZM39.2,41.4a4.22,4.22,0,0,1-1.37.33,4.3,4.3,0,0,1-2-8.25,4.2,4.2,0,0,1,1.38-.32,4.29,4.29,0,0,1,2,8.24Z"
            transform="translate(-1.23 -1.5)" />
        <path class="cls-4" d="M44,33.54A7.18,7.18,0,0,0,37,29.26a7.07,7.07,0,0,0-2.39.57A7.19,7.19,0,0,0,38,43.59,7,7,0,0,0,40.33,43,7.19,7.19,0,0,0,44,33.54Zm-4.68,7.24a4.68,4.68,0,0,1-1.57.38,4.73,4.73,0,1,1,1.57-.38Z"
            transform="translate(-1.23 -1.5)" />
        <path class="cls-5" d="M49.73,31.05a13.31,13.31,0,0,0-13.22-8,12,12,0,0,0-1.55.2A13.41,13.41,0,0,0,38.39,49.8a13.69,13.69,0,0,0,1.55-.2,14,14,0,0,0,2.89-.89,13.42,13.42,0,0,0,6.9-17.66Zm-9.4,12a7,7,0,0,1-2.37.58,7.19,7.19,0,0,1-3.4-13.76A7.07,7.07,0,0,1,37,29.26,7.18,7.18,0,0,1,40.33,43Z"
            transform="translate(-1.23 -1.5)" />
        <path class="cls-4" d="M57.85,42.22a21.6,21.6,0,0,0,.72-3.75c-1.06-.54-2.42-1.15-4.07-1.81a16.41,16.41,0,0,0-.23-3c1.54-.89,2.79-1.69,3.75-2.38a21.19,21.19,0,0,0-1.13-3.34,2.39,2.39,0,0,1-.13-.28c-1.19.07-2.67.22-4.43.48a16.91,16.91,0,0,0-1.71-2.52q1.32-2.31,2.06-3.94a22.05,22.05,0,0,0-2.9-2.49,41.92,41.92,0,0,0-3.59,2.62,16.88,16.88,0,0,0-2.75-1.31c0-1.78-.07-3.26-.19-4.45a21.53,21.53,0,0,0-3.76-.72c-.54,1.07-1.14,2.42-1.8,4.07a14,14,0,0,0-1.44.05c-.53,0-1.06.1-1.59.18-.9-1.53-1.69-2.78-2.39-3.75A21.72,21.72,0,0,0,29,17l-.29.12c.06,1.2.22,2.67.48,4.43a16.91,16.91,0,0,0-2.52,1.71c-1.54-.88-2.86-1.57-3.94-2.06a21.4,21.4,0,0,0-2.5,2.9c.65,1,1.52,2.21,2.63,3.6a17.27,17.27,0,0,0-1.32,2.74c-1.78,0-3.26.07-4.44.19a21.71,21.71,0,0,0-.72,3.76c1.06.54,2.42,1.15,4.07,1.8a16.45,16.45,0,0,0,.23,3c-1.54.89-2.78,1.69-3.76,2.38A23.39,23.39,0,0,0,18,44.93c0,.09.09.18.13.28a44.08,44.08,0,0,0,4.43-.47,15.63,15.63,0,0,0,1.71,2.51c-.89,1.55-1.57,2.86-2.06,4a22.05,22.05,0,0,0,2.9,2.49q1.5-1,3.6-2.62a16.69,16.69,0,0,0,2.73,1.31c0,1.78.07,3.26.2,4.45a20.68,20.68,0,0,0,3.75.71,43.25,43.25,0,0,0,1.8-4.07,14,14,0,0,0,1.45,0c.53,0,1.06-.1,1.59-.19.9,1.54,1.69,2.79,2.39,3.76A22.09,22.09,0,0,0,46,55.86l.29-.13c-.06-1.19-.22-2.66-.48-4.42a16.46,16.46,0,0,0,2.52-1.72c1.55.89,2.85,1.58,3.94,2.07a21.58,21.58,0,0,0,2.5-2.91q-1-1.5-2.63-3.59a17.7,17.7,0,0,0,1.32-2.74C55.19,42.41,56.67,42.34,57.85,42.22Zm-7.92-.91a13.35,13.35,0,0,1-7.1,7.4,14,14,0,0,1-2.89.89,13.69,13.69,0,0,1-1.55.2A13.41,13.41,0,0,1,35,23.25a12,12,0,0,1,1.55-.2A13.4,13.4,0,0,1,49.93,41.31Z"
            transform="translate(-1.23 -1.5)" />
    </g>
</svg>