<svg id="Layer_1" data-name="Layer 1" xmlns="http://www.w3.org/2000/svg" viewBox="0 0 71.76 71.76">
    <defs>
        <style>
            .cls-1 {
                fill: #1278a0;
            }

            .cls-2 {
                fill: #0e7f8f;
            }

            .cls-3 {
                fill: #fff;
            }

            .cls-4 {
                fill: #036989;
            }
        </style>
    </defs>
    <title>learningPlaylist_icon</title>
    <path class="cls-1" d="M73.5,37.88A35.88,35.88,0,1,1,37.62,2,35.87,35.87,0,0,1,73.5,37.88Z" transform="translate(-1.74 -2)" />
    <path class="cls-2" d="M59.13,24.62A1.81,1.81,0,0,0,57.48,23L37.64,23l-19.83,0a1.82,1.82,0,0,0-1.66,1.62,107.9,107.9,0,0,0,0,27.29,1.8,1.8,0,0,0,1.65,1.62l19.84,0,19.83,0a1.82,1.82,0,0,0,1.66-1.61A108,108,0,0,0,59.13,24.62Z"
        transform="translate(-1.74 -2)" />
    <path class="cls-3" d="M48.2,37.7a.73.73,0,0,1,0,1.32l-7.32,4.69L38.82,45l-7.31,4.69c-.57.37-1,.11-1-.56l0-9.61V37.11l0-9.61c0-.68.46-.93,1-.56l7.3,4.71,2,1.33Z"
        transform="translate(-1.74 -2)" />
    <path class="cls-4" d="M73.5,37.88A35.86,35.86,0,0,0,73,32L58.75,23.7a1.88,1.88,0,0,1,.38.92,108,108,0,0,1,0,27.3,1.82,1.82,0,0,1-1.66,1.61l-19.83,0-19.84,0h-.08L49.26,71.82A35.89,35.89,0,0,0,73.5,37.88Z"
        transform="translate(-1.74 -2)" />
</svg>