<svg id="Layer_1" data-name="Layer 1" xmlns="http://www.w3.org/2000/svg" viewBox="0 0 73.19 73.19"><defs><style>.cls-1{fill:#1278a0;}.cls-2{fill:#1091a3;}.cls-3{fill:#fff;}.cls-4{fill:#1a2231;}.cls-5{fill:#ffa92b;}.cls-6{fill:#036989;}</style></defs><title>ELAReading_icon</title><path class="cls-1" d="M74.37,38.24a36.6,36.6,0,1,1-36.6-36.6A36.6,36.6,0,0,1,74.37,38.24Z" transform="translate(-1.18 -1.64)"/><path class="cls-2" d="M44.45,28.31c-11-1.46-23.21,6.12-27.34,16.93a18.47,18.47,0,0,0-1,10.57,46.31,46.31,0,0,1,18.32-1.29,34.48,34.48,0,0,1,15.62,5.79,26,26,0,0,0,6.79-9.79C61,39.7,55.43,29.77,44.45,28.31Z" transform="translate(-1.18 -1.64)"/><path class="cls-3" d="M44.17,26.65c-11-1.46-23.22,6.12-27.35,16.93a18.46,18.46,0,0,0-1,10.57,46.15,46.15,0,0,1,18.32-1.29,34.48,34.48,0,0,1,15.63,5.79,25.94,25.94,0,0,0,6.78-9.8C60.7,38,55.14,28.1,44.17,26.65Z" transform="translate(-1.18 -1.64)"/><path class="cls-4" d="M30.72,32.89a35.09,35.09,0,0,1-.44-4.46v-.27A7.3,7.3,0,0,0,28.8,25.8a1.71,1.71,0,0,1-.11-.14c.34-4.8.61-10,.61-10a23.83,23.83,0,0,0-4.62,8.4l-1.87.05c-2.47.07-3.91,2.33-3.19,5s3,4.84,5.15,4.79,4.84-.21,6.05-.33Z" transform="translate(-1.18 -1.64)"/><path class="cls-5" d="M46.11,26.9c0,8.61-4.54,15.85-12.4,15.59-4-.14-7.88-6.79-7.88-15.59,0-8.62,4.54-15.6,10.14-15.6S46.11,18.28,46.11,26.9Z" transform="translate(-1.18 -1.64)"/><path class="cls-4" d="M53,24.78l-4.5-.14c-.8-7.54-5.54-13-11.26-13.34-3.68-.2-5.22.67-7.45,3.28a9,9,0,0,1,4.88-1.31c6,0,10.85,7.08,10.85,15.8A33.36,33.36,0,0,1,45,33.53l-.09.72c1.21.12,3.93.26,6,.33s4.44-2.1,5.16-4.79S55.43,24.85,53,24.78Z" transform="translate(-1.18 -1.64)"/><path class="cls-5" d="M48,29c-.5,2.07-2.05,3.47-3.48,3.13s-2.19-2.3-1.69-4.37,2-3.46,3.48-3.12S48.44,26.88,48,29Z" transform="translate(-1.18 -1.64)"/><path class="cls-6" d="M74.37,38.24a36.47,36.47,0,0,0-.55-6.31L44.39,14.83a17.58,17.58,0,0,1,4.07,9.81l4.5.14c2.47.07,3.9,2.32,3.19,5a7.37,7.37,0,0,1-1.34,2.65,14.77,14.77,0,0,1,3,7.41,18.36,18.36,0,0,1-.94,10.67,26,26,0,0,1-6.79,9.79,34.48,34.48,0,0,0-15.62-5.79A46.2,46.2,0,0,0,16.58,55.7L47.33,73.57A36.61,36.61,0,0,0,74.37,38.24Z" transform="translate(-1.18 -1.64)"/></svg>