<?xml version="1.0" encoding="utf-8"?>
<!-- Generator: Adobe Illustrator 22.0.1, SVG Export Plug-In . SVG Version: 6.00 Build 0)  -->
<svg version="1.1" id="Layer_1" xmlns="http://www.w3.org/2000/svg" xmlns:xlink="http://www.w3.org/1999/xlink" x="0px" y="0px"
	 viewBox="0 0 75 75" style="enable-background:new 0 0 75 75;" xml:space="preserve">
<style type="text/css">
	.st0{fill:#EDC256;}
	.st1{fill:#DD9F51;}
	.st2{fill:#A8E1E8;}
	.st3{fill:#2B5967;}
	.st4{fill:#D8A739;}
</style>
<path class="st0" d="M74,37.7c0,20-16.2,36.2-36.2,36.2c-20,0-36.2-16.2-36.2-36.2c0-20,16.2-36.2,36.2-36.2
	C57.8,1.4,74,17.6,74,37.7z"/>
<polygon class="st1" points="43.5,31 32.4,31 32.4,17.1 45.9,25 "/>
<g>
	<path class="st2" d="M59.4,40.7c0-1.8-1-3.4-2.6-4.2c0.5-0.8,0.8-1.7,0.8-2.6c0-1.8-1.1-3.4-2.6-4.2c0.4-0.8,0.7-1.8,0.7-2.7
		c0-3-2.2-5.5-5.1-5.9c-0.9-2.1-3-3.5-5.5-3.5c-3.3,0-6,2.7-6,6V41v6c0,5.1,4.3,9.2,9.5,9.2c4.8,0,8.8-3.5,9.4-8.1
		c0-0.4,0.1-0.8,0.1-1.1c0-0.9-0.1-1.8-0.4-2.7C58.8,43.5,59.4,42.1,59.4,40.7z"/>
	<path class="st2" d="M30.4,17.6c-2.4,0-4.5,1.5-5.5,3.5c-2.9,0.5-5.1,3-5.1,5.9c0,1,0.2,1.9,0.7,2.7c-1.5,0.8-2.6,2.3-2.6,4.2
		c0,0.9,0.3,1.8,0.8,2.6c-1.6,0.8-2.6,2.4-2.6,4.2c0,1.4,0.6,2.7,1.7,3.6c-0.3,0.9-0.4,1.8-0.4,2.7c0,0.5,0,1,0.1,1.5
		c0.7,4.4,4.7,7.7,9.4,7.7c5.2,0,9.5-4.1,9.5-9.2v-6V23.6C36.4,20.3,33.7,17.6,30.4,17.6z"/>
	<g>
		<path class="st3" d="M30.5,41.1c-0.2-0.1-0.4,0-0.5,0.2c-0.1,0.2,0,0.4,0.2,0.5c3,1.6,3.3,4.6,2.6,6.7c-0.8,2.4-3.2,4.8-6.6,4.4
			c-0.2,0-0.4,0.1-0.4,0.3c0,0.2,0.1,0.4,0.3,0.4c0.3,0,0.6,0.1,0.9,0.1c3.4,0,5.8-2.5,6.6-5C34.6,45.6,33.4,42.6,30.5,41.1z"/>
		<path class="st3" d="M28.3,41.2C28.3,41.2,28.3,41.2,28.3,41.2c0.3,0,0.4-0.1,0.5-0.3c0-0.2-0.1-0.4-0.3-0.5
			c-0.9-0.2-1.9-0.2-2.8,0c-0.2,0-0.4,0.2-0.3,0.5c0,0.2,0.2,0.3,0.5,0.3C26.6,41,27.5,41,28.3,41.2z"/>
		<path class="st3" d="M21.7,42.6c-2,2.3-2.3,5.6-0.7,8c0.1,0.1,0.2,0.2,0.3,0.2c0.1,0,0.1,0,0.2-0.1c0.2-0.1,0.2-0.4,0.1-0.5
			c-1.4-2.2-1.1-5.1,0.6-7.1c0.1-0.2,0.1-0.4,0-0.6C22.1,42.5,21.9,42.5,21.7,42.6z"/>
		<path class="st3" d="M32.7,20.4c-0.2-0.1-0.4,0-0.5,0.2c-0.1,0.2,0,0.4,0.2,0.5c1.4,0.7,1.5,2.1,1.2,3.1c-0.4,1.1-1.5,2.2-3,2
			c-0.2,0-0.4,0.1-0.4,0.3c0,0.2,0.1,0.4,0.3,0.4c0.2,0,0.3,0,0.5,0c1.8,0,3-1.3,3.4-2.6C34.8,22.7,34.2,21.2,32.7,20.4z"/>
		<path class="st3" d="M28.1,20.8c-1,1.2-1.2,2.9-0.4,4.2c0.1,0.1,0.2,0.2,0.3,0.2c0.1,0,0.1,0,0.2-0.1c0.2-0.1,0.2-0.4,0.1-0.5
			c-0.6-1-0.5-2.3,0.3-3.2c0.1-0.2,0.1-0.4,0-0.6C28.5,20.6,28.2,20.7,28.1,20.8z"/>
		<path class="st3" d="M30.4,16.9c-2.5,0-4.8,1.4-6,3.6c-3.1,0.7-5.3,3.4-5.3,6.6c0,0.8,0.2,1.6,0.4,2.4c-1.5,1-2.4,2.7-2.4,4.5
			c0,0.8,0.2,1.6,0.5,2.3c-1.5,1-2.4,2.7-2.4,4.5c0,1.5,0.6,2.9,1.6,3.9c-0.2,0.8-0.3,1.6-0.3,2.4c0,5.5,4.6,10,10.3,10
			c5.7,0,10.3-4.5,10.3-10V23.6C37.2,19.9,34.1,16.9,30.4,16.9z M16.7,40.6c0-2.1,1.7-3.9,3.9-3.9c1.2,0,2.3,0.6,3.1,1.5
			C21.1,39.1,19,41,18,43.5C17.2,42.8,16.7,41.7,16.7,40.6z M35.6,47c0,4.7-3.9,8.5-8.8,8.5c-4.8,0-8.8-3.8-8.8-8.5
			c0-4.7,3.9-8.5,8.8-8.5c2.1,0,4.1,0.7,5.7,2.1c0.2,0.1,0.4,0.1,0.6,0c0.1-0.2,0.1-0.4,0-0.6c-0.2-0.2-0.4-0.3-0.6-0.5
			c0.6-0.4,1.1-1,1.5-1.6c0.1-0.2,0.1-0.4-0.1-0.5c-0.2-0.1-0.4-0.1-0.5,0.1c-0.4,0.6-1,1.2-1.6,1.6c-1.5-0.9-3.2-1.3-4.9-1.3
			c-0.8,0-1.6,0.1-2.4,0.3c-0.9-1.3-2.3-2.1-3.9-2.1c-0.4,0-0.9,0.1-1.3,0.2c-0.5-0.7-0.8-1.5-0.8-2.3c0-2.1,1.7-3.9,3.9-3.9
			c2.1,0,3.9,1.7,3.9,3.9c0,0.7-0.2,1.4-0.5,2c-0.1,0.2,0,0.4,0.1,0.5c0.2,0.1,0.4,0,0.5-0.1c0.4-0.7,0.6-1.5,0.6-2.4
			c0-0.4,0-0.7-0.1-1c0.6-0.1,1.1-0.3,1.7-0.6c0.5-0.2,1-0.3,1.5-0.2c0.6,0.1,1.1,0.5,1.4,1c0.3,0.5,0.4,1.1,0.3,1.7
			c0,0.2,0.1,0.4,0.3,0.5c0,0,0.1,0,0.1,0c0.2,0,0.3-0.1,0.4-0.3c0.2-0.8,0-1.6-0.4-2.3c-0.4-0.7-1.1-1.1-1.9-1.3
			c-0.6-0.1-1.3,0-1.9,0.2c0,0,0,0-0.1,0c0,0,0,0-0.1,0c0,0,0,0,0,0c0,0,0,0,0,0c-0.5,0.3-1,0.4-1.5,0.5c-0.7-1.7-2.4-2.9-4.3-2.9
			c-0.5,0-0.9,0.1-1.3,0.2c-0.4-0.8-0.6-1.6-0.6-2.5c0-2.4,1.7-4.5,4-5.1c-0.1,0.5-0.2,1.1-0.2,1.6c0,3.3,2.7,6,6,6
			c0.2,0,0.4-0.2,0.4-0.4c0-0.2-0.2-0.4-0.4-0.4c-2.9,0-5.2-2.4-5.2-5.2c0-2.9,2.4-5.2,5.2-5.2s5.2,2.4,5.2,5.2V47z"/>
	</g>
	<g>
		<path class="st3" d="M49.8,40.4c-0.9-0.2-1.9-0.2-2.7,0c-0.2,0-0.3,0.3-0.3,0.5c0,0.2,0.2,0.3,0.4,0.3c0,0,0.1,0,0.1,0
			c0.8-0.2,1.6-0.2,2.4,0c0.2,0,0.4-0.1,0.5-0.3C50.2,40.6,50,40.4,49.8,40.4z"/>
		<path class="st3" d="M49.3,52.9c-3.4,0.4-5.9-2-6.6-4.4c-0.7-2.2-0.4-5.1,2.6-6.7c0.2-0.1,0.3-0.3,0.2-0.5
			c-0.1-0.2-0.3-0.3-0.5-0.2c-2.8,1.5-4,4.6-3,7.7c0.8,2.5,3.2,5,6.6,5c0.3,0,0.6,0,0.9-0.1c0.2,0,0.4-0.2,0.3-0.4
			C49.7,53,49.6,52.9,49.3,52.9z"/>
		<path class="st3" d="M53.2,42.6c-0.2,0.1-0.2,0.4,0,0.6c1.8,2,2,4.9,0.6,7.1c-0.1,0.2-0.1,0.4,0.1,0.5c0.1,0,0.1,0.1,0.2,0.1
			c0.1,0,0.3-0.1,0.3-0.2c1.6-2.5,1.3-5.8-0.7-8C53.6,42.5,53.4,42.5,53.2,42.6z"/>
		<path class="st3" d="M44.7,26.9c0.2,0,0.3,0,0.5,0c0.2,0,0.4-0.2,0.3-0.4c0-0.2-0.2-0.4-0.4-0.3c-1.6,0.2-2.7-0.9-3-2
			c-0.3-1-0.2-2.3,1.2-3.1c0.2-0.1,0.3-0.3,0.2-0.5c-0.1-0.2-0.3-0.3-0.5-0.2c-1.5,0.8-2.1,2.4-1.6,4C41.7,25.7,42.9,26.9,44.7,26.9
			z"/>
		<path class="st3" d="M47.1,24.6C47,24.8,47,25,47.2,25.1c0.1,0,0.1,0.1,0.2,0.1c0.1,0,0.3-0.1,0.3-0.2c0.8-1.3,0.7-3-0.4-4.2
			c-0.1-0.2-0.4-0.2-0.6,0c-0.2,0.1-0.2,0.4,0,0.6C47.6,22.3,47.7,23.6,47.1,24.6z"/>
		<path class="st3" d="M60.2,40.7c0-1.8-0.9-3.5-2.4-4.5c0.3-0.7,0.5-1.5,0.5-2.3c0-1.8-0.9-3.5-2.4-4.5c0.3-0.8,0.4-1.6,0.4-2.4
			c0-3.2-2.2-5.9-5.3-6.6c-1.2-2.2-3.5-3.6-6-3.6c-3.7,0-6.8,3-6.8,6.8V47c0,5.5,4.6,10,10.3,10c5.7,0,10.3-4.5,10.3-10
			c0-0.8-0.1-1.6-0.3-2.4C59.6,43.6,60.2,42.2,60.2,40.7z M48.7,55.4c-4.8,0-8.8-3.8-8.8-8.5V23.4c0-2.9,2.4-5.2,5.2-5.2
			c2.9,0,5.2,2.4,5.2,5.2c0,2.9-2.4,5.2-5.2,5.2c-0.2,0-0.4,0.2-0.4,0.4c0,0.2,0.2,0.4,0.4,0.4c3.3,0,6-2.7,6-6
			c0-0.6-0.1-1.1-0.2-1.6c2.3,0.6,4,2.7,4,5.1c0,0.9-0.2,1.7-0.6,2.5c-0.4-0.1-0.8-0.2-1.3-0.2c-1.9,0-3.6,1.2-4.3,2.9
			c-0.5-0.1-1-0.3-1.5-0.5c0,0,0,0,0,0c0,0,0,0,0,0c0,0,0,0-0.1,0c0,0,0,0-0.1,0c-0.6-0.3-1.3-0.4-1.9-0.2c-0.8,0.2-1.5,0.6-1.9,1.3
			c-0.4,0.7-0.6,1.5-0.4,2.3c0,0.2,0.2,0.3,0.4,0.3c0,0,0.1,0,0.1,0c0.2,0,0.3-0.3,0.3-0.5c-0.1-0.6,0-1.2,0.3-1.7
			c0.3-0.5,0.8-0.8,1.4-1c0.5-0.1,1,0,1.5,0.2c0.5,0.3,1.1,0.5,1.7,0.6c-0.1,0.3-0.1,0.7-0.1,1c0,0.8,0.2,1.6,0.6,2.4
			c0.1,0.2,0.4,0.3,0.5,0.1c0.2-0.1,0.3-0.4,0.1-0.5c-0.3-0.6-0.5-1.3-0.5-2c0-2.1,1.7-3.9,3.9-3.9c2.1,0,3.9,1.7,3.9,3.9
			c0,0.8-0.3,1.6-0.8,2.3C55.7,36,55.3,36,54.9,36c-1.5,0-3,0.8-3.9,2.1c-0.8-0.2-1.5-0.3-2.4-0.3c-1.8,0-3.5,0.5-4.9,1.3
			c-0.6-0.4-1.2-1-1.6-1.6c-0.1-0.2-0.4-0.2-0.5-0.1c-0.2,0.1-0.2,0.4-0.1,0.5c0.4,0.6,0.9,1.2,1.5,1.6c-0.2,0.1-0.4,0.3-0.6,0.5
			c-0.2,0.1-0.2,0.4,0,0.6c0.1,0.2,0.4,0.2,0.6,0c1.6-1.3,3.6-2.1,5.7-2.1c4.8,0,8.8,3.8,8.8,8.5C57.4,51.6,53.5,55.4,48.7,55.4z
			 M51.8,38.3c0.7-0.9,1.9-1.5,3.1-1.5c2.1,0,3.9,1.7,3.9,3.9c0,1.1-0.5,2.1-1.3,2.8C56.5,41,54.4,39.1,51.8,38.3z"/>
	</g>
</g>
<path class="st4" d="M74,37.7c0-1.8-0.1-3.5-0.4-5.2c-8.2-4.8-16.4-9.5-24.5-14.3c0.8,0.6,1.5,1.4,2,2.3c3.1,0.7,5.3,3.4,5.3,6.6
	c0,0.8-0.2,1.6-0.4,2.4c1.5,1,2.4,2.7,2.4,4.5c0,0.8-0.2,1.6-0.5,2.3c1.4,1,2.4,2.7,2.4,4.5c0,1.5-0.6,2.9-1.6,3.9
	c0.2,0.8,0.3,1.6,0.3,2.4c0,5.5-4.6,10-10.3,10c-5.7,0-10.3-4.5-10.3-10V23.6c0-0.1,0-0.2,0-0.2h-1.2c0,0.1,0,0.2,0,0.2V47
	c0,5.5-4.6,10-10.3,10c-1.5,0-2.9-0.3-4.2-0.9l27,15.7C63.9,66.9,74,53.5,74,37.7z"/>
</svg>
