<svg id="Layer_1" data-name="Layer 1" xmlns="http://www.w3.org/2000/svg" viewBox="0 0 73.21 73.21"><defs><style>.cls-1{fill:#1278a0;}.cls-2{fill:#fff;}.cls-3{fill:#2eb7c7;}.cls-4{fill:#ffa92b;}.cls-5{fill:#036989;}</style></defs><title>Math_icon</title><path class="cls-1" d="M74.35,37.8A36.61,36.61,0,1,1,37.75,1.19,36.6,36.6,0,0,1,74.35,37.8Z" transform="translate(-1.14 -1.19)"/><path class="cls-2" d="M29.62,43.82c-.25,0-.37-.21-.37-.46V42.12c0-.26.12-.47.37-.47s.38.21.38.47v1.24C30,43.61,29.88,43.82,29.62,43.82Z" transform="translate(-1.14 -1.19)"/><path class="cls-2" d="M29.62,40.72c-.25,0-.37-.2-.37-.46V38.4c0-.26.12-.46.37-.46s.38.2.38.46v1.86C30,40.52,29.88,40.72,29.62,40.72Zm0-3.72c-.25,0-.37-.2-.37-.46V34.68c0-.25.12-.46.37-.46s.38.21.38.46v1.86C30,36.8,29.88,37,29.62,37Zm0-3.71c-.25,0-.37-.21-.37-.47V31c0-.26.12-.47.37-.47s.38.21.38.47v1.85C30,33.08,29.88,33.29,29.62,33.29Zm0-3.72c-.25,0-.37-.21-.37-.46V27.25c0-.26.12-.47.37-.47s.38.21.38.47v1.86C30,29.36,29.88,29.57,29.62,29.57Zm0-3.72c-.25,0-.37-.21-.37-.46V23.53c0-.26.12-.47.37-.47s.38.21.38.47v1.86C30,25.64,29.88,25.85,29.62,25.85Z" transform="translate(-1.14 -1.19)"/><path class="cls-2" d="M29.62,21.21c-.25,0-.37-.21-.37-.47V19.5c0-.25.12-.46.37-.46s.38.21.38.46v1.24C30,21,29.88,21.21,29.62,21.21Z" transform="translate(-1.14 -1.19)"/><path class="cls-2" d="M54.71,45c0,.26-.21.38-.47.38H53c-.25,0-.46-.12-.46-.38s.21-.38.46-.38h1.24C54.5,44.64,54.71,44.77,54.71,45Z" transform="translate(-1.14 -1.19)"/><path class="cls-2" d="M51.61,45c0,.26-.21.38-.47.38H49.28c-.25,0-.46-.12-.46-.38s.21-.38.46-.38h1.86C51.4,44.64,51.61,44.77,51.61,45Zm-3.72,0c0,.26-.21.38-.46.38H45.57c-.26,0-.47-.12-.47-.38s.21-.38.47-.38h1.86C47.68,44.64,47.89,44.77,47.89,45Zm-3.72,0c0,.26-.2.38-.46.38H41.85c-.26,0-.46-.12-.46-.38s.2-.38.46-.38h1.86C44,44.64,44.17,44.77,44.17,45Zm-3.72,0c0,.26-.2.38-.46.38H38.13c-.25,0-.46-.12-.46-.38s.21-.38.46-.38H40C40.25,44.64,40.45,44.77,40.45,45Zm-3.71,0c0,.26-.21.38-.47.38H34.41c-.25,0-.46-.12-.46-.38s.21-.38.46-.38h1.86C36.53,44.64,36.74,44.77,36.74,45Z" transform="translate(-1.14 -1.19)"/><path class="cls-2" d="M32.09,45c0,.26-.21.38-.46.38H30.39c-.26,0-.47-.12-.47-.38s.21-.38.47-.38h1.24C31.88,44.64,32.09,44.77,32.09,45Z" transform="translate(-1.14 -1.19)"/><path class="cls-2" d="M29.39,45.13a.41.41,0,0,1-.06.6L28,47c-.19.19-.42.24-.6.06a.39.39,0,0,1,.06-.59l1.32-1.32A.39.39,0,0,1,29.39,45.13Zm-2.63,2.63c.19.18.12.42-.06.6l-1.31,1.31a.39.39,0,0,1-.6.06c-.18-.18-.12-.41.06-.6l1.32-1.31A.39.39,0,0,1,26.76,47.76Zm-2.63,2.63a.4.4,0,0,1-.05.6L22.76,52.3a.41.41,0,0,1-.6.06c-.18-.18-.12-.41.06-.6l1.32-1.31A.39.39,0,0,1,24.13,50.39Z" transform="translate(-1.14 -1.19)"/><path class="cls-2" d="M20.85,53.67a.4.4,0,0,1-.06.6l-.88.88a.39.39,0,0,1-.59.06.41.41,0,0,1,.06-.6l.87-.87A.4.4,0,0,1,20.85,53.67Z" transform="translate(-1.14 -1.19)"/><path class="cls-3" d="M45.47,29.91h-26a.71.71,0,0,1-.55-1.23l9.92-9.92a.76.76,0,0,1,.55-.24h26a.8.8,0,0,1,.55,1.36L46,29.74A.73.73,0,0,1,45.47,29.91ZM21.31,28.39H45.15L53.51,20H29.67Z" transform="translate(-1.14 -1.19)"/><path class="cls-3" d="M46.34,55.34a.78.78,0,0,1-.78.78H19.39a.78.78,0,0,1-.78-.78V29.17a.78.78,0,0,1,.78-.78H45.56a.78.78,0,0,1,.78.78ZM20.13,54.6H44.82V29.91H20.13Z" transform="translate(-1.14 -1.19)"/><path class="cls-3" d="M45.47,56.12h-26a.88.88,0,0,1-.83-.83v-26a.81.81,0,0,1,.26-.55l9.93-9.94a.83.83,0,0,1,.56-.25h26a.87.87,0,0,1,.83.83v26a.83.83,0,0,1-.25.55L46,55.86A.84.84,0,0,1,45.47,56.12ZM20.13,54.6h25l9.54-9.55V20h-25l-9.54,9.54Z" transform="translate(-1.14 -1.19)"/><path class="cls-4" d="M33.81,42.82A6.68,6.68,0,0,1,34,40.66l.94-5a4.71,4.71,0,0,1,1.36-2.94,2.71,2.71,0,0,1,1.87-.7,1.85,1.85,0,0,1,2,1.85,2.19,2.19,0,0,1-1.27,2v.07A1.86,1.86,0,0,1,40,37.78a2.65,2.65,0,0,1-2.69,2.63,2.27,2.27,0,0,1-1.61-.62h0l-.13.85a9.22,9.22,0,0,0-.23,2.18Zm3.45-7.21a.46.46,0,0,0,.2,0,1.36,1.36,0,0,0,1.1-1.43c0-.47-.24-.86-.7-.86s-1,.53-1.27,1.93L36,38.59a1.28,1.28,0,0,0,2.38-.79,1.12,1.12,0,0,0-1-1.15h-.26Z" transform="translate(-1.14 -1.19)"/><path class="cls-5" d="M74.35,37.8A36.36,36.36,0,0,0,73.28,29L56.14,19a.82.82,0,0,1,.07.31v26a.83.83,0,0,1-.25.55L46.29,55.6a.78.78,0,0,1-.73.52h-26L48.3,72.85A36.62,36.62,0,0,0,74.35,37.8Z" transform="translate(-1.14 -1.19)"/></svg>