<svg id="Layer_1" data-name="Layer 1" xmlns="http://www.w3.org/2000/svg" viewBox="0 0 73.18 73.18"><defs><style>.cls-1{fill:#1278a0;}.cls-2{fill:#05a6aa;}.cls-3{fill:#2eb7c7;}.cls-4{fill:#218591;}.cls-5{fill:#2b5967;}.cls-6{fill:#fff;}.cls-7{fill:#036989;}</style></defs><title>science_icon</title><path class="cls-1" d="M73.65,37.52A36.59,36.59,0,1,1,37.06.92,36.59,36.59,0,0,1,73.65,37.52Z" transform="translate(-0.47 -0.92)"/><path class="cls-2" d="M21.31,18.48A1.71,1.71,0,0,1,22.67,18c2.3,0,6.76,2.33,12.24,7.3l1.8,0,.35-.33C31.37,19.56,26,16.24,22.67,16.24A3.4,3.4,0,0,0,20,17.33c-1.71,2-.88,6,1.4,10.61.53-.22,1.09-.42,1.66-.61C20.9,23,20.26,19.69,21.31,18.48Z" transform="translate(-0.47 -0.92)"/><path class="cls-2" d="M27.85,35.21a61.55,61.55,0,0,1-4-6.28c-.58.18-1.13.38-1.67.59a65.68,65.68,0,0,0,4.55,7.16Z" transform="translate(-0.47 -0.92)"/><path class="cls-3" d="M36.73,46.36h.67L37.06,46Z" transform="translate(-0.47 -0.92)"/><path class="cls-3" d="M37.06,25.25h.36l-.36-.33-.35.33Z" transform="translate(-0.47 -0.92)"/><path class="cls-2" d="M47.37,36.68l-1.09-1.47c-1.19-1.57-2.46-3.12-3.75-4.6q-1.64-1.87-3.29-3.56C38.63,27,38,27,37.4,27l-.34.34c1.34,1.32,2.73,2.79,4.15,4.42s2.79,3.31,4,4.92c.38.5.73,1,1.08,1.47a62.27,62.27,0,0,1,4,6.29c.57-.19,1.13-.39,1.66-.6A66.51,66.51,0,0,0,47.37,36.68Z" transform="translate(-0.47 -0.92)"/><path class="cls-3" d="M37.06,48.12v0h-.35l.35.34.36-.34Z" transform="translate(-0.47 -0.92)"/><path class="cls-3" d="M37.4,27h-.67l.33.34Z" transform="translate(-0.47 -0.92)"/><path class="cls-3" d="M36.73,27c-.62,0-1.24,0-1.84.05q-1.65,1.68-3.29,3.56c-1.3,1.48-2.56,3-3.75,4.6l-1.09,1.47a66.66,66.66,0,0,0-4.55,7.16c.53.21,1.09.41,1.67.6a60.54,60.54,0,0,1,4-6.29c.34-.48.7-1,1.07-1.47,1.21-1.61,2.54-3.26,4-4.92s2.81-3.1,4.15-4.42Z" transform="translate(-0.47 -0.92)"/><path class="cls-2" d="M32.91,41.61c-1.45-1.67-2.78-3.32-4-4.93-.37.5-.73,1-1.07,1.47,1.19,1.58,2.45,3.13,3.75,4.61q1.63,1.88,3.29,3.56l.92.92.92-.88.33-.33Q35.05,44,32.91,41.61Z" transform="translate(-0.47 -0.92)"/><path class="cls-2" d="M52.73,45.43q-.79.32-1.65.6c2.15,4.37,2.79,7.65,1.73,8.85a1.69,1.69,0,0,1-1.35.5c-2.3,0-6.76-2.33-12.25-7.31-.29-.27-.59-.54-.89-.83l-.9.87-.36.34c5.69,5.35,11.09,8.68,14.4,8.68A3.36,3.36,0,0,0,54.13,56C55.85,54.07,55,50.09,52.73,45.43Z" transform="translate(-0.47 -0.92)"/><path class="cls-4" d="M23.88,28.93c-.3-.55-.58-1.08-.83-1.6-.57.19-1.13.39-1.66.61.26.52.53,1,.82,1.58C22.75,29.31,23.3,29.11,23.88,28.93Z" transform="translate(-0.47 -0.92)"/><path class="cls-5" d="M52.73,27.94c-.25.52-.53,1-.82,1.58,4.57,1.79,7.48,4.36,7.48,7.16s-2.91,5.38-7.48,7.16c-.53.21-1.09.41-1.66.6a42.61,42.61,0,0,1-11,1.88l-.92.92c.3.29.6.56.89.83a43,43,0,0,0,11.87-2q.86-.28,1.65-.6c5.18-2.08,8.42-5.2,8.42-8.75S57.91,30,52.73,27.94Z" transform="translate(-0.47 -0.92)"/><path class="cls-5" d="M34.89,46.32a42.46,42.46,0,0,1-11-1.88c-.58-.19-1.14-.39-1.67-.6-4.56-1.78-7.48-4.35-7.48-7.16s2.92-5.37,7.48-7.16c-.29-.53-.56-1.06-.82-1.58C16.22,30,13,33.14,13,36.68s3.24,6.67,8.41,8.75c.53.21,1.09.41,1.66.6a43,43,0,0,0,11.86,2c.3-.27.6-.54.9-.83Z" transform="translate(-0.47 -0.92)"/><path class="cls-3" d="M54.13,17.33a3.36,3.36,0,0,0-2.67-1.09c-3.31,0-8.71,3.32-14.4,8.68l.36.33,1.79,0c5.49-5,9.95-7.3,12.25-7.3a1.69,1.69,0,0,1,1.35.49c1.06,1.21.42,4.48-1.73,8.85-.26.52-.54,1.05-.83,1.6a63.35,63.35,0,0,1-4,6.28l1.09,1.47a65.54,65.54,0,0,0,4.54-7.16c.29-.53.57-1.06.82-1.58C55,23.28,55.85,19.3,54.13,17.33Z" transform="translate(-0.47 -0.92)"/><path class="cls-3" d="M45.2,36.68c-1.2,1.61-2.53,3.26-4,4.93S38.4,44.7,37.06,46l.34.33h-.67l-.92.88c-.3.29-.6.56-.9.83-5.48,5-9.94,7.31-12.24,7.31a1.7,1.7,0,0,1-1.36-.5c-1-1.2-.42-4.48,1.74-8.85-.57-.19-1.13-.39-1.66-.6C19.11,50.09,18.28,54.07,20,56a3.4,3.4,0,0,0,2.68,1.1c3.31,0,8.7-3.33,14.39-8.68l-.35-.34h.35v0h.36l.9-.87.92-.92q1.65-1.68,3.29-3.56c1.29-1.48,2.56-3,3.75-4.61C45.93,37.67,45.58,37.18,45.2,36.68Z" transform="translate(-0.47 -0.92)"/><path class="cls-5" d="M39.21,25.29l-1.79,0h-.71l-1.8,0a43.41,43.41,0,0,0-11.86,2c.25.52.53,1.05.83,1.6a42,42,0,0,1,11-1.88c.6,0,1.22,0,1.84-.05h.67c.62,0,1.23,0,1.84.05a42.19,42.19,0,0,1,11,1.88c.29-.55.57-1.08.83-1.6A43.41,43.41,0,0,0,39.21,25.29Z" transform="translate(-0.47 -0.92)"/><path class="cls-6" d="M33.2,36.68a3.87,3.87,0,1,0,3.86-3.86A3.86,3.86,0,0,0,33.2,36.68Z" transform="translate(-0.47 -0.92)"/><path class="cls-7" d="M73.65,37.52a36.7,36.7,0,0,0-1.3-9.67L54,17.18l.14.15c1.72,2,.88,6-1.4,10.61,5.18,2.08,8.42,5.2,8.42,8.74s-3.24,6.67-8.42,8.75c2.28,4.66,3.12,8.64,1.4,10.6a3.36,3.36,0,0,1-2.67,1.1c-3.31,0-8.71-3.33-14.4-8.68C31.37,53.8,26,57.13,22.67,57.13a4.18,4.18,0,0,1-1.2-.17l26.6,15.46A36.61,36.61,0,0,0,73.65,37.52Z" transform="translate(-0.47 -0.92)"/></svg>