<svg id="Layer_1" data-name="Layer 1" xmlns="http://www.w3.org/2000/svg" viewBox="0 0 73.35 73.35"><defs><style>.cls-1{fill:#1278a0;}.cls-2{fill:#7ab4c5;}.cls-3{fill:#bcdae2;}.cls-4{fill:#d19144;}.cls-5{fill:#724f25;}.cls-6{fill:#ffa92b;}.cls-7{fill:#036989;}</style></defs><title>socialStudies_icon</title><path class="cls-1" d="M73.75,38.05A36.68,36.68,0,1,1,37.07,1.37,36.67,36.67,0,0,1,73.75,38.05Z" transform="translate(-0.4 -1.37)"/><path class="cls-2" d="M34.11,42.5s.22-5.75.09-6V26.2a1.68,1.68,0,0,0-3.36,0v7.07c-.22-.09-.44-.18-.67-.25V22.93a1.68,1.68,0,1,0-3.36,0V32.7h-.67V21.42a1.68,1.68,0,1,0-3.36,0V33c-.22.07-.45.16-.66.25V22.93a1.68,1.68,0,1,0-3.36,0V36.49s0,2.89-.06,2.87l-.76-.66-3.75-3.28a1.68,1.68,0,0,0-2.37,2.38l6.49,6.5a12.19,12.19,0,0,0,1,1.44,6.45,6.45,0,0,0,2.54,2.43V71.4a36.71,36.71,0,0,0,10,2.94V47.67A6.6,6.6,0,0,0,34.11,42.5Z" transform="translate(-0.4 -1.37)"/><path class="cls-3" d="M52.2,38.12a13.09,13.09,0,0,0,1-1.44l6.5-6.5a1.68,1.68,0,0,0-2.38-2.38l-3.74,3.27-.76.67c-.09,0-.06-2.87-.06-2.87V15.31a1.68,1.68,0,1,0-3.36,0V25.65c-.22-.1-.44-.18-.67-.26V13.79a1.68,1.68,0,0,0-3.36,0V25.08h-.67V15.31a1.68,1.68,0,1,0-3.36,0V25.39c-.23.08-.45.16-.67.26V18.58a1.68,1.68,0,1,0-3.36,0V28.87c-.13.26.09,6,.09,6A6.54,6.54,0,0,0,39.7,40V74.62a36.67,36.67,0,0,0,10-2.12v-32A6.4,6.4,0,0,0,52.2,38.12Z" transform="translate(-0.4 -1.37)"/><path class="cls-4" d="M32.76,46.4V74.46a36,36,0,0,0,4.31.26,37.7,37.7,0,0,0,5.66-.43V46.4Z" transform="translate(-0.4 -1.37)"/><path class="cls-5" d="M45.22,37.92l0-.07V30.68H29.64V41.57h0v.51c0,3.52,2.58,5.85,6.15,5.85h3.33c4.08,0,6.1-3.25,6.1-3.88V37.92ZM33.28,41.57h0Z" transform="translate(-0.4 -1.37)"/><path class="cls-6" d="M41.12,30.68h0a1.69,1.69,0,1,0-3.38,0l0,4.38a1.69,1.69,0,0,0,3.38,0Z" transform="translate(-0.4 -1.37)"/><path class="cls-6" d="M37.07,30.68a1.69,1.69,0,1,0-3.38,0l0,4.38h0a1.69,1.69,0,0,0,3.38,0Z" transform="translate(-0.4 -1.37)"/><path class="cls-6" d="M45.2,32V30.68a1.69,1.69,0,0,0-3.38,0l0,3h0v1.35a1.69,1.69,0,0,0,3.38,0V32Z" transform="translate(-0.4 -1.37)"/><path class="cls-6" d="M33,30.68a1.69,1.69,0,1,0-3.38,0v4.38a1.7,1.7,0,0,0,3.39,0Z" transform="translate(-0.4 -1.37)"/><path class="cls-4" d="M45.83,41.15a8.28,8.28,0,0,0-.71-3.45l-1.26-3.58c-.31-.92-.82-1.66-1.75-1.63a2.61,2.61,0,0,0-1.47.71,1.67,1.67,0,0,0-.45,1.22l1.2,5-4.32,2.29c-3.13,1.68-1.83,6.45-.42,6.45h2.47a6.56,6.56,0,0,0,6.09-3.8A8.17,8.17,0,0,0,45.83,41.15Z" transform="translate(-0.4 -1.37)"/><path class="cls-7" d="M52.73,15.31V28.87s0,2.88.06,2.87l.76-.67,3.74-3.27a1.68,1.68,0,1,1,2.38,2.38l-6.5,6.5a13.09,13.09,0,0,1-1,1.44,6.4,6.4,0,0,1-2.53,2.42v32A36.7,36.7,0,0,0,71.45,25.25L52.12,14A1.64,1.64,0,0,1,52.73,15.31Z" transform="translate(-0.4 -1.37)"/></svg>