<svg id="Layer_1" data-name="Layer 1" xmlns="http://www.w3.org/2000/svg" viewBox="0 0 73.21 73.21"><defs><style>.cls-1{fill:#1278a0;}.cls-2{fill:#036989;}.cls-3{fill:#66c6c9;}.cls-4{fill:#00a0a5;}.cls-5{fill:none;}.cls-6{fill:#333e53;}.cls-7{fill:#1a2231;}.cls-8{fill:#263449;}.cls-9{fill:#fff;}</style></defs><title>worldLanguages_icon</title><path class="cls-1" d="M73.81,37.45A36.61,36.61,0,1,1,37.2.84,36.62,36.62,0,0,1,73.81,37.45Z" transform="translate(-0.59 -0.84)"/><path class="cls-2" d="M73.81,37.45a37,37,0,0,0-.74-7.35L59.6,21.49c.56.59-25.12,5.7-25.12,6.57l-8.64,3.07-6.24.23L15.27,36.9,53.19,70.38A36.6,36.6,0,0,0,73.81,37.45Z" transform="translate(-0.59 -0.84)"/><path class="cls-3" d="M25.57,48.32A13.11,13.11,0,0,0,38.68,61.43V35.2A13.12,13.12,0,0,0,25.57,48.32Z" transform="translate(-0.59 -0.84)"/><path class="cls-4" d="M38.68,35.2V61.43a13.12,13.12,0,1,0,0-26.23Z" transform="translate(-0.59 -0.84)"/><path class="cls-5" d="M36.11,43.42c-.22-.26.3-.47.15-.59s-.68,0-.67.28-.31.25-.24-.06-.45-.19-.58-.08-.39.5-.31.71.51.06.72.09.56.23.89.27c.6.07.24-.39,0-.62S36.19,43.51,36.11,43.42Z" transform="translate(-0.59 -0.84)"/><path class="cls-5" d="M38.39,47.3c-.26-.16-.49-.67-.8-.67s.1.93.24,1,.09-.15.14-.16,0,.64.54.4c.23-.11.17-.16.17-.39s-.1-.09-.29-.2Z" transform="translate(-0.59 -0.84)"/><path class="cls-5" d="M39,39c.2-.08-.3-.26-.35-.27v.35A1.47,1.47,0,0,0,39,39Z" transform="translate(-0.59 -0.84)"/><path class="cls-5" d="M38.39,44.74a3.13,3.13,0,0,0-.18-.93c-.1-.16-.26-.24-.16-.46s.28-.23.26-.31-.59,0-.68.06c-.31.18,0,.91.13,1.1s-.27.6,0,.8a1.14,1.14,0,0,0,.57.16C38.63,45.16,38.42,44.86,38.39,44.74Z" transform="translate(-0.59 -0.84)"/><path class="cls-6" d="M31.55,40.33c.12,0,.8-.43.62-.53s-.77.36-.77.47A.14.14,0,0,0,31.55,40.33Z" transform="translate(-0.59 -0.84)"/><path class="cls-6" d="M31.8,40.6s-.27,0-.22.1c.18.26.73.15.85-.1a3.5,3.5,0,0,0,.44-1c0-.47-.55.27-.59.36S31.92,40.58,31.8,40.6Z" transform="translate(-0.59 -0.84)"/><path class="cls-6" d="M37.42,55.58c-.19.08-.34.34-.5.47s-.48.15-.5.49-.25,1.41.54,1.2c.36-.1.43-.62.53-.92,0-.14.23-1.35-.07-1.24Z" transform="translate(-0.59 -0.84)"/><path class="cls-7" d="M49.15,51c0,.09,0,.62.18.61s.65-.11.65-.41a4.65,4.65,0,0,1,.2-.88c0-.21,0-.36,0-.58s0-.78-.2-.48a2.22,2.22,0,0,0-.24.57c0,.16-.12.33-.17.5S49.12,50.79,49.15,51Z" transform="translate(-0.59 -0.84)"/><path class="cls-7" d="M50.25,47.72a5.54,5.54,0,0,0,.47.86c.21-.2,0-.94-.12-1.16a12.85,12.85,0,0,0-.66-1.12C49.52,46.3,50.19,47.62,50.25,47.72Z" transform="translate(-0.59 -0.84)"/><path class="cls-7" d="M47.42,49.4a3.94,3.94,0,0,0,0,.68c0,.15.28.26.35.42s.06.41.25.55.65.25.36-.07c-.13-.14-.07-.34-.22-.49a2.76,2.76,0,0,1-.52-.61c-.06-.12,0-1.12.08-1a.83.83,0,0,0,0,.15c.05.06.25,0,.33.12s.47.35.37.41c.44-.23.41-1.11.24-1.46-.26-.53-.8-.77-.4-1.43.22-.37.2.84.4.52.1-.17,0-.37-.07-.54s.26-.49.34-.69a2.19,2.19,0,0,0-.67-2.62.5.5,0,0,1-.15-.53c.06-.24-.18-.31-.21-.08s-.62-.37-.34-.68c.06-.06.19.18.25.18s.06-.44.27-.07c0,0,.69.65.63.69.25-.15-.25-.68-.35-.77a2,2,0,0,1-.47-.84,3.85,3.85,0,0,0-1-1.79c-.08-.06-.64-.61-.77-.5s-.49-.32-.6-.45a1.66,1.66,0,0,1-.34-.77c-.1-.28-.52-.32-.68-.56a7,7,0,0,0,1,.54,4.47,4.47,0,0,0,.77.48c-.14,0-.45-.42-.61-.53-.34-.25-.72-.46-1.08-.68a8.84,8.84,0,0,0-1.2-.58c-.17-.06-.81-.41-.94-.36s.35.39.39.43,0,.27,0,.42-.23.15-.12.2.08.14,0,.24-.55-.11-.6,0,0,.18-.27.24-.21.31-.33.05c-.25-.52-.92-.1-1,.28s-.12.45-.47.57-.11-.07-.3-.13,0,.6,0,.61-.78-.18-.81-.37c-.06-.4.4-.52.54-.82-.57.18-.75.37-.75.92,0,.16.81.32,0,.39,0,0,0,.08,0,.1v8.2c.35,0,.33,0,.55.18s.6.09.78.12c.34.05.71-.11,1,0a1.83,1.83,0,0,1,.5.5.43.43,0,0,0,.64.28c.32-.21.27.22.31.44a8.64,8.64,0,0,0,.89,2c.28.66.7-.51.68-.78s-.09-.56.16-.86a8.52,8.52,0,0,0,.67-.91c.13-.2.16-.5.41-.59s.4-.37.67-.1.55.48.55.85c0,.53.45-.12.43-.14a1.86,1.86,0,0,1,.46,1.06C47.43,49.54,47.4,49.26,47.42,49.4Z" transform="translate(-0.59 -0.84)"/><path class="cls-7" d="M49.67,45.49c0-.05-.11-.46-.22-.42s.06.56.19.51l0-.09C49.65,45.39,49.68,45.59,49.67,45.49Z" transform="translate(-0.59 -0.84)"/><path class="cls-7" d="M44.28,50.87c-.22-.14-.17.41-.09.5s.38-.33.09-.5C44.19,50.81,44.38,50.92,44.28,50.87Z" transform="translate(-0.59 -0.84)"/><path class="cls-6" d="M38.67,35.3a13.79,13.79,0,0,0-3.49.59c-.14,0-1.89.4-1.89.64s1.42-.12,1.56-.16a9.37,9.37,0,0,0,.89-.31s.81-.22.7,0-.79.23-1,.31-.64.22-1,.32A7,7,0,0,0,33.4,37c-.15.08-1.13.5-1.13.68,0,0,.91-.21,1-.21a6.53,6.53,0,0,0,1.53,0,10.27,10.27,0,0,0,2.41-1c.08.13,0,.32.05.46s.35.19.47.22a5.44,5.44,0,0,0,1,.11C38.68,37.06,38.7,35.3,38.67,35.3Z" transform="translate(-0.59 -0.84)"/><path class="cls-7" d="M39.33,37.36c.74-.33,1.32,0,2.07-.09.22,0,.11-.11.26-.2a1.26,1.26,0,0,1,.55,0c.11,0,0-.87-.05-.92s-.59-.23-.8-.34a3.45,3.45,0,0,0-.65-.3,10.63,10.63,0,0,0-2-.17v1.87c0,.16.5.26.65.19Z" transform="translate(-0.59 -0.84)"/><path class="cls-6" d="M38.79,49.45a3.35,3.35,0,0,0,.78-.9c.18-.26-.13-.42-.31-.53-.34-.2-.1-.56-.58-.23a2.61,2.61,0,0,0,0,.79v.93l.11-.06C38.86,49.39,38.76,49.47,38.79,49.45Z" transform="translate(-0.59 -0.84)"/><path class="cls-6" d="M38.55,38.47a.2.2,0,0,0,.13.23v-.49a1.26,1.26,0,0,0-.13.26C38.54,38.56,38.57,38.41,38.55,38.47Z" transform="translate(-0.59 -0.84)"/><path class="cls-7" d="M51.3,51.18c-.29.31-.38,1.18-.71,1.38-.16.1-.23.42-.32.59a4.64,4.64,0,0,1-.67,1.08,5.53,5.53,0,0,0-.93,1.27c-.09.18-.18.36-.26.55s-.51.63-.5.84.87-.29.92-.36a.82.82,0,0,0,.12-.2c.31-.47.61-.95.89-1.43A10.12,10.12,0,0,0,51.48,51a.73.73,0,0,0-.18.17Z" transform="translate(-0.59 -0.84)"/><path class="cls-6" d="M38.34,39.09a5.42,5.42,0,0,0-.82.3c-.12,0-.88.45-.68-.13.06-.19,1,.19.26-.44a1.19,1.19,0,0,0-1.37-.17c-.61.22-1.73.48-2,1-.21.37.72.16.2.7-.26.26.4,0,.52-.1s.2-.12.35-.21,0-.27.14-.38S36,39,36,39.26s-.87.29-.75.78c0,.13.5,0,.6.1s-.59.14-.61.14c-.31.06-.53.62-.76.61a1.29,1.29,0,0,1-.34,0,3.38,3.38,0,0,1-.57-.12c-.14-.06.12-.34.14-.53s-.32.09-.34.15c-.11.29-.18.29-.48.31s-.67.3-1,.35a.84.84,0,0,1-.5,0c-.19-.08,0,.36-.09.44s-.29.76-.61.53-.71.07-.95.42c-.33,0-.13.51-.14.69,0,.54,1-.3,1.1-.34l.56-.36c.2-.11.22.11.37.14.33.07.38,0,.51.35a2.44,2.44,0,0,1,.27.77c0,.4-.83.11-.43.5.22.21.58-.49.66-.55s.1.11.15.06-.27-.74-.29-.84c0-.28.13-.71.23-.25,0,.26.37.63.3.9a3.45,3.45,0,0,0,.1,1c-.07,0,.45-.35.4-.19,0-.13-.22-.23-.07-.36a.43.43,0,0,1,.43-.08c.24.1,0,.58.09.79.27.51,1.38,0,1.22.78-.2.91-1.09.67-1.72.42-.28-.11-.64-.5-1-.38-.14.06-.15.24-.29.29s-.5-.29-.5-.44-.43-.46-.53-.71.54-.47.29-.67-.33,0-.46,0-.33-.17-.52-.22-.37,0-.56,0-.41-.34-.59-.16-.28.13-.41.24a2.69,2.69,0,0,0-.33.41c-.21.24-.55.34-.78.57a2.39,2.39,0,0,0-.81,1.23,5.28,5.28,0,0,0,0,3.38c.14.38.53.5.85.7s.61-.07.84.29.5.31.66.55c.28.42,0,.86.12,1.3s.7,1.13.64,1.62c0,.27.29.41.15.71a1.11,1.11,0,0,0,.09,1.06,9.38,9.38,0,0,0,1.08,1.78c.52.54.8,1.17,1.6,1.21.41,0,1.35-.09,1.24-.74-.05-.31.49-.24.32-.67s.17-.57.46-.7.6-.22.49-.59-.12-.59-.23-.91a1.22,1.22,0,0,1,.37-1.48c.77-.7,1.68-1.19,2-2.27.14-.5-.66-.3-.89-.27-.66.08-.8-.51-1.21-.93A3,3,0,0,1,35,48.39c0-.17-.47-1.64-.32-1.59.36.11.61,1.05.71,1.38.18.55.49,1,.66,1.56a2.47,2.47,0,0,0,.22.59c.11.19.46,0,.62,0a2.54,2.54,0,0,0,.9-.27c.23-.13.41-.36.67-.42.49-.09.24-1.38.24-1.8-.13.09-.45.24-.61.12s0-.44-.1-.42-.11.18-.14.16-.6-1-.24-1,.55.74,1.09.72v-8.3l-.34,0Zm-1.93,4.85c-.11.21-.57.12-.75,0a1.59,1.59,0,0,0-.88-.14c-.85,0,.13-1.25.45-1,.14.11.05.48.23.46s0-.37.27-.44c.14,0,.88,0,.43.23s.43.55.25.87Zm2,1.22c-.92,0-.45-.59-.7-1.11-.1-.21-.33-.78,0-.95.09-.05.65-.18.68-.06s-.22.24-.26.31c-.14.28.2.33.2.55S38.58,45.16,38.37,45.16Z" transform="translate(-0.59 -0.84)"/><path class="cls-7" d="M48.41,52.63c.29.31,1,0,1.29-.08.13,0,.87-.69.78-.72s-.57.37-.69.42a3.12,3.12,0,0,1-.94.21c-.33,0,0-.52,0-.62s-.37-.07-.45-.22-1.31-.94-1.31-.64.51.57.64.76A5.89,5.89,0,0,0,48.41,52.63Z" transform="translate(-0.59 -0.84)"/><path class="cls-8" d="M14.8,21.56a2.93,2.93,0,0,1,2.93-2.93H40.61a2.93,2.93,0,0,1,2.93,2.93V35.31a2.93,2.93,0,0,1-2.93,2.93H27.08l-3.41,3.55-2.9-3.55h-3a2.93,2.93,0,0,1-2.93-2.93Z" transform="translate(-0.59 -0.84)"/><path class="cls-9" d="M59.6,31a2.93,2.93,0,0,1-2.93,2.93h-3l-2.9,3.54-3.41-3.54H33.79A2.93,2.93,0,0,1,30.86,31V17.24a2.93,2.93,0,0,1,2.93-2.93H56.67a2.93,2.93,0,0,1,2.93,2.93Z" transform="translate(-0.59 -0.84)"/></svg>