<?xml version="1.0" encoding="utf-8"?>
<!-- Generator: Adobe Illustrator 16.0.4, SVG Export Plug-In . SVG Version: 6.00 Build 0)  -->
<!DOCTYPE svg PUBLIC "-//W3C//DTD SVG 1.1//EN" "http://www.w3.org/Graphics/SVG/1.1/DTD/svg11.dtd">
<svg version="1.1" id="Layer_1" xmlns="http://www.w3.org/2000/svg" xmlns:xlink="http://www.w3.org/1999/xlink" x="0px" y="0px"
	 width="25px" height="25px" viewBox="0 0 25 25" enable-background="new 0 0 25 25" xml:space="preserve">
<g>
	<path fill="none" stroke="#ABABAB" d="M0.5,0.5c0,8,0,16,0,24c8,0,16,0,24,0c0-8,0-16,0-24C16.5,0.5,8.5,0.5,0.5,0.5L0.5,0.5z"/>
	<polygon fill="#ABABAB" points="4.828,4.821 4.828,10.821 10.828,10.821 10.828,4.821 4.828,4.821 	"/>
	<polygon fill="#ABABAB" points="4.828,14.176 4.828,20.176 10.828,20.176 10.828,14.176 4.828,14.176 	"/>
	<polygon fill="#ABABAB" points="14.172,4.821 14.172,10.821 20.172,10.821 20.172,4.821 14.172,4.821 	"/>
	<polygon fill="#ABABAB" points="14.172,14.176 14.172,20.176 20.172,20.176 20.172,14.176 14.172,14.176 	"/>
</g>
</svg>
