<?xml version="1.0" encoding="utf-8"?>
<!-- Generator: Adobe Illustrator 16.0.4, SVG Export Plug-In . SVG Version: 6.00 Build 0)  -->
<!DOCTYPE svg PUBLIC "-//W3C//DTD SVG 1.1//EN" "http://www.w3.org/Graphics/SVG/1.1/DTD/svg11.dtd">
<svg version="1.1" id="Layer_1" xmlns="http://www.w3.org/2000/svg" xmlns:xlink="http://www.w3.org/1999/xlink" x="0px" y="0px"
	 width="25px" height="25px" viewBox="0 0 25 25" enable-background="new 0 0 25 25" xml:space="preserve">
<g>
	<path fill="none" stroke="#ABABAB" d="M0.5,0.5c0,8,0,16,0,24c8,0,16,0,24,0c0-8,0-16,0-24C16.5,0.5,8.5,0.5,0.5,0.5L0.5,0.5z"/>
	<polygon fill="#ABABAB" points="5,5.031 5,8.031 20,8.031 20,5.031 5,5.031 	"/>
	<polygon fill="#ABABAB" points="5,11.007 5,14.008 20,14.008 20,11.007 5,11.007 	"/>
	<polygon fill="#ABABAB" points="5,16.967 5,19.967 20,19.967 20,16.967 5,16.967 	"/>
</g>
</svg>
