<?xml version="1.0" encoding="utf-8"?>
<!-- Generator: Adobe Illustrator 16.0.4, SVG Export Plug-In . SVG Version: 6.00 Build 0)  -->
<!DOCTYPE svg PUBLIC "-//W3C//DTD SVG 1.1//EN" "http://www.w3.org/Graphics/SVG/1.1/DTD/svg11.dtd">
<svg version="1.1" id="Layer_1" xmlns="http://www.w3.org/2000/svg" xmlns:xlink="http://www.w3.org/1999/xlink" x="0px" y="0px"
	 width="30px" height="30px" viewBox="0 0 30 30" enable-background="new 0 0 30 30" xml:space="preserve">
<g>
	<polyline fill="#58595B" points="30,30 0,30 0,0 30,0 30,30 	"/>
	<path fill="#ABABAB" d="M6.565,7.679L22.32,23.434c0.308,0.307,0.807,0.307,1.114,0c0.308-0.309,0.308-0.807,0-1.115L7.679,6.565
		c-0.307-0.308-0.806-0.308-1.114,0C6.258,6.873,6.258,7.372,6.565,7.679"/>
	<path fill="#ABABAB" d="M7.679,23.434L23.433,7.679c0.308-0.308,0.308-0.806,0-1.114s-0.807-0.308-1.114,0L6.564,22.32
		c-0.307,0.307-0.307,0.805,0,1.113C6.872,23.742,7.371,23.742,7.679,23.434"/>
</g>
</svg>
