<?xml version="1.0" encoding="utf-8"?>
<!-- Generator: Adobe Illustrator 16.0.4, SVG Export Plug-In . SVG Version: 6.00 Build 0)  -->
<!DOCTYPE svg PUBLIC "-//W3C//DTD SVG 1.1//EN" "http://www.w3.org/Graphics/SVG/1.1/DTD/svg11.dtd">
<svg version="1.1" id="Layer_1" xmlns="http://www.w3.org/2000/svg" xmlns:xlink="http://www.w3.org/1999/xlink" x="0px" y="0px"
	 width="63px" height="63px" viewBox="0 0 63 63" enable-background="new 0 0 63 63" xml:space="preserve">
<g>
	<path fill="#FFFFFF" d="M31.5,63C48.897,63,63,48.896,63,31.5C63,14.103,48.897,0,31.5,0C14.103,0,0,14.103,0,31.5
		C0,48.896,14.103,63,31.5,63L31.5,63z"/>
	<path fill="#3EB799" d="M48.986,45.006c-0.01-0.01-0.021-0.018-0.032-0.027c-0.004-0.004-0.008-0.01-0.013-0.016L48.3,44.32
		l-0.104-0.105L24.821,20.842c0.623-2.307,0.036-4.874-1.776-6.685c-2.07-2.07-5.125-2.543-7.654-1.432l4.598,4.598
		c0.063,0.062,0.098,0.151,0.101,0.26l0.063,2.411c0.006,0.217-0.121,0.482-0.334,0.694c-0.212,0.213-0.477,0.34-0.694,0.334
		l-2.411-0.063c-0.109-0.003-0.198-0.039-0.26-0.101l-4.598-4.598c-1.111,2.528-0.638,5.584,1.432,7.654
		c1.812,1.812,4.378,2.399,6.685,1.775l23.48,23.479l0,0l0.641,0.643c0.006,0.004,0.012,0.008,0.017,0.012
		c0.01,0.01,0.019,0.021,0.027,0.031c1.339,1.34,3.51,1.34,4.849,0C50.324,48.516,50.324,46.346,48.986,45.006L48.986,45.006z
		 M48.034,48.902c-0.813,0.814-2.131,0.814-2.944,0c-0.812-0.812-0.812-2.131,0-2.945c0.813-0.812,2.131-0.812,2.944,0
		C48.847,46.771,48.847,48.09,48.034,48.902L48.034,48.902z"/>
	<path fill="#3EB799" d="M51.317,14.882l-2.43-2.429c-0.549-0.548-1.44-0.549-1.989,0l-0.584,0.584l-0.098,0.096L30.545,28.806
		c-0.128,0.128-0.223,0.289-0.272,0.471l-0.899,3.358L15.957,46.053c-0.202-0.104-0.453-0.076-0.622,0.094L12.97,48.51
		c-0.211,0.211-0.211,0.553,0,0.764l1.526,1.527c0.211,0.211,0.553,0.211,0.764-0.002l2.365-2.363
		c0.168-0.17,0.196-0.42,0.094-0.623l13.417-13.416l3.357-0.9c0.182-0.049,0.343-0.143,0.472-0.271l15.769-15.769h-0.001
		l0.585-0.585C51.865,16.323,51.865,15.43,51.317,14.882L51.317,14.882z M35.338,25.339l11.405-11.404
		c0.627-0.627,1.622-0.649,2.283-0.08L35.259,27.622C34.69,26.961,34.712,25.966,35.338,25.339L35.338,25.339z M49.835,17.027
		L38.431,28.431c-0.628,0.627-1.621,0.649-2.282,0.08l13.767-13.767C50.483,15.405,50.462,16.399,49.835,17.027L49.835,17.027z"/>
</g>
</svg>
