<?xml version="1.0" encoding="utf-8"?>
<!-- Generator: Adobe Illustrator 19.0.0, SVG Export Plug-In . SVG Version: 6.00 Build 0)  -->
<svg version="1.1" id="Layer_1" xmlns="http://www.w3.org/2000/svg" xmlns:xlink="http://www.w3.org/1999/xlink" x="0px" y="0px"
	 viewBox="0 0 30 30" style="enable-background:new 0 0 30 30;" xml:space="preserve">
<style type="text/css">
	.st0{fill:#FFFFFF;}
</style>
<g id="XMLID_575_">
	<path id="XMLID_577_" class="st0" d="M13,15L13,15c0,2.2,1.4,4.1,3.1,4.1h3.1c1.1,0,2,0.9,2,2c0,1.1-0.9,2-2,2H16
		c-3.9,0-7.1-3.7-7.1-8.1V8.9c0-1.1,0.9-2,2-2s2,0.9,2,2v2h6.1c1.1,0,2,0.9,2,2s-0.9,2-2,2H13z M30,15c0-8.3-6.7-15-15-15
		S0,6.7,0,15s6.7,15,15,15S30,23.3,30,15"/>
</g>
</svg>
