<?xml version="1.0" encoding="utf-8"?>
<!-- Generator: Adobe Illustrator 19.0.0, SVG Export Plug-In . SVG Version: 6.00 Build 0)  -->
<svg version="1.1" id="Layer_1" xmlns="http://www.w3.org/2000/svg" xmlns:xlink="http://www.w3.org/1999/xlink" x="0px" y="0px"
	 viewBox="0 0 30 30" style="enable-background:new 0 0 30 30;" xml:space="preserve">
<style type="text/css">
	.st0{fill:#FFFFFF;}
</style>
<g id="XMLID_575_">
	<path id="XMLID_577_" class="st0" d="M23.9,23.3h-3.5v-7.8c0-0.3-0.1-0.6-0.2-0.7c-0.1-0.1-0.4-0.1-0.7,0l-2.5,0.9v7.6h-3.5V11.1
		h3.5V12l1.4-0.5c1.4-0.5,2.8-0.3,3.9,0.4c1.1,0.8,1.7,2.1,1.7,3.6V23.3z M12.3,7.6c0,1.3-1.1,2.4-2.4,2.4c-1.3,0-2.4-1.1-2.4-2.4
		c0-1.3,1.1-2.4,2.4-2.4C11.2,5.2,12.3,6.3,12.3,7.6 M8.2,11.1h3.5v12.2H8.2V11.1z M30,15c0-8.3-6.7-15-15-15S0,6.7,0,15
		s6.7,15,15,15S30,23.3,30,15"/>
</g>
</svg>
