<?xml version="1.0" encoding="utf-8"?>
<!-- Generator: Adobe Illustrator 16.0.4, SVG Export Plug-In . SVG Version: 6.00 Build 0)  -->
<!DOCTYPE svg PUBLIC "-//W3C//DTD SVG 1.1//EN" "http://www.w3.org/Graphics/SVG/1.1/DTD/svg11.dtd">
<svg version="1.1" id="Layer_1" xmlns="http://www.w3.org/2000/svg" xmlns:xlink="http://www.w3.org/1999/xlink" x="0px" y="0px"
	 width="30px" height="30px" viewBox="0 0 30 30" enable-background="new 0 0 30 30" xml:space="preserve">
<g>
	<path fill="#FFFFFF" d="M30,15c0-8.284-6.716-15-15-15C6.716,0,0,6.716,0,15c0,8.283,6.716,15,15,15C23.284,30,30,23.283,30,15
		L30,15z M8.168,11.074h3.499v12.243H8.168V11.074L8.168,11.074z M12.278,7.576c0,1.305-1.054,2.36-2.36,2.36
		c-1.308,0-2.362-1.055-2.362-2.36c0-1.305,1.054-2.36,2.362-2.36C11.224,5.216,12.278,6.271,12.278,7.576L12.278,7.576z
		 M23.91,23.316h-3.498V15.52c0-0.34-0.089-0.605-0.238-0.711c-0.146-0.105-0.431-0.104-0.748,0.006l-2.512,0.871v7.631h-3.498
		V11.074h3.498v0.909l1.368-0.472c1.407-0.488,2.835-0.324,3.921,0.448c1.085,0.772,1.707,2.068,1.707,3.561V23.316L23.91,23.316z"
		/>
</g>
</svg>
