<?xml version="1.0" encoding="utf-8"?>
<!-- Generator: Adobe Illustrator 16.0.4, SVG Export Plug-In . SVG Version: 6.00 Build 0)  -->
<!DOCTYPE svg PUBLIC "-//W3C//DTD SVG 1.1//EN" "http://www.w3.org/Graphics/SVG/1.1/DTD/svg11.dtd">
<svg version="1.1" id="Layer_1" xmlns="http://www.w3.org/2000/svg" xmlns:xlink="http://www.w3.org/1999/xlink" x="0px" y="0px"
	 width="30px" height="30px" viewBox="0 0 30 30" enable-background="new 0 0 30 30" xml:space="preserve">
<g>
	<path fill="#FFFFFF" d="M30,15c0-8.284-6.716-15-15-15C6.716,0,0,6.716,0,15c0,8.283,6.716,15,15,15C23.284,30,30,23.283,30,15
		L30,15z M12.966,14.996v0.002c0,2.207,1.398,4.07,3.052,4.07h3.052c1.126,0,2.035,0.91,2.035,2.035
		c0,1.127-0.909,2.037-2.035,2.037h-3.052c-3.925,0-7.123-3.652-7.123-8.143V8.893c0-1.123,0.909-2.034,2.035-2.034
		s2.035,0.911,2.035,2.034v2.036h6.104c1.126,0,2.035,0.909,2.035,2.034c0,1.124-0.909,2.033-2.035,2.033H12.966L12.966,14.996z"/>
</g>
</svg>
