<?xml version="1.0" encoding="utf-8"?>
<!-- Generator: Adobe Illustrator 16.0.4, SVG Export Plug-In . SVG Version: 6.00 Build 0)  -->
<!DOCTYPE svg PUBLIC "-//W3C//DTD SVG 1.1//EN" "http://www.w3.org/Graphics/SVG/1.1/DTD/svg11.dtd">
<svg version="1.1" id="Layer_1" xmlns="http://www.w3.org/2000/svg" xmlns:xlink="http://www.w3.org/1999/xlink" x="0px" y="0px"
	 width="30px" height="30px" viewBox="0 0 30 30" enable-background="new 0 0 30 30" xml:space="preserve">
<g>
	<path fill="#FFFFFF" d="M30,15c0-8.284-6.716-15-15-15C6.716,0,0,6.716,0,15c0,8.283,6.716,15,15,15C23.284,30,30,23.283,30,15
		L30,15z M19.515,15.709h-3.498v10.496h-3.499V15.709H9.02v-3.497h3.498v-2.143c0-2.894,1.685-4.853,4.097-4.853h2.899V8.66H16.89
		c-0.301,0-0.873,0.164-0.873,0.737v2.815h3.498V15.709L19.515,15.709z"/>
</g>
</svg>
