<?xml version="1.0" encoding="utf-8"?>
<!-- Generator: Adobe Illustrator 16.0.4, SVG Export Plug-In . SVG Version: 6.00 Build 0)  -->
<!DOCTYPE svg PUBLIC "-//W3C//DTD SVG 1.1//EN" "http://www.w3.org/Graphics/SVG/1.1/DTD/svg11.dtd">
<svg version="1.1" id="Layer_1" xmlns="http://www.w3.org/2000/svg" xmlns:xlink="http://www.w3.org/1999/xlink" x="0px" y="0px"
	 width="18px" height="16px" viewBox="0 0 18 16" enable-background="new 0 0 18 16" xml:space="preserve">
<g>
	<path fill="#ABABAB" d="M9.579,0.392l1.54,4.417c0.181,0.518,0.7,0.869,1.285,0.869h4.986c0.59,0,0.835,0.703,0.357,1.025
		l-4.034,2.73c-0.473,0.319-0.671,0.888-0.49,1.406l1.541,4.416c0.182,0.522-0.459,0.957-0.937,0.635l-4.034-2.73
		c-0.473-0.32-1.115-0.32-1.588,0l-4.034,2.73c-0.477,0.322-1.118-0.112-0.936-0.635l1.541-4.416
		c0.181-0.519-0.018-1.087-0.491-1.406l-4.034-2.73C-0.225,6.381,0.02,5.678,0.61,5.678h4.986c0.585,0,1.104-0.351,1.285-0.869
		l1.54-4.417C8.604-0.13,9.397-0.13,9.579,0.392L9.579,0.392z"/>
</g>
</svg>
