<?xml version="1.0" encoding="utf-8"?>
<!-- Generator: Adobe Illustrator 16.0.4, SVG Export Plug-In . SVG Version: 6.00 Build 0)  -->
<!DOCTYPE svg PUBLIC "-//W3C//DTD SVG 1.1//EN" "http://www.w3.org/Graphics/SVG/1.1/DTD/svg11.dtd">
<svg version="1.1" id="Layer_1" xmlns="http://www.w3.org/2000/svg" xmlns:xlink="http://www.w3.org/1999/xlink" x="0px" y="0px"
	 width="50.666px" height="45.037px" viewBox="0 0 50.666 45.037" enable-background="new 0 0 50.666 45.037" xml:space="preserve">
<g>
	<path fill="#ff6900" d="M26.962,1.103l4.337,12.431c0.51,1.46,1.97,2.448,3.617,2.448H48.95c1.659,0,2.349,1.977,1.007,2.885
		L38.604,26.55c-1.333,0.901-1.892,2.501-1.383,3.961l4.338,12.431c0.513,1.471-1.293,2.692-2.636,1.783l-11.354-7.683
		c-1.332-0.902-3.137-0.902-4.47,0l-11.355,7.683c-1.342,0.909-3.148-0.312-2.635-1.783l4.337-12.431
		c0.509-1.46-0.049-3.06-1.381-3.961L0.709,18.866c-1.342-0.908-0.652-2.885,1.007-2.885h14.035c1.647,0,3.107-0.988,3.617-2.448
		l4.336-12.431C24.217-0.367,26.449-0.367,26.962,1.103L26.962,1.103z"/>
</g>
</svg>
